<?xml version="1.0" encoding="utf-8"?>
<!-- Generator: Adobe Illustrator 26.4.1, SVG Export Plug-In . SVG Version: 6.00 Build 0)  -->
<svg version="1.1" xmlns="http://www.w3.org/2000/svg" xmlns:xlink="http://www.w3.org/1999/xlink" x="0px" y="0px"
	 viewBox="0 0 1125 2436" style="enable-background:new 0 0 1125 2436;" xml:space="preserve">
<g id="Layer_1">
	<g>
		<path style="opacity:0.29;fill:#020000;stroke:#CCFF00;stroke-width:5;stroke-miterlimit:10;" d="M128.56,1034.301c9.366-16.252,23.498-24.381,42.4-24.381c15.727,0,28.621,5.565,38.69,16.695
			c10.07,11.131,15.105,24.824,15.105,41.076v78.706H39.253v-73.141c0-15.9,4.902-29.283,14.708-40.148
			c9.805-10.865,22.306-16.298,37.498-16.298C106.829,1016.811,119.197,1022.641,128.56,1034.301z M73.438,1073.257v36.57h40.811
			v-36.57c0-5.652-1.941-10.377-5.83-14.178c-3.884-3.798-8.745-5.698-14.575-5.698s-10.688,1.855-14.575,5.565
			C75.385,1062.656,73.438,1067.427,73.438,1073.257z M190.57,1067.691c0-6.182-2.074-11.304-6.228-15.37
			c-4.148-4.062-9.407-6.096-15.768-6.096c-6.182,0-11.35,2.033-15.503,6.096c-4.148,4.066-6.228,9.188-6.228,15.37v42.136h43.726
			V1067.691z"/>
		<path style="opacity:0.29;fill:#020000;stroke:#CCFF00;stroke-width:5;stroke-miterlimit:10;" d="M200.508,829.984c18.642,18.728,27.958,41.519,27.958,68.371c0,26.856-9.316,49.601-27.958,68.238
			c-18.637,18.642-41.473,27.958-68.503,27.958c-27.031,0-49.862-9.316-68.504-27.958c-18.638-18.638-27.958-41.382-27.958-68.238
			c0-26.853,9.32-49.644,27.958-68.371c18.642-18.725,41.473-28.091,68.504-28.091C159.035,801.894,181.871,811.26,200.508,829.984z
			 M175.598,941.021c11.396-11.481,17.093-25.705,17.093-42.665c0-16.961-5.697-31.18-17.093-42.666
			c-11.396-11.482-25.925-17.226-43.593-17.226c-17.665,0-32.24,5.743-43.727,17.226c-11.481,11.486-17.225,25.705-17.225,42.666
			c0,16.96,5.743,31.184,17.225,42.665c11.486,11.486,26.062,17.226,43.727,17.226C149.673,958.246,164.202,952.507,175.598,941.021
			z"/>
		<path style="opacity:0.29;fill:#020000;stroke:#CCFF00;stroke-width:5;stroke-miterlimit:10;" d="M200.508,620.103c18.642,18.728,27.958,41.519,27.958,68.371c0,26.856-9.316,49.601-27.958,68.238
			c-18.637,18.642-41.473,27.958-68.503,27.958c-27.031,0-49.862-9.316-68.504-27.958c-18.638-18.638-27.958-41.382-27.958-68.238
			c0-26.853,9.32-49.644,27.958-68.371c18.642-18.725,41.473-28.091,68.504-28.091C159.035,592.012,181.871,601.378,200.508,620.103
			z M175.598,731.139c11.396-11.481,17.093-25.705,17.093-42.665c0-16.961-5.697-31.18-17.093-42.666
			c-11.396-11.482-25.925-17.226-43.593-17.226c-17.665,0-32.24,5.743-43.727,17.226c-11.481,11.486-17.225,25.705-17.225,42.666
			c0,16.96,5.743,31.184,17.225,42.665c11.486,11.486,26.062,17.226,43.727,17.226C149.673,748.364,164.202,742.625,175.598,731.139
			z"/>
		<path style="opacity:0.29;fill:#020000;stroke:#CCFF00;stroke-width:5;stroke-miterlimit:10;" d="M224.756,421.351v42.136l-86.893,66.251h86.893v36.57H39.253v-36.57h81.741l-81.741-63.602V424
			l90.098,68.633L224.756,421.351z"/>
		<path style="opacity:0.29;fill:#020000;stroke:#CCFF00;stroke-width:5;stroke-miterlimit:10;" d="M38.988,359.872l73.671,19.876v27.825l-73.671-10.6V359.872z"/>
		<path style="opacity:0.29;fill:#020000;stroke:#CCFF00;stroke-width:5;stroke-miterlimit:10;" d="M228.466,274.538c0,18.377-4.107,33.834-12.322,46.376c-8.215,12.546-19.387,21.378-33.523,26.5
			l-18.285-31.271c18.906-7.241,28.355-21.465,28.355-42.665c0-10.244-1.854-17.756-5.565-22.525
			c-3.71-4.771-8.389-7.155-14.045-7.155c-6.534,0-11.614,2.915-15.237,8.745c-3.619,5.83-7.553,16.256-11.793,31.271
			c-2.472,8.306-4.944,15.329-7.42,21.067c-2.473,5.743-5.785,11.486-9.938,17.226c-4.149,5.743-9.408,10.116-15.769,13.118
			c-6.359,3.006-13.78,4.505-22.26,4.505c-16.782,0-30.165-5.963-40.148-17.888c-9.979-11.926-14.973-26.277-14.973-43.063
			c0-15.015,3.669-28.223,10.998-39.618c7.333-11.396,17.535-20.272,30.607-26.633l17.756,30.74
			c-15.9,7.42-23.851,19.259-23.851,35.511c0,7.599,1.723,13.561,5.167,17.888c3.445,4.331,7.909,6.493,13.383,6.493
			c5.83,0,10.559-2.427,14.178-7.288c3.623-4.857,7.553-14.178,11.793-27.958c1.769-5.652,3.139-9.938,4.107-12.853
			c0.974-2.915,2.477-6.891,4.505-11.926c2.033-5.034,3.934-8.919,5.698-11.66c1.768-2.736,4.152-5.871,7.155-9.407
			c3.006-3.532,6.095-6.228,9.274-8.083c3.181-1.854,7.022-3.444,11.528-4.77c4.505-1.325,9.407-1.987,14.707-1.987
			c17.139,0,30.741,6.228,40.812,18.683C223.431,238.365,228.466,254.576,228.466,274.538z"/>
	</g>
	<g>
		<path style="opacity:0.29;fill:#020000;stroke:#CCFF00;stroke-width:5;stroke-miterlimit:10;" d="M283.233,651.904v74.201h43.991v-72.081h34.98v72.081h71.551v36.57H248.253V651.904H283.233z"/>
		<path style="opacity:0.29;fill:#020000;stroke:#CCFF00;stroke-width:5;stroke-miterlimit:10;" d="M433.756,523.377l-64.396,37.498v27.693h64.396v36.57H248.253v-74.201c0-17.134,6.008-31.709,18.021-43.726
			c12.016-12.012,26.5-18.021,43.461-18.021c11.486,0,22.128,3.271,31.933,9.806c9.806,6.534,17.18,15.192,22.124,25.966
			l69.965-41.071V523.377z M282.438,588.568h54.856v-37.631c0-6.89-2.692-12.807-8.083-17.755c-5.387-4.944-11.88-7.42-19.478-7.42
			c-7.595,0-14.046,2.476-19.346,7.42c-5.3,4.948-7.95,10.865-7.95,17.755V588.568z"/>
		<path style="opacity:0.29;fill:#020000;stroke:#CCFF00;stroke-width:5;stroke-miterlimit:10;" d="M398.775,425.856V347.68h34.98v114.747H248.253V349.005h34.98v76.852h39.485V355.63h34.451v70.227H398.775z
			"/>
		<path style="opacity:0.29;fill:#020000;stroke:#CCFF00;stroke-width:5;stroke-miterlimit:10;" d="M398.775,285.404v-78.177h34.98v114.747H248.253V208.553h34.98v76.852h39.485v-70.227h34.451v70.227
			H398.775z"/>
	</g>
	<g>
		<path style="opacity:0.29;fill:#020000;stroke:#CCFF00;stroke-width:5;stroke-miterlimit:10;" d="M457.253,713.913c0-25.44,8.923-46.683,26.766-63.733c17.847-17.048,39.842-25.573,65.986-25.573
			c26.148,0,48.144,8.525,65.985,25.573c17.847,17.051,26.766,38.293,26.766,63.733v73.671H457.253V713.913z M607.775,713.913
			c0-16.074-5.342-29.15-16.032-39.221c-10.688-10.07-24.601-15.105-41.738-15.105c-17.135,0-31.047,5.035-41.738,15.105
			c-10.688,10.07-16.033,23.146-16.033,39.221v37.101h115.542V713.913z"/>
		<path style="opacity:0.29;fill:#020000;stroke:#CCFF00;stroke-width:5;stroke-miterlimit:10;" d="M618.508,442.55c18.642,18.728,27.958,41.519,27.958,68.371c0,26.856-9.316,49.601-27.958,68.238
			c-18.637,18.642-41.473,27.958-68.503,27.958c-27.031,0-49.862-9.316-68.504-27.958c-18.638-18.638-27.958-41.382-27.958-68.238
			c0-26.853,9.32-49.644,27.958-68.371c18.642-18.725,41.473-28.091,68.504-28.091C577.035,414.459,599.871,423.825,618.508,442.55z
			 M593.598,553.586c11.396-11.481,17.093-25.705,17.093-42.665c0-16.961-5.697-31.18-17.093-42.666
			c-11.396-11.482-25.925-17.226-43.593-17.226c-17.665,0-32.24,5.743-43.727,17.226c-11.481,11.486-17.225,25.705-17.225,42.666
			c0,16.96,5.743,31.184,17.225,42.665c11.486,11.486,26.062,17.226,43.727,17.226C567.673,570.812,582.202,565.072,593.598,553.586
			z"/>
		<path style="opacity:0.29;fill:#020000;stroke:#CCFF00;stroke-width:5;stroke-miterlimit:10;" d="M457.253,207.228h185.503v36.305H522.444l86.06,52.314l0.149,4.265l-85.754,52.073h119.856v36.57H457.253
			v-37.63l87.592-53.191l-87.592-52.923V207.228z"/>
	</g>
	<g>
		<path style="opacity:0.29;fill:#020000;stroke:#CCFF00;stroke-width:5;stroke-miterlimit:10;" d="M142.648,2277.389c9.366-16.252,23.499-24.381,42.401-24.381c15.727,0,28.621,5.565,38.69,16.695
			c10.07,11.131,15.105,24.824,15.105,41.076v78.706H53.341v-73.141c0-15.9,4.903-29.283,14.708-40.148s22.306-16.298,37.498-16.298
			C120.917,2259.898,133.286,2265.729,142.648,2277.389z M87.527,2316.345v36.57h40.811v-36.57c0-5.652-1.942-10.377-5.83-14.178
			c-3.884-3.798-8.745-5.698-14.575-5.698s-10.688,1.855-14.575,5.565C89.473,2305.744,87.527,2310.515,87.527,2316.345z
			 M204.659,2310.779c0-6.182-2.075-11.304-6.228-15.37c-4.149-4.062-9.408-6.096-15.768-6.096c-6.182,0-11.35,2.033-15.502,6.096
			c-4.149,4.066-6.228,9.188-6.228,15.37v42.136h43.726V2310.779z"/>
		<path style="opacity:0.29;fill:#020000;stroke:#CCFF00;stroke-width:5;stroke-miterlimit:10;" d="M242.555,2161.315c0,20.671-5.83,37.631-17.49,50.881s-27.295,19.875-46.906,19.875H53.341v-36.305h121.902
			c9.718,0,17.403-2.783,23.055-8.348c5.656-5.565,8.48-14.266,8.48-26.104c0-11.834-2.824-20.538-8.48-26.103
			c-5.652-5.565-13.337-8.348-23.055-8.348H53.341v-36.571h124.817c19.61,0,35.246,6.626,46.906,19.876
			S242.555,2140.472,242.555,2161.315z"/>
		<path style="opacity:0.29;fill:#020000;stroke:#CCFF00;stroke-width:5;stroke-miterlimit:10;" d="M238.845,1919.098v41.605l-60.5,36.045l60.5,36.036v41.341l-95.199-56.707l-90.305,53.792v-41.341
			l55.54-33.167l-55.54-33.084v-41.341l90.197,53.734L238.845,1919.098z"/>
		<path style="opacity:0.29;fill:#020000;stroke:#CCFF00;stroke-width:5;stroke-miterlimit:10;" d="M297.322,2278.714v74.201h43.991v-72.081h34.98v72.081h71.551v36.57H262.341v-110.771H297.322z"/>
		<path style="opacity:0.29;fill:#020000;stroke:#CCFF00;stroke-width:5;stroke-miterlimit:10;" d="M447.845,2150.187l-64.396,37.498v27.693h64.396v36.57H262.341v-74.201
			c0-17.134,6.008-31.709,18.021-43.726c12.016-12.012,26.5-18.021,43.461-18.021c11.486,0,22.128,3.271,31.933,9.806
			s17.18,15.192,22.124,25.966l69.965-41.071V2150.187z M296.527,2215.378h54.856v-37.631c0-6.89-2.692-12.807-8.083-17.755
			c-5.387-4.944-11.879-7.42-19.478-7.42c-7.594,0-14.045,2.476-19.346,7.42c-5.3,4.948-7.95,10.865-7.95,17.755V2215.378z"/>
		<path style="opacity:0.29;fill:#020000;stroke:#CCFF00;stroke-width:5;stroke-miterlimit:10;" d="M412.864,2052.666v-78.177h34.98v114.747H262.341v-113.422h34.981v76.852h39.485v-70.227h34.451v70.227
			H412.864z"/>
		<path style="opacity:0.29;fill:#020000;stroke:#CCFF00;stroke-width:5;stroke-miterlimit:10;" d="M412.864,1912.214v-78.177h34.98v114.747H262.341v-113.422h34.981v76.852h39.485v-70.227h34.451v70.227
			H412.864z"/>
		<path style="opacity:0.29;fill:#020000;stroke:#CCFF00;stroke-width:5;stroke-miterlimit:10;" d="M471.342,2315.814c0-25.44,8.923-46.683,26.766-63.733c17.847-17.048,39.842-25.573,65.986-25.573
			c26.148,0,48.144,8.525,65.985,25.573c17.847,17.051,26.766,38.293,26.766,63.733v73.671H471.342V2315.814z M621.864,2315.814
			c0-16.074-5.342-29.15-16.032-39.221c-10.688-10.07-24.601-15.105-41.738-15.105c-17.135,0-31.047,5.035-41.738,15.105
			c-10.688,10.07-16.033,23.146-16.033,39.221v37.101h115.542V2315.814z"/>
		<path style="opacity:0.29;fill:#020000;stroke:#CCFF00;stroke-width:5;stroke-miterlimit:10;" d="M632.597,2044.451c18.642,18.728,27.958,41.519,27.958,68.371c0,26.856-9.316,49.601-27.958,68.238
			c-18.637,18.642-41.473,27.958-68.503,27.958c-27.031,0-49.862-9.316-68.504-27.958c-18.638-18.638-27.958-41.382-27.958-68.238
			c0-26.853,9.32-49.644,27.958-68.371c18.642-18.725,41.473-28.091,68.504-28.091
			C591.124,2016.36,613.96,2025.727,632.597,2044.451z M607.687,2155.487c11.396-11.481,17.093-25.705,17.093-42.665
			c0-16.961-5.697-31.18-17.093-42.666c-11.396-11.482-25.925-17.226-43.593-17.226c-17.665,0-32.24,5.743-43.727,17.226
			c-11.481,11.486-17.225,25.705-17.225,42.666c0,16.96,5.743,31.184,17.225,42.665c11.486,11.486,26.062,17.226,43.727,17.226
			C581.762,2172.713,596.291,2166.974,607.687,2155.487z"/>
		<path style="opacity:0.29;fill:#020000;stroke:#CCFF00;stroke-width:5;stroke-miterlimit:10;" d="M471.342,1809.129h185.503v36.305H536.533l86.06,52.314l0.149,4.265l-85.754,52.073h119.856v36.57H471.342
			v-37.63l87.592-53.191l-87.592-52.923V1809.129z"/>
	</g>
	<path style="fill:none;stroke:#CCFF00;stroke-width:5;stroke-miterlimit:10;" d="M1084.51,2421.222v-42.728h-25.332v41.507h-20.143v-41.507h-41.202v-21.059h106.819v63.787H1084.51z"/>
	<path style="fill:none;stroke:#CCFF00;stroke-width:5;stroke-miterlimit:10;" d="M761.833,1992.232l37.082-21.593v-15.947h-37.082v-21.059h106.819v42.728c0,9.867-3.46,18.26-10.377,25.179
		c-6.919,6.917-15.26,10.376-25.026,10.376c-6.614,0-12.741-1.883-18.388-5.646s-9.893-8.748-12.739-14.952l-40.289,23.65V1992.232z
		 M848.967,1954.692h-31.588v21.669c0,3.968,1.55,7.375,4.654,10.225c3.103,2.847,6.841,4.272,11.216,4.272
		c4.373,0,8.088-1.426,11.141-4.272c3.052-2.85,4.577-6.257,4.577-10.225V1954.692z"/>
	<path style="fill:none;stroke:#CCFF00;stroke-width:5;stroke-miterlimit:10;" d="M307.977,162.388v45.017h-20.144v-66.076h106.819v65.312H374.51v-44.254h-22.737v40.439h-19.838v-40.439
		H307.977z"/>
	<path style="fill:none;stroke:#CCFF00;stroke-width:5;stroke-miterlimit:10;" d="M686.977,545.265v45.017h-20.144v-66.076h106.819v65.312H753.51v-44.254h-22.737v40.439h-19.838v-40.439
		H686.977z"/>
	<path style="fill:none;stroke:#CCFF00;stroke-width:5;stroke-miterlimit:10;" d="M149.877,2358.984c-5.394,9.359-13.531,14.039-24.416,14.039c-9.056,0-16.48-3.205-22.279-9.614
		c-5.799-6.409-8.698-14.294-8.698-23.653v-45.322h106.819v42.117c0,9.156-2.823,16.862-8.469,23.119
		c-5.646,6.256-12.845,9.385-21.593,9.385C162.39,2369.056,155.268,2365.699,149.877,2358.984z M114.169,2339.757
		c0,3.56,1.194,6.509,3.586,8.851c2.389,2.339,5.417,3.51,9.079,3.51c3.561,0,6.536-1.171,8.928-3.51
		c2.389-2.342,3.586-5.291,3.586-8.851v-24.263h-25.179V2339.757z M181.617,2336.552v-21.059h-23.5v21.059
		c0,3.255,1.118,5.976,3.357,8.164c2.236,2.187,5.035,3.281,8.393,3.281s6.154-1.068,8.394-3.205
		C180.497,2342.656,181.617,2339.91,181.617,2336.552z"/>
	<path style="fill:none;stroke:#CCFF00;stroke-width:5;stroke-miterlimit:10;" d="M191.347,1716.824c0-11.903,3.357-21.669,10.072-29.299c6.714-7.63,15.718-11.445,27.01-11.445h71.874
		v20.906h-70.195c-5.597,0-10.021,1.602-13.276,4.807c-3.257,3.205-4.883,8.214-4.883,15.031c0,6.814,1.626,11.826,4.883,15.031
		c3.255,3.205,7.68,4.807,13.276,4.807h70.195v21.059h-71.874c-11.292,0-20.296-3.815-27.01-11.445
		C194.704,1738.646,191.347,1728.827,191.347,1716.824z"/>
	<path style="fill:none;stroke:#CCFF00;stroke-width:5;stroke-miterlimit:10;" d="M94.483,1924.302v-23.958l34.838-20.756l-34.838-20.751v-23.805l54.819,32.654l52-30.975v23.805
		l-31.981,19.099l31.981,19.051v23.806l-51.938-30.942L94.483,1924.302z"/>
	<path style="fill:none;stroke:#CCFF00;stroke-width:5;stroke-miterlimit:10;" d="M773.953,456.857c0,14.65-5.138,26.881-15.412,36.7c-10.277,9.816-22.942,14.726-37.997,14.726
		c-15.058,0-27.724-4.91-37.998-14.726c-10.276-9.819-15.412-22.05-15.412-36.7v-42.422h106.819V456.857z M687.277,456.857
		c0,9.256,3.075,16.786,9.231,22.585c6.154,5.799,14.166,8.698,24.035,8.698c9.866,0,17.878-2.899,24.034-8.698
		c6.153-5.799,9.232-13.329,9.232-22.585v-21.364h-66.533V456.857z"/>
	<path style="fill:none;stroke:#CCFF00;stroke-width:5;stroke-miterlimit:10;" d="M524.097,2152.119c-10.734-10.784-16.1-23.908-16.1-39.371c0-15.465,5.365-28.562,16.1-39.294
		c10.732-10.734,23.882-16.099,39.447-16.099c15.564,0,28.712,5.365,39.446,16.099c10.732,10.732,16.1,23.83,16.1,39.294
		c0,15.463-5.367,28.586-16.1,39.371c-10.734,10.782-23.882,16.176-39.446,16.176
		C547.979,2168.294,534.829,2162.901,524.097,2152.119z M538.441,2088.18c-6.562,6.612-9.843,14.802-9.843,24.568
		c0,9.767,3.28,17.954,9.843,24.568c6.562,6.612,14.928,9.919,25.103,9.919c10.171,0,18.564-3.307,25.179-9.919
		c6.611-6.614,9.919-14.802,9.919-24.568c0-9.766-3.308-17.957-9.919-24.568c-6.614-6.614-15.008-9.919-25.179-9.919
		C553.369,2078.261,545.003,2081.565,538.441,2088.18z"/>
	<path style="fill:none;stroke:#CCFF00;stroke-width:5;stroke-miterlimit:10;" d="M773.953,711.625H667.134V690.72h69.28l-49.557-30.124l-0.086-2.456l49.38-29.986h-69.018v-21.059h106.819
		v21.669l-50.438,30.63l50.438,30.474V711.625z"/>
	<g>
		<path style="opacity:0.29;fill:#020000;stroke:#CCFF00;stroke-width:5;stroke-miterlimit:10;" d="M983.855,1339.468c-9.367,16.252-23.499,24.381-42.401,24.381c-15.727,0-28.62-5.565-38.69-16.695
			c-10.07-11.131-15.105-24.824-15.105-41.076v-78.706h185.504v73.141c0,15.9-4.903,29.283-14.709,40.148
			c-9.805,10.865-22.306,16.298-37.498,16.298C1005.586,1356.958,993.217,1351.128,983.855,1339.468z M921.844,1306.078
			c0,6.182,2.074,11.304,6.228,15.37c4.149,4.062,9.407,6.096,15.769,6.096c6.182,0,11.35-2.033,15.502-6.096
			c4.148-4.066,6.228-9.188,6.228-15.37v-42.136h-43.726V1306.078z M1038.976,1300.512v-36.57h-40.811v36.57
			c0,5.652,1.942,10.377,5.83,14.178c3.884,3.798,8.745,5.698,14.575,5.698s10.688-1.855,14.575-5.565
			C1037.029,1311.113,1038.976,1306.342,1038.976,1300.512z"/>
		<path style="opacity:0.29;fill:#020000;stroke:#CCFF00;stroke-width:5;stroke-miterlimit:10;" d="M911.906,1543.784c-18.642-18.728-27.958-41.519-27.958-68.371c0-26.856,9.316-49.601,27.958-68.238
			c18.637-18.642,41.473-27.958,68.504-27.958c27.03,0,49.861,9.316,68.504,27.958c18.637,18.637,27.957,41.381,27.957,68.238
			c0,26.853-9.32,49.644-27.957,68.371c-18.643,18.725-41.474,28.091-68.504,28.091
			C953.379,1571.875,930.543,1562.509,911.906,1543.784z M936.816,1432.748c-11.395,11.481-17.093,25.705-17.093,42.665
			c0,16.961,5.698,31.18,17.093,42.666c11.396,11.482,25.925,17.226,43.594,17.226c17.664,0,32.239-5.743,43.726-17.226
			c11.481-11.486,17.226-25.705,17.226-42.666c0-16.96-5.744-31.184-17.226-42.665c-11.486-11.486-26.062-17.226-43.726-17.226
			C962.741,1415.522,948.212,1421.262,936.816,1432.748z"/>
		<path style="opacity:0.29;fill:#020000;stroke:#CCFF00;stroke-width:5;stroke-miterlimit:10;" d="M911.906,1753.666c-18.642-18.728-27.958-41.519-27.958-68.371c0-26.856,9.316-49.601,27.958-68.238
			c18.637-18.642,41.473-27.958,68.504-27.958c27.03,0,49.861,9.316,68.504,27.958c18.637,18.638,27.957,41.382,27.957,68.238
			c0,26.853-9.32,49.644-27.957,68.371c-18.643,18.725-41.474,28.091-68.504,28.091
			C953.379,1781.757,930.543,1772.391,911.906,1753.666z M936.816,1642.63c-11.395,11.481-17.093,25.705-17.093,42.665
			c0,16.961,5.698,31.18,17.093,42.666c11.396,11.482,25.925,17.226,43.594,17.226c17.664,0,32.239-5.743,43.726-17.226
			c11.481-11.486,17.226-25.705,17.226-42.666c0-16.96-5.744-31.184-17.226-42.665c-11.486-11.486-26.062-17.226-43.726-17.226
			C962.741,1625.404,948.212,1631.144,936.816,1642.63z"/>
		<path style="opacity:0.29;fill:#020000;stroke:#CCFF00;stroke-width:5;stroke-miterlimit:10;" d="M887.658,1952.418v-42.136l86.893-66.251h-86.893v-36.57h185.504v36.57H991.42l81.742,63.602v42.136
			l-90.098-68.633L887.658,1952.418z"/>
		<path style="opacity:0.29;fill:#020000;stroke:#CCFF00;stroke-width:5;stroke-miterlimit:10;" d="M674.948,1290.708c0-18.377,4.107-33.834,12.323-46.376c8.215-12.546,19.387-21.378,33.522-26.5
			l18.285,31.271c-18.906,7.241-28.355,21.465-28.355,42.665c0,10.244,1.854,17.756,5.565,22.525
			c3.71,4.771,8.389,7.155,14.045,7.155c6.534,0,11.615-2.915,15.238-8.745c3.619-5.83,7.553-16.256,11.793-31.271
			c2.471-8.306,4.943-15.329,7.42-21.067c2.472-5.743,5.784-11.486,9.938-17.226c4.148-5.743,9.407-10.116,15.768-13.118
			c6.359-3.006,13.78-4.505,22.26-4.505c16.783,0,30.166,5.963,40.148,17.888c9.979,11.926,14.973,26.277,14.973,43.063
			c0,15.015-3.668,28.223-10.998,39.618c-7.332,11.396-17.535,20.272-30.607,26.633l-17.756-30.74
			c15.9-7.42,23.852-19.259,23.852-35.511c0-7.599-1.723-13.561-5.168-17.888c-3.445-4.331-7.908-6.493-13.383-6.493
			c-5.83,0-10.559,2.427-14.178,7.288c-3.623,4.857-7.553,14.178-11.793,27.958c-1.768,5.652-3.139,9.938-4.107,12.853
			c-0.973,2.915-2.477,6.891-4.505,11.926c-2.033,5.034-3.934,8.919-5.698,11.66c-1.768,2.736-4.152,5.871-7.154,9.407
			c-3.006,3.532-6.096,6.228-9.275,8.083c-3.18,1.854-7.022,3.444-11.527,4.77c-4.506,1.325-9.408,1.987-14.708,1.987
			c-17.139,0-30.741-6.228-40.812-18.683C679.983,1326.88,674.948,1310.669,674.948,1290.708z"/>
		<path style="opacity:0.29;fill:#020000;stroke:#CCFF00;stroke-width:5;stroke-miterlimit:10;" d="M702.906,1536.632c-18.642-18.728-27.958-41.519-27.958-68.371c0-26.856,9.316-49.601,27.958-68.238
			c18.637-18.642,41.473-27.958,68.504-27.958c27.03,0,49.861,9.316,68.504,27.958c18.637,18.637,27.957,41.381,27.957,68.238
			c0,26.853-9.32,49.644-27.957,68.371c-18.643,18.725-41.474,28.091-68.504,28.091
			C744.379,1564.723,721.543,1555.356,702.906,1536.632z M727.816,1425.596c-11.395,11.481-17.093,25.705-17.093,42.665
			c0,16.961,5.698,31.18,17.093,42.666c11.396,11.482,25.925,17.226,43.594,17.226c17.664,0,32.239-5.743,43.726-17.226
			c11.481-11.486,17.226-25.705,17.226-42.666c0-16.96-5.744-31.184-17.226-42.665c-11.486-11.486-26.062-17.225-43.726-17.225
			C753.741,1408.371,739.212,1414.109,727.816,1425.596z"/>
		<path style="opacity:0.29;fill:#020000;stroke:#CCFF00;stroke-width:5;stroke-miterlimit:10;" d="M864.162,1771.953H678.658v-36.305h120.312l-86.061-52.314l-0.149-4.265l85.754-52.073H678.658v-36.57
			h185.504v37.63l-87.593,53.191l87.593,52.923V1771.953z"/>
		<path style="opacity:0.29;fill:#020000;stroke:#CCFF00;stroke-width:5;stroke-miterlimit:10;" d="M713.639,1842.972v78.177h-34.98v-114.747h185.504v113.422h-34.981v-76.852h-39.485v70.227h-34.451v-70.227
			H713.639z"/>
		<path style="opacity:0.29;fill:#020000;stroke:#CCFF00;stroke-width:5;stroke-miterlimit:10;" d="M620.181,1338.143v-74.201H576.19v72.081h-34.98v-72.081h-71.551v-36.57h185.504v110.771H620.181z"/>
		<path style="opacity:0.29;fill:#020000;stroke:#CCFF00;stroke-width:5;stroke-miterlimit:10;" d="M469.658,1466.67l64.396-37.498v-27.693h-64.396v-36.57h185.504v74.201
			c0,17.134-6.009,31.709-18.021,43.726c-12.016,12.012-26.5,18.021-43.461,18.021c-11.486,0-22.127-3.271-31.933-9.806
			s-17.18-15.192-22.124-25.966l-69.965,41.071V1466.67z M620.976,1401.479H566.12v37.63c0,6.89,2.692,12.807,8.083,17.755
			c5.387,4.944,11.879,7.42,19.477,7.42c7.595,0,14.046-2.476,19.346-7.42c5.301-4.948,7.95-10.865,7.95-17.755V1401.479z"/>
		<path style="opacity:0.29;fill:#020000;stroke:#CCFF00;stroke-width:5;stroke-miterlimit:10;" d="M504.639,1564.19v78.177h-34.98V1527.62h185.504v113.422h-34.981v-76.852h-39.485v70.227h-34.451v-70.227
			H504.639z"/>
		<path style="opacity:0.29;fill:#020000;stroke:#CCFF00;stroke-width:5;stroke-miterlimit:10;" d="M504.639,1704.643v78.177h-34.98v-114.747h185.504v113.422h-34.981v-76.852h-39.485v70.227h-34.451v-70.227
			H504.639z"/>
		<path style="opacity:0.29;fill:#020000;stroke:#CCFF00;stroke-width:5;stroke-miterlimit:10;" d="M446.162,1301.042c0,25.44-8.923,46.683-26.766,63.733c-17.847,17.048-39.842,25.573-65.986,25.573
			c-26.148,0-48.144-8.525-65.986-25.573c-17.847-17.051-26.766-38.293-26.766-63.733v-73.671h185.503V1301.042z M295.639,1301.042
			c0,16.074,5.342,29.15,16.033,39.221c10.688,10.07,24.6,15.105,41.738,15.105c17.134,0,31.047-5.035,41.738-15.105
			c10.687-10.07,16.033-23.146,16.033-39.221v-37.101H295.639V1301.042z"/>
		<path style="opacity:0.29;fill:#020000;stroke:#CCFF00;stroke-width:5;stroke-miterlimit:10;" d="M284.906,1572.405c-18.642-18.728-27.958-41.519-27.958-68.371c0-26.856,9.316-49.601,27.958-68.238
			c18.637-18.642,41.473-27.958,68.503-27.958c27.031,0,49.862,9.316,68.504,27.958c18.637,18.638,27.958,41.382,27.958,68.238
			c0,26.853-9.321,49.644-27.958,68.371c-18.642,18.725-41.473,28.091-68.504,28.091
			C326.379,1600.496,303.543,1591.13,284.906,1572.405z M309.816,1461.369c-11.396,11.481-17.093,25.705-17.093,42.665
			c0,16.961,5.697,31.18,17.093,42.666c11.396,11.482,25.925,17.226,43.593,17.226c17.665,0,32.24-5.743,43.726-17.226
			c11.482-11.486,17.225-25.705,17.225-42.666c0-16.96-5.743-31.184-17.225-42.665c-11.486-11.486-26.062-17.226-43.726-17.226
			C335.741,1444.144,321.212,1449.883,309.816,1461.369z"/>
		<path style="opacity:0.29;fill:#020000;stroke:#CCFF00;stroke-width:5;stroke-miterlimit:10;" d="M446.162,1807.728H260.658v-36.305H380.97l-86.06-52.314l-0.149-4.265l85.754-52.073H260.658v-36.57
			h185.503v37.63l-87.592,53.191l87.592,52.923V1807.728z"/>
	</g>
</g>
<g id="Layer_1_copy">
	
		<rect x="118.992" y="722.745" transform="matrix(0.9987 0.0503 -0.0503 0.9987 59.9548 -27.3983)" style="fill:#CCFF00;stroke:#000000;stroke-width:6.668;stroke-miterlimit:10;" width="911.676" height="911.676"/>
	<g>
		<g>
			<path style="fill:none;stroke:#000000;stroke-width:6.668;stroke-miterlimit:10;" d="M263.364,908.668c13.911,7.135,21.254,18.569,22.024,34.305c0.641,13.092-3.467,24.053-12.322,32.89
				c-8.856,8.837-20.05,13.587-33.58,14.249l-65.523,3.207l-7.559-154.431l60.89-2.981c13.237-0.648,24.578,2.888,34.022,10.608
				c9.445,7.72,14.477,17.906,15.096,30.553C277.039,889.865,272.69,900.399,263.364,908.668z M228.688,864.368l-30.445,1.49
				l1.663,33.975l30.445-1.49c4.705-0.23,8.559-2.039,11.565-5.431c3.003-3.388,4.387-7.512,4.149-12.366s-1.98-8.822-5.227-11.907
				C237.592,865.556,233.541,864.13,228.688,864.368z M238.094,961.653c5.147-0.252,9.326-2.188,12.542-5.811
				c3.213-3.62,4.691-8.08,4.432-13.375c-0.252-5.146-2.155-9.366-5.706-12.657c-3.554-3.288-7.903-4.81-13.049-4.558l-35.078,1.717
				l1.782,36.401L238.094,961.653z"/>
			<path style="fill:none;stroke:#000000;stroke-width:6.668;stroke-miterlimit:10;" d="M436.389,960.239c-14.83,16.282-33.424,24.967-55.779,26.061c-22.357,1.094-41.671-5.735-57.947-20.494
				c-16.278-14.756-24.965-33.387-26.066-55.89c-1.102-22.503,5.724-41.89,20.483-58.169c14.757-16.275,33.312-24.961,55.669-26.056
				c22.355-1.094,41.709,5.737,58.058,20.489c16.348,14.756,25.076,33.382,26.178,55.885
				C458.085,924.568,451.218,943.961,436.389,960.239z M342.938,944.026c10.022,9.018,22.096,13.182,36.214,12.491
				c14.12-0.691,25.725-6.014,34.823-15.968c9.095-9.955,13.285-22.284,12.565-36.993c-0.72-14.706-6.096-26.605-16.123-35.7
				c-10.03-9.091-22.101-13.292-36.221-12.601c-14.118,0.691-25.726,6.052-34.816,16.078c-9.094,10.03-13.279,22.398-12.559,37.104
				C327.54,923.146,332.911,935.008,342.938,944.026z"/>
			<path style="fill:none;stroke:#000000;stroke-width:6.668;stroke-miterlimit:10;" d="M611.115,951.687c-14.831,16.282-33.425,24.967-55.779,26.061c-22.358,1.094-41.672-5.735-57.947-20.494
				c-16.279-14.756-24.965-33.387-26.066-55.89c-1.102-22.503,5.724-41.89,20.483-58.169c14.756-16.275,33.311-24.961,55.669-26.056
				c22.355-1.094,41.708,5.737,58.058,20.489c16.348,14.756,25.076,33.382,26.177,55.885
				C632.811,916.016,625.944,935.408,611.115,951.687z M517.663,935.474c10.023,9.018,22.096,13.182,36.215,12.491
				c14.12-0.691,25.725-6.014,34.823-15.968c9.095-9.955,13.284-22.284,12.564-36.993c-0.72-14.706-6.095-26.605-16.122-35.7
				c-10.03-9.091-22.101-13.292-36.221-12.601c-14.119,0.691-25.726,6.052-34.817,16.078c-9.094,10.03-13.278,22.398-12.558,37.104
				C502.266,914.593,507.636,926.455,517.663,935.474z"/>
			<path style="fill:none;stroke:#000000;stroke-width:6.668;stroke-miterlimit:10;" d="M777.564,963.774l-35.078,1.717l-58.695-69.638l3.541,72.338l-30.445,1.49l-7.559-154.431l30.445-1.49
				l3.331,68.05l49.617-70.642l35.078-1.717l-53.465,77.803L777.564,963.774z"/>
			<path style="fill:none;stroke:#000000;stroke-width:6.668;stroke-miterlimit:10;" d="M821.174,806.617l-13.545,62.141l-23.164,1.134l5.822-61.763L821.174,806.617z"/>
			<path style="fill:none;stroke:#000000;stroke-width:6.668;stroke-miterlimit:10;" d="M899.936,960.88c-15.299,0.749-28.334-2.041-39.11-8.369c-10.779-6.328-18.587-15.268-23.427-26.828
				l25.288-16.497c6.799,15.444,19.025,22.731,36.674,21.867c8.528-0.417,14.706-2.268,18.526-5.551
				c3.82-3.283,5.615-7.275,5.384-11.984c-0.266-5.44-2.9-9.55-7.901-12.329c-5.001-2.775-13.841-5.625-26.513-8.543
				c-7.015-1.719-12.963-3.491-17.841-5.319c-4.882-1.824-9.798-4.348-14.745-7.571c-4.95-3.22-8.805-7.42-11.563-12.592
				c-2.762-5.172-4.312-11.288-4.657-18.348c-0.684-13.971,3.735-25.355,13.255-34.152c9.522-8.793,21.266-13.536,35.24-14.22
				c12.5-0.612,23.645,1.904,33.43,7.541c9.786,5.64,17.591,13.772,23.419,24.396l-24.868,16.034
				c-6.825-12.935-17.005-19.071-30.535-18.408c-6.326,0.31-11.219,1.987-14.681,5.031c-3.465,3.045-5.083,6.849-4.86,11.406
				c0.238,4.854,2.451,8.691,6.645,11.506c4.191,2.818,12.111,5.71,23.756,8.678c4.778,1.242,8.401,2.208,10.867,2.896
				c2.466,0.691,5.837,1.781,10.112,3.264c4.274,1.487,7.585,2.911,9.939,4.268c2.35,1.36,5.057,3.218,8.123,5.573
				c3.063,2.358,5.433,4.82,7.107,7.392c1.673,2.572,3.154,5.706,4.44,9.403c1.287,3.696,2.038,7.751,2.254,12.163
				c0.698,14.268-3.932,25.845-13.89,34.736C929.845,955.214,916.554,960.066,899.936,960.88z"/>
		</g>
		<g>
			<path style="fill:none;stroke:#000000;stroke-width:6.668;stroke-miterlimit:10;" d="M333.741,1062.605l-104.407,5.111l3.03,61.899l101.424-4.965l2.409,49.22l-101.424,4.965l4.928,100.679
				l-51.457,2.519l-12.777-261.019l155.865-7.63L333.741,1062.605z"/>
			<path style="fill:none;stroke:#000000;stroke-width:6.668;stroke-miterlimit:10;" d="M524.957,1265.551l-57.198-88.028l-38.967,1.907l4.435,90.611l-51.457,2.519l-12.777-261.019
				l104.407-5.111c24.109-1.18,45.031,6.27,62.767,22.345c17.729,16.08,27.182,36.047,28.35,59.912
				c0.791,16.162-3.079,31.361-11.598,45.608c-8.519,14.247-20.194,25.22-35.012,32.918l62.61,95.618L524.957,1265.551z
				 M422.805,1057.125l3.778,77.187l52.95-2.592c9.694-0.474,17.835-4.67,24.426-12.596c6.586-7.92,9.622-17.226,9.099-27.918
				c-0.523-10.686-4.451-19.593-11.773-26.71c-7.328-7.116-15.836-10.438-25.53-9.963L422.805,1057.125z"/>
			<path style="fill:none;stroke:#000000;stroke-width:6.668;stroke-miterlimit:10;" d="M659.767,1209.613l110.001-5.385l2.409,49.22l-161.459,7.903l-12.777-261.019l159.594-7.812l2.409,49.221
				l-108.137,5.293l2.72,55.559l98.815-4.837l2.373,48.475l-98.815,4.837L659.767,1209.613z"/>
			<path style="fill:none;stroke:#000000;stroke-width:6.668;stroke-miterlimit:10;" d="M857.395,1199.94l110.001-5.384l2.409,49.22l-161.459,7.903L795.57,990.66l159.594-7.812l2.409,49.221
				l-108.136,5.293l2.72,55.559l98.815-4.837l2.373,48.475l-98.815,4.837L857.395,1199.94z"/>
		</g>
		<g>
			<path style="fill:none;stroke:#000000;stroke-width:6.668;stroke-miterlimit:10;" d="M288.678,1302.14c34.26-1.677,63.455,8.94,87.594,31.844c24.135,22.91,37.066,51.969,38.789,87.177
				c1.724,35.214-8.307,65.397-30.09,90.548c-21.786,25.158-49.804,38.569-84.065,40.246l-99.212,4.856l-12.228-249.816
				L288.678,1302.14z M298.6,1504.848c21.647-1.06,38.904-9.115,51.761-24.177c12.857-15.056,18.721-34.124,17.591-57.204
				c-1.129-23.075-8.827-41.479-23.094-55.213c-14.266-13.728-32.228-20.065-53.875-19.006l-49.963,2.446l7.617,155.6
				L298.6,1504.848z"/>
			<path style="fill:none;stroke:#000000;stroke-width:6.668;stroke-miterlimit:10;" d="M664.751,1501.413c-23.991,26.339-54.07,40.388-90.232,42.158c-36.167,1.77-67.411-9.277-93.739-33.153
				c-26.333-23.869-40.385-54.009-42.167-90.41c-1.782-36.402,9.259-67.763,33.135-94.097
				c23.871-26.327,53.886-40.379,90.053-42.149c36.162-1.77,67.469,9.28,93.918,33.144c26.445,23.87,40.564,54,42.345,90.402
				C699.847,1443.71,688.739,1475.081,664.751,1501.413z M513.577,1475.186c16.213,14.589,35.744,21.324,58.583,20.206
				c22.841-1.118,41.614-9.728,56.331-25.831c14.712-16.103,21.489-36.048,20.324-59.842c-1.164-23.789-9.86-43.038-26.08-57.75
				c-16.225-14.705-35.752-21.502-58.593-20.384c-22.84,1.118-41.616,9.79-56.321,26.009c-14.711,16.226-21.48,36.232-20.315,60.021
				C488.671,1441.409,497.357,1460.597,513.577,1475.186z"/>
			<path style="fill:none;stroke:#000000;stroke-width:6.668;stroke-miterlimit:10;" d="M971.028,1268.739l12.228,249.816l-48.891,2.393l-7.931-162.023l-64.778,119.345l-5.733,0.482
				l-75.78-112.052l7.901,161.41l-49.249,2.411l-12.228-249.816l50.676-2.481l77.407,114.453l65.497-121.448L971.028,1268.739z"/>
		</g>
	</g>
	<rect x="118.992" y="722.745" style="fill:none;stroke:#000000;stroke-width:6.668;stroke-miterlimit:10;" width="911.676" height="911.676"/>
	<g>
		<g>
			<path style="fill:none;stroke:#000000;stroke-width:6.668;stroke-miterlimit:10;" d="M277.322,893.357c13.535,7.825,20.294,19.614,20.273,35.369c-0.018,13.108-4.671,23.849-13.959,32.229
				c-9.289,8.381-20.707,12.562-34.253,12.544l-65.601-0.09l0.211-154.616l60.963,0.083c13.252,0.018,24.401,4.12,33.446,12.305
				c9.045,8.185,13.559,18.611,13.542,31.273C291.925,875.264,287.051,885.567,277.322,893.357z M244.916,847.37l-30.482-0.042
				l-0.046,34.015l30.482,0.042c4.711,0.006,8.651-1.607,11.824-4.843c3.169-3.233,4.759-7.283,4.765-12.142
				c0.007-4.859-1.534-8.91-4.622-12.155C253.749,849.004,249.775,847.376,244.916,847.37z M249.421,945.005
				c5.153,0.007,9.424-1.716,12.818-5.173c3.39-3.453,5.091-7.834,5.098-13.136c0.007-5.152-1.682-9.462-5.063-12.928
				c-3.384-3.463-7.651-5.201-12.804-5.208l-35.12-0.048l-0.05,36.445L249.421,945.005z"/>
			<path style="fill:none;stroke:#000000;stroke-width:6.668;stroke-miterlimit:10;" d="M447.537,953.558c-15.63,15.516-34.636,23.256-57.019,23.225c-22.384-0.031-41.33-7.822-56.844-23.38
				c-15.516-15.555-23.255-34.599-23.224-57.129c0.031-22.53,7.822-41.549,23.38-57.066c15.556-15.513,34.524-23.256,56.908-23.225
				c22.382,0.031,41.368,7.825,56.955,23.381c15.586,15.559,23.367,34.6,23.336,57.13
				C470.998,919.022,463.165,938.045,447.537,953.558z M355.018,932.669c9.556,9.511,21.406,14.276,35.541,14.295
				c14.137,0.019,25.995-4.714,35.581-14.198c9.583-9.485,14.388-21.589,14.408-36.315c0.02-14.723-4.751-26.878-14.308-36.465
				c-9.561-9.583-21.405-14.386-35.542-14.406c-14.135-0.019-25.998,4.751-35.58,14.308c-9.587,9.561-14.388,21.703-14.408,36.426
				C340.689,911.041,345.457,923.158,355.018,932.669z"/>
			<path style="fill:none;stroke:#000000;stroke-width:6.668;stroke-miterlimit:10;" d="M622.472,953.797c-15.63,15.516-34.637,23.256-57.019,23.225c-22.385-0.031-41.331-7.822-56.844-23.38
				c-15.516-15.555-23.256-34.599-23.225-57.129c0.031-22.53,7.822-41.549,23.381-57.066c15.556-15.513,34.523-23.256,56.908-23.225
				c22.381,0.031,41.367,7.825,56.955,23.381c15.586,15.559,23.366,34.6,23.336,57.129
				C645.932,919.261,638.1,938.284,622.472,953.797z M529.952,932.908c9.557,9.511,21.406,14.276,35.542,14.295
				c14.137,0.019,25.995-4.714,35.581-14.198c9.583-9.485,14.387-21.589,14.407-36.315c0.02-14.723-4.75-26.878-14.308-36.465
				c-9.561-9.583-21.405-14.386-35.542-14.406c-14.136-0.019-25.998,4.751-35.581,14.308c-9.587,9.561-14.387,21.703-14.407,36.426
				C515.624,911.28,520.391,923.397,529.952,932.908z"/>
			<path style="fill:none;stroke:#000000;stroke-width:6.668;stroke-miterlimit:10;" d="M788.103,974.233l-35.12-0.048l-55.121-72.5l-0.099,72.424l-30.481-0.042l0.211-154.616l30.481,0.042
				l-0.093,68.131l53.104-68.059l35.12,0.048l-57.307,75.018L788.103,974.233z"/>
			<path style="fill:none;stroke:#000000;stroke-width:6.668;stroke-miterlimit:10;" d="M839.556,819.467l-16.65,61.382l-23.192-0.032l8.919-61.393L839.556,819.467z"/>
			<path style="fill:none;stroke:#000000;stroke-width:6.668;stroke-miterlimit:10;" d="M910.466,977.493c-15.317-0.021-28.196-3.462-38.64-10.324c-10.448-6.861-17.796-16.183-22.049-27.971
				l26.085-15.205c6.014,15.766,17.859,23.659,35.529,23.683c8.538,0.012,14.802-1.526,18.781-4.613
				c3.98-3.087,5.973-6.984,5.98-11.698c0.007-5.446-2.416-9.684-7.272-12.711c-4.855-3.023-13.541-6.314-26.05-9.865
				c-6.92-2.07-12.771-4.138-17.551-6.208c-4.784-2.067-9.567-4.835-14.346-8.302c-4.782-3.465-8.421-7.853-10.916-13.157
				c-2.498-5.304-3.739-11.491-3.729-18.559c0.019-13.988,5.004-25.136,14.955-33.443c9.951-8.304,21.919-12.45,35.91-12.431
				c12.515,0.017,23.519,3.09,33.009,9.212c9.49,6.125,16.877,14.639,22.163,25.542l-25.642,14.764
				c-6.166-13.261-16.025-19.901-29.571-19.92c-6.333-0.009-11.305,1.42-14.915,4.287c-3.614,2.867-5.421,6.584-5.427,11.147
				c-0.007,4.859,2.011,8.803,6.058,11.825c4.044,3.025,11.808,6.311,23.289,9.861c4.709,1.48,8.279,2.627,10.708,3.438
				c2.429,0.814,5.74,2.072,9.935,3.768c4.194,1.7,7.429,3.289,9.712,4.762c2.279,1.477,4.889,3.468,7.833,5.975
				c2.941,2.509,5.184,5.087,6.727,7.74c1.542,2.653,2.863,5.857,3.962,9.614c1.099,3.756,1.646,7.844,1.64,12.261
				c-0.02,14.285-5.226,25.615-15.618,33.995C940.621,973.337,927.104,977.515,910.466,977.493z"/>
		</g>
		<g>
			<path style="fill:none;stroke:#000000;stroke-width:6.668;stroke-miterlimit:10;" d="M339.874,1050.636l-104.532-0.143l-0.085,61.973l101.545,0.139l-0.067,49.279l-101.545-0.139
				l-0.138,100.799l-51.519-0.07l0.357-261.331l156.051,0.213L339.874,1050.636z"/>
			<path style="fill:none;stroke:#000000;stroke-width:6.668;stroke-miterlimit:10;" d="M520.65,1262.934l-52.702-90.791l-39.013-0.053l-0.124,90.719l-51.519-0.07l0.357-261.331l104.532,0.143
				c24.138,0.033,44.659,8.525,61.564,25.471c16.899,16.951,25.336,37.368,25.303,61.261c-0.022,16.182-4.651,31.167-13.875,44.967
				c-9.224,13.801-21.436,24.173-36.622,31.117l57.725,98.644L520.65,1262.934z M429.101,1049.638l-0.105,77.279l53.013,0.072
				c9.706,0.013,18.047-3.768,25.028-11.353c6.976-7.579,10.476-16.721,10.49-27.425c0.015-10.698-3.461-19.791-10.416-27.268
				c-6.961-7.476-15.291-11.22-24.997-11.233L429.101,1049.638z"/>
			<path style="fill:none;stroke:#000000;stroke-width:6.668;stroke-miterlimit:10;" d="M658.101,1213.843l110.133,0.15l-0.067,49.279l-161.652-0.221l0.357-261.331l159.785,0.218l-0.067,49.28
				l-108.266-0.148l-0.076,55.626l98.933,0.135l-0.066,48.533l-98.933-0.135L658.101,1213.843z"/>
			<path style="fill:none;stroke:#000000;stroke-width:6.668;stroke-miterlimit:10;" d="M855.965,1214.113l110.133,0.15l-0.067,49.279l-161.652-0.221l0.357-261.331l159.785,0.218l-0.067,49.28
				l-108.266-0.148l-0.076,55.626l98.933,0.135l-0.066,48.533l-98.933-0.135L855.965,1214.113z"/>
		</g>
		<g>
			<path style="fill:none;stroke:#000000;stroke-width:6.668;stroke-miterlimit:10;" d="M282.83,1287.604c34.301,0.047,62.926,12.117,85.883,36.205c22.953,24.094,34.407,53.766,34.359,89.017
				c-0.048,35.256-11.583,64.897-34.602,88.922c-23.022,24.031-51.68,36.018-85.981,35.971l-99.331-0.135l0.341-250.115
				L282.83,1287.604z M282.553,1490.554c21.673,0.03,39.313-7.149,52.911-21.545c13.598-14.391,20.412-33.14,20.444-56.247
				c0.032-23.102-6.732-41.87-20.29-56.304c-13.558-14.428-31.179-21.66-52.852-21.689l-50.023-0.068l-0.213,155.786
				L282.553,1490.554z"/>
			<path style="fill:none;stroke:#000000;stroke-width:6.668;stroke-miterlimit:10;" d="M648.414,1505.524c-25.285,25.1-56.031,37.62-92.236,37.57c-36.211-0.049-66.86-12.653-91.954-37.822
				c-25.1-25.162-37.62-55.97-37.57-92.415c0.05-36.446,12.653-67.212,37.822-92.313c25.164-25.094,55.847-37.62,92.057-37.57
				c36.205,0.049,66.917,12.659,92.134,37.822c25.212,25.169,37.799,55.97,37.749,92.416
				C686.365,1449.657,673.695,1480.431,648.414,1505.524z M498.749,1471.733c15.46,15.386,34.627,23.094,57.494,23.125
				c22.869,0.031,42.05-7.624,57.558-22.968c15.503-15.344,23.273-34.923,23.306-58.745c0.033-23.817-7.684-43.479-23.145-58.988
				c-15.466-15.502-34.627-23.272-57.495-23.303c-22.867-0.031-42.056,7.686-57.557,23.146
				c-15.508,15.466-23.273,35.107-23.306,58.924C475.572,1436.747,483.283,1456.348,498.749,1471.733z"/>
			<path style="fill:none;stroke:#000000;stroke-width:6.668;stroke-miterlimit:10;" d="M965.996,1288.536l-0.341,250.115l-48.95-0.067l0.221-162.217l-70.694,115.939l-5.75,0.194
				l-70.053-115.718l-0.221,161.603l-49.308-0.067l0.341-250.115l50.737,0.069l71.557,118.199l71.517-118.004L965.996,1288.536z"/>
		</g>
	</g>
</g>
</svg>
