<?xml version="1.0" encoding="UTF-8"?>
<svg xmlns="http://www.w3.org/2000/svg" viewBox="0 0 198 198" width="198" height="198" shape-rendering="crispEdges">
  <rect width="100%" height="100%" fill="#fff"/>
  <g fill="#000"><rect x="24" y="24" width="6" height="6"/><rect x="30" y="24" width="6" height="6"/><rect x="36" y="24" width="6" height="6"/><rect x="42" y="24" width="6" height="6"/><rect x="48" y="24" width="6" height="6"/><rect x="54" y="24" width="6" height="6"/><rect x="60" y="24" width="6" height="6"/><rect x="84" y="24" width="6" height="6"/><rect x="90" y="24" width="6" height="6"/><rect x="96" y="24" width="6" height="6"/><rect x="102" y="24" width="6" height="6"/><rect x="108" y="24" width="6" height="6"/><rect x="132" y="24" width="6" height="6"/><rect x="138" y="24" width="6" height="6"/><rect x="144" y="24" width="6" height="6"/><rect x="150" y="24" width="6" height="6"/><rect x="156" y="24" width="6" height="6"/><rect x="162" y="24" width="6" height="6"/><rect x="168" y="24" width="6" height="6"/><rect x="24" y="30" width="6" height="6"/><rect x="60" y="30" width="6" height="6"/><rect x="78" y="30" width="6" height="6"/><rect x="84" y="30" width="6" height="6"/><rect x="102" y="30" width="6" height="6"/><rect x="108" y="30" width="6" height="6"/><rect x="132" y="30" width="6" height="6"/><rect x="168" y="30" width="6" height="6"/><rect x="24" y="36" width="6" height="6"/><rect x="36" y="36" width="6" height="6"/><rect x="42" y="36" width="6" height="6"/><rect x="48" y="36" width="6" height="6"/><rect x="60" y="36" width="6" height="6"/><rect x="90" y="36" width="6" height="6"/><rect x="108" y="36" width="6" height="6"/><rect x="120" y="36" width="6" height="6"/><rect x="132" y="36" width="6" height="6"/><rect x="144" y="36" width="6" height="6"/><rect x="150" y="36" width="6" height="6"/><rect x="156" y="36" width="6" height="6"/><rect x="168" y="36" width="6" height="6"/><rect x="24" y="42" width="6" height="6"/><rect x="36" y="42" width="6" height="6"/><rect x="42" y="42" width="6" height="6"/><rect x="48" y="42" width="6" height="6"/><rect x="60" y="42" width="6" height="6"/><rect x="72" y="42" width="6" height="6"/><rect x="90" y="42" width="6" height="6"/><rect x="96" y="42" width="6" height="6"/><rect x="102" y="42" width="6" height="6"/><rect x="114" y="42" width="6" height="6"/><rect x="120" y="42" width="6" height="6"/><rect x="132" y="42" width="6" height="6"/><rect x="144" y="42" width="6" height="6"/><rect x="150" y="42" width="6" height="6"/><rect x="156" y="42" width="6" height="6"/><rect x="168" y="42" width="6" height="6"/><rect x="24" y="48" width="6" height="6"/><rect x="36" y="48" width="6" height="6"/><rect x="42" y="48" width="6" height="6"/><rect x="48" y="48" width="6" height="6"/><rect x="60" y="48" width="6" height="6"/><rect x="72" y="48" width="6" height="6"/><rect x="78" y="48" width="6" height="6"/><rect x="90" y="48" width="6" height="6"/><rect x="96" y="48" width="6" height="6"/><rect x="102" y="48" width="6" height="6"/><rect x="120" y="48" width="6" height="6"/><rect x="132" y="48" width="6" height="6"/><rect x="144" y="48" width="6" height="6"/><rect x="150" y="48" width="6" height="6"/><rect x="156" y="48" width="6" height="6"/><rect x="168" y="48" width="6" height="6"/><rect x="24" y="54" width="6" height="6"/><rect x="60" y="54" width="6" height="6"/><rect x="108" y="54" width="6" height="6"/><rect x="120" y="54" width="6" height="6"/><rect x="132" y="54" width="6" height="6"/><rect x="168" y="54" width="6" height="6"/><rect x="24" y="60" width="6" height="6"/><rect x="30" y="60" width="6" height="6"/><rect x="36" y="60" width="6" height="6"/><rect x="42" y="60" width="6" height="6"/><rect x="48" y="60" width="6" height="6"/><rect x="54" y="60" width="6" height="6"/><rect x="60" y="60" width="6" height="6"/><rect x="72" y="60" width="6" height="6"/><rect x="84" y="60" width="6" height="6"/><rect x="96" y="60" width="6" height="6"/><rect x="108" y="60" width="6" height="6"/><rect x="120" y="60" width="6" height="6"/><rect x="132" y="60" width="6" height="6"/><rect x="138" y="60" width="6" height="6"/><rect x="144" y="60" width="6" height="6"/><rect x="150" y="60" width="6" height="6"/><rect x="156" y="60" width="6" height="6"/><rect x="162" y="60" width="6" height="6"/><rect x="168" y="60" width="6" height="6"/><rect x="84" y="66" width="6" height="6"/><rect x="90" y="66" width="6" height="6"/><rect x="120" y="66" width="6" height="6"/><rect x="24" y="72" width="6" height="6"/><rect x="30" y="72" width="6" height="6"/><rect x="54" y="72" width="6" height="6"/><rect x="60" y="72" width="6" height="6"/><rect x="66" y="72" width="6" height="6"/><rect x="78" y="72" width="6" height="6"/><rect x="96" y="72" width="6" height="6"/><rect x="102" y="72" width="6" height="6"/><rect x="108" y="72" width="6" height="6"/><rect x="114" y="72" width="6" height="6"/><rect x="120" y="72" width="6" height="6"/><rect x="144" y="72" width="6" height="6"/><rect x="150" y="72" width="6" height="6"/><rect x="42" y="78" width="6" height="6"/><rect x="48" y="78" width="6" height="6"/><rect x="54" y="78" width="6" height="6"/><rect x="66" y="78" width="6" height="6"/><rect x="78" y="78" width="6" height="6"/><rect x="90" y="78" width="6" height="6"/><rect x="108" y="78" width="6" height="6"/><rect x="114" y="78" width="6" height="6"/><rect x="138" y="78" width="6" height="6"/><rect x="144" y="78" width="6" height="6"/><rect x="150" y="78" width="6" height="6"/><rect x="156" y="78" width="6" height="6"/><rect x="162" y="78" width="6" height="6"/><rect x="24" y="84" width="6" height="6"/><rect x="42" y="84" width="6" height="6"/><rect x="48" y="84" width="6" height="6"/><rect x="54" y="84" width="6" height="6"/><rect x="60" y="84" width="6" height="6"/><rect x="66" y="84" width="6" height="6"/><rect x="84" y="84" width="6" height="6"/><rect x="96" y="84" width="6" height="6"/><rect x="108" y="84" width="6" height="6"/><rect x="114" y="84" width="6" height="6"/><rect x="132" y="84" width="6" height="6"/><rect x="150" y="84" width="6" height="6"/><rect x="162" y="84" width="6" height="6"/><rect x="168" y="84" width="6" height="6"/><rect x="30" y="90" width="6" height="6"/><rect x="66" y="90" width="6" height="6"/><rect x="78" y="90" width="6" height="6"/><rect x="90" y="90" width="6" height="6"/><rect x="96" y="90" width="6" height="6"/><rect x="108" y="90" width="6" height="6"/><rect x="114" y="90" width="6" height="6"/><rect x="126" y="90" width="6" height="6"/><rect x="132" y="90" width="6" height="6"/><rect x="138" y="90" width="6" height="6"/><rect x="144" y="90" width="6" height="6"/><rect x="150" y="90" width="6" height="6"/><rect x="168" y="90" width="6" height="6"/><rect x="30" y="96" width="6" height="6"/><rect x="36" y="96" width="6" height="6"/><rect x="60" y="96" width="6" height="6"/><rect x="78" y="96" width="6" height="6"/><rect x="90" y="96" width="6" height="6"/><rect x="120" y="96" width="6" height="6"/><rect x="132" y="96" width="6" height="6"/><rect x="138" y="96" width="6" height="6"/><rect x="168" y="96" width="6" height="6"/><rect x="24" y="102" width="6" height="6"/><rect x="48" y="102" width="6" height="6"/><rect x="66" y="102" width="6" height="6"/><rect x="90" y="102" width="6" height="6"/><rect x="108" y="102" width="6" height="6"/><rect x="114" y="102" width="6" height="6"/><rect x="120" y="102" width="6" height="6"/><rect x="126" y="102" width="6" height="6"/><rect x="138" y="102" width="6" height="6"/><rect x="162" y="102" width="6" height="6"/><rect x="24" y="108" width="6" height="6"/><rect x="36" y="108" width="6" height="6"/><rect x="54" y="108" width="6" height="6"/><rect x="60" y="108" width="6" height="6"/><rect x="84" y="108" width="6" height="6"/><rect x="102" y="108" width="6" height="6"/><rect x="114" y="108" width="6" height="6"/><rect x="132" y="108" width="6" height="6"/><rect x="138" y="108" width="6" height="6"/><rect x="144" y="108" width="6" height="6"/><rect x="150" y="108" width="6" height="6"/><rect x="162" y="108" width="6" height="6"/><rect x="168" y="108" width="6" height="6"/><rect x="24" y="114" width="6" height="6"/><rect x="36" y="114" width="6" height="6"/><rect x="48" y="114" width="6" height="6"/><rect x="54" y="114" width="6" height="6"/><rect x="72" y="114" width="6" height="6"/><rect x="78" y="114" width="6" height="6"/><rect x="84" y="114" width="6" height="6"/><rect x="90" y="114" width="6" height="6"/><rect x="114" y="114" width="6" height="6"/><rect x="126" y="114" width="6" height="6"/><rect x="138" y="114" width="6" height="6"/><rect x="150" y="114" width="6" height="6"/><rect x="156" y="114" width="6" height="6"/><rect x="168" y="114" width="6" height="6"/><rect x="24" y="120" width="6" height="6"/><rect x="54" y="120" width="6" height="6"/><rect x="60" y="120" width="6" height="6"/><rect x="72" y="120" width="6" height="6"/><rect x="78" y="120" width="6" height="6"/><rect x="84" y="120" width="6" height="6"/><rect x="90" y="120" width="6" height="6"/><rect x="96" y="120" width="6" height="6"/><rect x="102" y="120" width="6" height="6"/><rect x="108" y="120" width="6" height="6"/><rect x="120" y="120" width="6" height="6"/><rect x="126" y="120" width="6" height="6"/><rect x="132" y="120" width="6" height="6"/><rect x="138" y="120" width="6" height="6"/><rect x="144" y="120" width="6" height="6"/><rect x="156" y="120" width="6" height="6"/><rect x="72" y="126" width="6" height="6"/><rect x="78" y="126" width="6" height="6"/><rect x="90" y="126" width="6" height="6"/><rect x="108" y="126" width="6" height="6"/><rect x="120" y="126" width="6" height="6"/><rect x="144" y="126" width="6" height="6"/><rect x="24" y="132" width="6" height="6"/><rect x="30" y="132" width="6" height="6"/><rect x="36" y="132" width="6" height="6"/><rect x="42" y="132" width="6" height="6"/><rect x="48" y="132" width="6" height="6"/><rect x="54" y="132" width="6" height="6"/><rect x="60" y="132" width="6" height="6"/><rect x="72" y="132" width="6" height="6"/><rect x="78" y="132" width="6" height="6"/><rect x="90" y="132" width="6" height="6"/><rect x="96" y="132" width="6" height="6"/><rect x="102" y="132" width="6" height="6"/><rect x="120" y="132" width="6" height="6"/><rect x="132" y="132" width="6" height="6"/><rect x="144" y="132" width="6" height="6"/><rect x="168" y="132" width="6" height="6"/><rect x="24" y="138" width="6" height="6"/><rect x="60" y="138" width="6" height="6"/><rect x="72" y="138" width="6" height="6"/><rect x="78" y="138" width="6" height="6"/><rect x="90" y="138" width="6" height="6"/><rect x="120" y="138" width="6" height="6"/><rect x="144" y="138" width="6" height="6"/><rect x="162" y="138" width="6" height="6"/><rect x="168" y="138" width="6" height="6"/><rect x="24" y="144" width="6" height="6"/><rect x="36" y="144" width="6" height="6"/><rect x="42" y="144" width="6" height="6"/><rect x="48" y="144" width="6" height="6"/><rect x="60" y="144" width="6" height="6"/><rect x="78" y="144" width="6" height="6"/><rect x="84" y="144" width="6" height="6"/><rect x="90" y="144" width="6" height="6"/><rect x="96" y="144" width="6" height="6"/><rect x="102" y="144" width="6" height="6"/><rect x="108" y="144" width="6" height="6"/><rect x="114" y="144" width="6" height="6"/><rect x="120" y="144" width="6" height="6"/><rect x="126" y="144" width="6" height="6"/><rect x="132" y="144" width="6" height="6"/><rect x="138" y="144" width="6" height="6"/><rect x="144" y="144" width="6" height="6"/><rect x="156" y="144" width="6" height="6"/><rect x="162" y="144" width="6" height="6"/><rect x="24" y="150" width="6" height="6"/><rect x="36" y="150" width="6" height="6"/><rect x="42" y="150" width="6" height="6"/><rect x="48" y="150" width="6" height="6"/><rect x="60" y="150" width="6" height="6"/><rect x="78" y="150" width="6" height="6"/><rect x="90" y="150" width="6" height="6"/><rect x="96" y="150" width="6" height="6"/><rect x="108" y="150" width="6" height="6"/><rect x="126" y="150" width="6" height="6"/><rect x="132" y="150" width="6" height="6"/><rect x="162" y="150" width="6" height="6"/><rect x="168" y="150" width="6" height="6"/><rect x="24" y="156" width="6" height="6"/><rect x="36" y="156" width="6" height="6"/><rect x="42" y="156" width="6" height="6"/><rect x="48" y="156" width="6" height="6"/><rect x="60" y="156" width="6" height="6"/><rect x="78" y="156" width="6" height="6"/><rect x="84" y="156" width="6" height="6"/><rect x="96" y="156" width="6" height="6"/><rect x="114" y="156" width="6" height="6"/><rect x="150" y="156" width="6" height="6"/><rect x="156" y="156" width="6" height="6"/><rect x="168" y="156" width="6" height="6"/><rect x="24" y="162" width="6" height="6"/><rect x="60" y="162" width="6" height="6"/><rect x="72" y="162" width="6" height="6"/><rect x="78" y="162" width="6" height="6"/><rect x="84" y="162" width="6" height="6"/><rect x="90" y="162" width="6" height="6"/><rect x="96" y="162" width="6" height="6"/><rect x="108" y="162" width="6" height="6"/><rect x="114" y="162" width="6" height="6"/><rect x="120" y="162" width="6" height="6"/><rect x="126" y="162" width="6" height="6"/><rect x="132" y="162" width="6" height="6"/><rect x="138" y="162" width="6" height="6"/><rect x="144" y="162" width="6" height="6"/><rect x="168" y="162" width="6" height="6"/><rect x="24" y="168" width="6" height="6"/><rect x="30" y="168" width="6" height="6"/><rect x="36" y="168" width="6" height="6"/><rect x="42" y="168" width="6" height="6"/><rect x="48" y="168" width="6" height="6"/><rect x="54" y="168" width="6" height="6"/><rect x="60" y="168" width="6" height="6"/><rect x="72" y="168" width="6" height="6"/><rect x="78" y="168" width="6" height="6"/><rect x="90" y="168" width="6" height="6"/><rect x="120" y="168" width="6" height="6"/><rect x="132" y="168" width="6" height="6"/><rect x="150" y="168" width="6" height="6"/><rect x="168" y="168" width="6" height="6"/></g>
</svg>
