<?xml version="1.0" encoding="utf-8"?>
<!-- Generator: Adobe Illustrator 26.4.1, SVG Export Plug-In . SVG Version: 6.00 Build 0)  -->
<svg version="1.1" id="Layer_1" xmlns="http://www.w3.org/2000/svg" xmlns:xlink="http://www.w3.org/1999/xlink" x="0px" y="0px"
	 viewBox="0 0 1125 2436" style="enable-background:new 0 0 1125 2436;" xml:space="preserve">
<style type="text/css">
	.st0{fill:#204D25;stroke:#204D25;stroke-width:10.8413;stroke-miterlimit:10;}
	.st1{enable-background:new    ;}
	.st2{fill:none;stroke:#CCFF00;stroke-width:3.5999;stroke-miterlimit:10.0002;}
	.st3{fill:none;stroke:#CCFF00;stroke-width:1.8311;stroke-miterlimit:10.0002;}
	.st4{fill:none;stroke:#CCFF00;stroke-width:3.5999;stroke-miterlimit:10.0001;}
	.st5{fill:#CCFF00;}
	.st6{fill:#00977D;}
	.st7{stroke:#CCFF00;stroke-width:24.2484;stroke-linejoin:round;stroke-miterlimit:10;}
	.st8{fill:none;stroke:#004D00;stroke-width:10.3677;stroke-miterlimit:10;}
	.st9{fill:#CCFF00;stroke:#004D00;stroke-width:10.9216;stroke-miterlimit:10;}
	.st10{fill:#CCFF00;stroke:#204D25;stroke-width:4.2538;stroke-linejoin:round;stroke-miterlimit:10;}
</style>
<rect id="SHOE_00000106835174282336079370000005204029990632853675_" class="st0" width="1125" height="2436"/>
<g id="TT_00000101077821033500449250000017635494272684252314_">
	<g class="st1">
		<path class="st2" d="M165.4,2270.6l0.3,16.7l-23.9,0.4l1.1,71.8l-17.4,0.3l-1.1-71.8l-23.8,0.4l-0.3-16.7L165.4,2270.6z"/>
		<path class="st2" d="M228.2,2358l-5.9-15.8l-36.3,0.6l-5.1,16l-18.8,0.3l29.6-88.9l21.6-0.3l32.6,87.9L228.2,2358z M191.5,2326.4
			l24.9-0.4l-13.3-35.9L191.5,2326.4z"/>
		<path class="st2" d="M271.7,2340.7l33.7-0.5l0.3,16.7l-51.2,0.8l-1.4-88.4l17.4-0.3L271.7,2340.7z"/>
		<path class="st2" d="M384.6,2355.6l-20.1,0.3l-32.2-40.9l0.6,41.4l-17.4,0.3l-1.4-88.4l17.4-0.3l0.6,39l29.7-39.4l20.1-0.3
			l-32,43.5L384.6,2355.6z"/>
		<path class="st2" d="M391.8,2267l17.4-0.3l1.4,88.4l-17.4,0.3L391.8,2267z"/>
		<path class="st2" d="M476.8,2265.7l17.4-0.3l1.4,88.4l-13.3,0.2l-38.7-53.5l0.8,54.1l-17.4,0.3l-1.4-88.4l13.3-0.2l38.8,53.3
			L476.8,2265.7z"/>
		<path class="st2" d="M598.1,2304.8l0.1,6.8c0.2,12.6-3.7,22.9-11.6,30.9s-18.3,12-31.1,12.2c-13.6,0.2-25-4.1-34.1-12.8
			s-13.8-19.5-14-32.3c-0.2-12.9,4.1-23.9,12.8-32.9c8.7-9.1,19.7-13.7,32.8-13.9c8.3-0.1,15.8,1.6,22.7,5.3
			c6.9,3.6,12.3,8.5,16.2,14.7l-14.8,8.8c-2.2-3.6-5.4-6.5-9.7-8.7s-9-3.3-14.3-3.2c-8.4,0.1-15.3,3-20.7,8.6
			c-5.3,5.6-8,12.6-7.8,21c0.1,8.3,3,15.2,8.6,20.5s13,7.9,22,7.8c6.7-0.1,12.3-1.7,16.7-4.7c4.4-3.1,7.3-7.2,8.8-12.5l-26.8,0.4
			l-0.2-15.4L598.1,2304.8z"/>
		<path class="st2" d="M731.5,2261.7l0.3,16.7l-23.9,0.4l1.1,71.8l-17.4,0.3l-1.1-71.8l-23.8,0.4l-0.3-16.7L731.5,2261.7z"/>
		<path class="st2" d="M791.1,2349.3l-18.4-30.4l-13.2,0.2l0.5,30.7l-17.4,0.3l-1.4-88.4l35.4-0.6c8.2-0.1,15.2,2.6,21,8.3
			c5.8,5.6,8.8,12.5,8.9,20.6c0.1,5.5-1.4,10.6-4.4,15.3s-7.1,8.3-12.2,10.7l20.1,33L791.1,2349.3z M758.9,2277.6l0.4,26.2l17.9-0.3
			c3.3-0.1,6.1-1.4,8.4-4c2.3-2.6,3.4-5.7,3.4-9.3c-0.1-3.6-1.3-6.7-3.7-9.2s-5.2-3.7-8.5-3.7L758.9,2277.6z"/>
		<path class="st2" d="M837.4,2331.9l37.3-0.6l0.3,16.7l-54.7,0.9l-1.4-88.4l54.1-0.8l0.3,16.7l-36.6,0.6l0.3,18.8l33.5-0.5
			l0.3,16.4l-33.5,0.5L837.4,2331.9z"/>
		<path class="st2" d="M904.3,2330.8l37.3-0.6l0.3,16.7l-54.7,0.9l-1.4-88.4l54.1-0.8l0.3,16.7l-36.6,0.6l0.3,18.8l33.5-0.5
			l0.3,16.4L904,2311L904.3,2330.8z"/>
		<path class="st2" d="M984.3,2348c-8.8,0.1-16.2-1.7-22.2-5.5s-10.3-9.1-12.9-15.8l14.8-9c3.6,9,10.4,13.4,20.5,13.2
			c4.9-0.1,8.5-1,10.7-2.8s3.3-4.1,3.3-6.7c0-3.1-1.5-5.5-4.3-7.2s-7.8-3.5-15-5.4c-4-1.1-7.3-2.2-10.1-3.4
			c-2.8-1.1-5.5-2.7-8.3-4.6c-2.8-1.9-4.9-4.4-6.4-7.4s-2.3-6.5-2.3-10.6c-0.1-8,2.6-14.4,8.2-19.3c5.6-4.8,12.4-7.3,20.4-7.5
			c7.2-0.1,13.5,1.5,19,4.9s9.8,8.2,12.9,14.4l-14.5,8.7c-3.7-7.5-9.4-11.2-17.1-11.1c-3.6,0.1-6.5,0.9-8.5,2.6c-2,1.7-3,3.8-3,6.4
			c0,2.8,1.2,5,3.6,6.7c2.3,1.7,6.8,3.5,13.4,5.4c2.7,0.8,4.8,1.4,6.2,1.9c1.4,0.4,3.3,1.1,5.7,2.1c2.4,0.9,4.3,1.8,5.6,2.6
			s2.8,1.9,4.5,3.3c1.7,1.4,3,2.9,3.9,4.4s1.7,3.3,2.4,5.5c0.7,2.1,1,4.5,1.1,7c0.1,8.2-2.7,14.7-8.6,19.6
			C1001.5,2345.3,993.9,2347.9,984.3,2348z"/>
		<path class="st3" d="M1038.9,2256.9l0.1,7.1l-6.9,0.1l0.3,18.2l-7.7,0.1l-0.3-18.2l-6.9,0.1l-0.1-7.1L1038.9,2256.9z
			 M1061.5,2256.6l7.3-0.1l0.4,25.3l-7.3,0.1l-0.2-13.8l-5.9,9.3h-0.6l-6.2-9.1l0.2,13.8l-7.3,0.1l-0.4-25.3l7.3-0.1l6.6,9.6
			L1061.5,2256.6z"/>
	</g>
	<g class="st1">
		<path class="st4" d="M158,2263.8l-0.1,16.7l-23.9-0.1l-0.4,71.8l-17.4-0.1l0.4-71.8l-23.8-0.1l0.1-16.7L158,2263.8z"/>
		<path class="st4" d="M219,2352.6l-5.5-15.9l-36.3-0.2l-5.4,15.9l-18.8-0.1l31.4-88.3l21.6,0.1l30.7,88.6L219,2352.6z
			 M182.9,2320.2l24.9,0.1l-12.6-36.2L182.9,2320.2z"/>
		<path class="st4" d="M262.8,2336.2l33.7,0.2l-0.1,16.7l-51.2-0.3l0.5-88.4l17.4,0.1L262.8,2336.2z"/>
		<path class="st4" d="M375.4,2353.4l-20.1-0.1l-31.4-41.6l-0.2,41.4l-17.4-0.1l0.5-88.4l17.4,0.1l-0.2,39l30.5-38.8l20.1,0.1
			l-32.9,42.8L375.4,2353.4z"/>
		<path class="st4" d="M384.5,2265l17.4,0.1l-0.5,88.4l-17.4-0.1L384.5,2265z"/>
		<path class="st4" d="M469.5,2265.5l17.4,0.1l-0.5,88.4l-13.3-0.1l-37.6-54.3l-0.3,54.1l-17.4-0.1l0.5-88.4l13.3,0.1l37.6,54.1
			L469.5,2265.5z"/>
		<path class="st4" d="M589.9,2307v6.8c-0.1,12.6-4.2,22.8-12.3,30.6s-18.6,11.7-31.4,11.6c-13.6-0.1-24.9-4.6-33.9-13.5
			c-8.9-8.9-13.4-19.8-13.3-32.6c0.1-12.9,4.6-23.8,13.5-32.7c8.9-8.9,20-13.3,33.1-13.2c8.3,0,15.8,2,22.6,5.7
			c6.8,3.8,12.1,8.8,15.8,15.1l-15,8.5c-2.1-3.6-5.3-6.6-9.5-8.9c-4.2-2.3-9-3.5-14.2-3.5c-8.4,0-15.4,2.7-20.8,8.2
			c-5.5,5.5-8.2,12.4-8.3,20.9c0,8.3,2.7,15.2,8.2,20.7s12.8,8.2,21.9,8.3c6.7,0,12.3-1.4,16.8-4.4c4.4-3,7.5-7.1,9.1-12.3
			l-26.8-0.1l0.1-15.4L589.9,2307z"/>
		<path class="st4" d="M724.2,2266.8l-0.1,16.7l-23.9-0.1l-0.4,71.8l-17.4-0.1l0.4-71.8l-23.8-0.1l0.1-16.7L724.2,2266.8z"/>
		<path class="st4" d="M782,2355.5l-17.7-30.8l-13.2-0.1l-0.2,30.7l-17.4-0.1l0.5-88.4l35.4,0.2c8.2,0,15.1,2.9,20.8,8.7
			s8.5,12.7,8.5,20.8c0,5.5-1.6,10.5-4.8,15.2c-3.1,4.7-7.3,8.2-12.4,10.5l19.4,33.5L782,2355.5z M751.3,2283.2l-0.1,26.2l17.9,0.1
			c3.3,0,6.1-1.3,8.5-3.8c2.4-2.6,3.6-5.6,3.6-9.3c0-3.6-1.1-6.7-3.5-9.2c-2.3-2.5-5.2-3.8-8.4-3.8L751.3,2283.2z"/>
		<path class="st4" d="M828.6,2339.1l37.3,0.2l-0.1,16.7l-54.7-0.3l0.5-88.4l54.1,0.3l-0.1,16.7l-36.6-0.2l-0.1,18.8l33.5,0.2
			l-0.1,16.4l-33.5-0.2L828.6,2339.1z"/>
		<path class="st4" d="M895.5,2339.4l37.3,0.2l-0.1,16.7L878,2356l0.5-88.4l54.1,0.3l-0.1,16.7l-36.6-0.2l-0.1,18.8l33.5,0.2
			l-0.1,16.4l-33.5-0.2L895.5,2339.4z"/>
		<path class="st4" d="M975.1,2358.3c-8.8,0-16.1-2-22.1-6c-6-3.9-10.1-9.3-12.6-16l15-8.6c3.4,9,10.2,13.6,20.3,13.6
			c4.9,0,8.5-0.8,10.8-2.6s3.4-4,3.4-6.7c0-3.1-1.4-5.5-4.1-7.3c-2.8-1.7-7.7-3.6-14.9-5.7c-4-1.2-7.3-2.4-10-3.6
			c-2.7-1.2-5.5-2.8-8.2-4.8s-4.8-4.5-6.2-7.5s-2.1-6.6-2.1-10.6c0-8,2.9-14.4,8.6-19.1c5.7-4.7,12.6-7.1,20.6-7
			c7.2,0,13.4,1.8,18.9,5.3c5.4,3.5,9.6,8.4,12.6,14.7l-14.7,8.4c-3.5-7.6-9.1-11.4-16.9-11.5c-3.6,0-6.5,0.8-8.5,2.4
			c-2.1,1.6-3.1,3.8-3.1,6.4c0,2.8,1.1,5,3.4,6.8c2.3,1.7,6.7,3.6,13.3,5.7c2.7,0.9,4.7,1.5,6.1,2c1.4,0.5,3.3,1.2,5.7,2.2
			s4.2,1.9,5.5,2.7s2.8,2,4.5,3.4s3,2.9,3.8,4.4s1.6,3.4,2.2,5.5c0.6,2.2,0.9,4.5,0.9,7c0,8.2-3,14.6-9,19.4
			C992.4,2356,984.7,2358.4,975.1,2358.3z"/>
	</g>
	<g class="st1">
		<path class="st5" d="M438.6,2374.8c1.6,0,2.9,0.7,4,2.1c1.1,1.4,1.6,3.2,1.6,5.2s-0.6,3.8-1.6,5.2s-2.4,2.1-4,2.1h-2.9v7.2h-3.2
			l0.1-21.9L438.6,2374.8z M438.6,2385.5c0.7,0,1.3-0.3,1.7-1c0.5-0.6,0.7-1.4,0.7-2.4s-0.2-1.8-0.7-2.4c-0.5-0.6-1-0.9-1.7-0.9
			h-2.9v6.6L438.6,2385.5z"/>
		<path class="st5" d="M452.2,2397.2c-1.8,0-3.3-0.7-4.5-2.1s-1.8-3.2-1.7-5.5v-14.7h3.2v14.4c0,1.1,0.2,2.1,0.7,2.7s1.3,1,2.3,1
			s1.8-0.3,2.3-1s0.7-1.6,0.7-2.7v-14.4h3.2v14.7c0,2.3-0.6,4.2-1.8,5.5C455.5,2396.6,454,2397.2,452.2,2397.2z"/>
		<path class="st5" d="M471.5,2385.5c1.4,1.1,2.2,2.8,2.1,5c0,1.9-0.5,3.4-1.5,4.6c-1,1.2-2.2,1.8-3.6,1.8h-7l0.1-21.9h6.5
			c1.4,0,2.6,0.6,3.6,1.7c1,1.2,1.4,2.6,1.4,4.4S472.6,2384.4,471.5,2385.5z M468.5,2392.8c0.5,0,1-0.2,1.4-0.7s0.5-1.1,0.5-1.9
			c0-0.7-0.2-1.3-0.5-1.8s-0.8-0.7-1.4-0.7h-3.7v5.2L468.5,2392.8z M468.1,2379h-3.2v4.8h3.2c0.5,0,0.9-0.2,1.3-0.7s0.5-1,0.5-1.7
			s-0.2-1.3-0.5-1.7C469,2379.2,468.6,2379,468.1,2379z"/>
		<path class="st5" d="M479.3,2392.7h6.3v4.1h-9.5l0.1-21.9h3.2L479.3,2392.7z"/>
		<path class="st5" d="M487.2,2375h3.2l-0.1,21.9h-3.2L487.2,2375z"/>
		<path class="st5" d="M499,2397.4c-1.6,0-3-0.5-4.1-1.5s-1.9-2.3-2.3-4l2.8-2.2c0.6,2.2,1.9,3.4,3.8,3.4c0.9,0,1.6-0.2,2-0.7
			c0.4-0.4,0.6-1,0.6-1.7c0-0.8-0.3-1.4-0.8-1.8c-0.5-0.4-1.4-0.9-2.8-1.4c-0.7-0.3-1.4-0.6-1.9-0.9c-0.5-0.3-1-0.7-1.5-1.2
			s-0.9-1.1-1.2-1.9c-0.3-0.8-0.4-1.6-0.4-2.6c0-2,0.5-3.6,1.6-4.7s2.3-1.8,3.8-1.8c1.3,0,2.5,0.4,3.5,1.3c1,0.9,1.8,2.1,2.4,3.6
			l-2.7,2.1c-0.7-1.9-1.7-2.8-3.1-2.8c-0.7,0-1.2,0.2-1.6,0.6c-0.4,0.4-0.6,0.9-0.6,1.6c0,0.7,0.2,1.2,0.6,1.7
			c0.4,0.4,1.3,0.9,2.5,1.4c0.5,0.2,0.9,0.4,1.1,0.5c0.3,0.1,0.6,0.3,1.1,0.5c0.4,0.2,0.8,0.5,1,0.7s0.5,0.5,0.8,0.8
			c0.3,0.4,0.5,0.7,0.7,1.1c0.2,0.4,0.3,0.8,0.4,1.4c0.1,0.5,0.2,1.1,0.2,1.7c0,2-0.6,3.6-1.7,4.8
			C502.2,2396.8,500.8,2397.4,499,2397.4z"/>
		<path class="st5" d="M516.6,2375.1h3.2l-0.1,21.9h-3.2v-9.1h-6.1v9.1h-3.2l0.1-21.9h3.2v8.7h6.1V2375.1z"/>
		<path class="st5" d="M523,2375.1h3.2l-0.1,21.9h-3.2L523,2375.1z"/>
		<path class="st5" d="M539,2375.1h3.2l-0.1,21.9h-2.5l-7-13.4v13.4h-3.2l0.1-21.9h2.5l7,13.4V2375.1z"/>
		<path class="st5" d="M561.5,2385.3v1.7c0,3.1-0.8,5.7-2.3,7.6c-1.5,1.9-3.5,2.9-5.8,2.9c-2.5,0-4.6-1.1-6.3-3.3s-2.5-4.9-2.5-8.1
			c0-3.2,0.8-5.9,2.5-8.1c1.7-2.2,3.7-3.3,6.2-3.3c1.5,0,2.9,0.5,4.2,1.4s2.2,2.2,2.9,3.7l-2.8,2.1c-0.4-0.9-1-1.6-1.8-2.2
			c-0.8-0.6-1.7-0.9-2.6-0.9c-1.6,0-2.9,0.7-3.9,2c-1,1.4-1.5,3.1-1.5,5.2c0,2.1,0.5,3.8,1.5,5.1s2.4,2,4.1,2c1.3,0,2.3-0.4,3.1-1.1
			c0.8-0.7,1.4-1.8,1.7-3h-5v-3.8L561.5,2385.3z"/>
		<path class="st5" d="M577.4,2397.6c-2.5,0-4.5-1.1-6.1-3.3s-2.4-4.9-2.4-8.1c0-3.2,0.8-5.9,2.4-8.1c1.6-2.2,3.7-3.3,6.1-3.3
			c1.5,0,2.9,0.5,4.1,1.4c1.3,0.9,2.2,2.2,2.9,3.8l-2.8,2.2c-0.4-1-1-1.8-1.7-2.3c-0.8-0.6-1.6-0.8-2.5-0.8c-1.6,0-2.9,0.7-3.9,2
			s-1.5,3.1-1.5,5.2c0,2.1,0.5,3.8,1.5,5.2s2.3,2,3.9,2c0.9,0,1.8-0.3,2.5-0.8c0.8-0.6,1.3-1.3,1.7-2.3l2.8,2.2
			c-0.7,1.6-1.7,2.8-2.9,3.8C580.3,2397.1,578.9,2397.6,577.4,2397.6z"/>
		<path class="st5" d="M600,2394.4c-1.7,2.2-3.7,3.3-6.1,3.3s-4.4-1.1-6-3.3s-2.5-4.9-2.5-8.1c0-3.2,0.8-5.9,2.5-8.1
			c1.7-2.2,3.7-3.3,6.1-3.3s4.4,1.1,6,3.3c1.7,2.2,2.5,4.9,2.5,8.1S601.6,2392.2,600,2394.4z M590.1,2391.4c1,1.3,2.3,2,3.8,2
			s2.8-0.7,3.8-2s1.5-3.1,1.5-5.1c0-2.1-0.5-3.8-1.5-5.2s-2.3-2-3.8-2s-2.8,0.7-3.8,2c-1,1.4-1.5,3.1-1.5,5.2
			C588.6,2388.3,589.1,2390,590.1,2391.4z"/>
		<path class="st5" d="M620.9,2375.4l-0.1,21.9h-3.2v-14.2l-4.7,10.2h-0.4l-4.6-10.1v14.2h-3.2l0.1-21.9h3.3l4.7,10.4l4.7-10.3
			L620.9,2375.4z"/>
		<path class="st5" d="M630.2,2375.4c1.6,0,2.9,0.7,4,2.1c1.1,1.4,1.6,3.2,1.6,5.2c0,2.1-0.6,3.8-1.6,5.2c-1.1,1.4-2.4,2.1-4,2.1
			h-2.9v7.2h-3.2l0.1-21.9L630.2,2375.4z M630.2,2386.1c0.7,0,1.3-0.3,1.7-1c0.5-0.6,0.7-1.4,0.7-2.4s-0.2-1.8-0.7-2.4
			c-0.5-0.6-1-0.9-1.7-0.9h-2.9v6.6L630.2,2386.1z"/>
		<path class="st5" d="M647.5,2397.4l-1-3.9h-6.8l-1,3.9h-3.5l5.8-21.9h4l5.7,21.9H647.5z M640.8,2389.4h4.6l-2.3-9L640.8,2389.4z"
			/>
		<path class="st5" d="M661.9,2375.5h3.2l-0.1,21.9h-2.5l-7-13.4v13.4h-3.2l0.1-21.9h2.5l7,13.4V2375.5z"/>
		<path class="st5" d="M681.1,2375.5l-5.7,13.4v8.5h-3.2v-8.5l-5.6-13.4h3.7l3.5,9.1l3.6-9.1H681.1z"/>
		<path class="st5" d="M691.7,2393.4h6.3v4.1h-9.5l0.1-21.9h3.2L691.7,2393.4z"/>
		<path class="st5" d="M699.6,2375.6h3.2l-0.1,21.9h-3.2L699.6,2375.6z"/>
		<path class="st5" d="M722.2,2375.7l-0.1,21.9h-3.2v-14.2l-4.7,10.2h-0.4l-4.6-10.1v14.2H706l0.1-21.9h3.3l4.7,10.4l4.7-10.3
			L722.2,2375.7z"/>
		<path class="st5" d="M725.4,2375.7h3.2l-0.1,21.9h-3.2L725.4,2375.7z"/>
		<path class="st5" d="M742.3,2375.7v4.1h-4.4l-0.1,17.8h-3.2l0.1-17.8h-4.4v-4.1H742.3z"/>
		<path class="st5" d="M747.1,2393.5h6.9v4.1h-10.2l0.1-21.9H754v4.1h-6.8v4.7h6.2v4.1h-6.2L747.1,2393.5z"/>
		<path class="st5" d="M763.2,2375.8c2.3,0,4.1,1.1,5.6,3.2c1.5,2.1,2.3,4.7,2.2,7.8c0,3.1-0.8,5.7-2.3,7.8s-3.4,3.2-5.7,3.1h-6.5
			l0.1-21.9L763.2,2375.8z M763.1,2393.6c1.4,0,2.6-0.6,3.5-1.9c0.9-1.3,1.3-2.9,1.4-4.9c0-2-0.4-3.7-1.3-4.9
			c-0.9-1.3-2-1.9-3.5-1.9h-3.3v13.7L763.1,2393.6z"/>
	</g>
</g>
<g>
	<circle class="st6" cx="364.2" cy="1960.2" r="218"/>
</g>
<g>
	<circle class="st6" cx="279.4" cy="1059.7" r="46.6"/>
</g>
<g>
	<circle class="st6" cx="195.8" cy="966" r="33.7"/>
</g>
<g>
	<circle class="st6" cx="793.1" cy="1958" r="171.8"/>
</g>
<g>
	<circle class="st6" cx="592.3" cy="564.7" r="473.7"/>
</g>
<g>
	<circle class="st6" cx="691.6" cy="1406.6" r="436.1"/>
</g>
<path class="st7" d="M188.3-191.9 M792.4,383.8l-91.1,106.7l-73.2-106.5c-7.1-10.4-20.3-15-32.3-11.3c-12.1,3.7-20.4,14.9-20.4,27.5
	c-0.1,13.8-5.5,47.7-21.2,58.5c-0.3,0.2-0.6,0.4-0.9,0.6c-0.1,0-0.2,0.1-0.2,0.2c-6.8,4.7-16.7,5.6-23.8,5.6
	c-19.5,0-38.3-6.9-38.4-7c-11.8-4.5-25.2-0.8-33,9.1c-7.8,9.9-8.3,23.8-1.1,34.2l73.1,106.5L69.4,770.3c-14.2,5-22.2,20.1-18.3,34.7
	c3.9,14.6,18.2,23.8,33.2,21c0.7-0.1,66.9-12.1,137.7-12.1c47.5,0,85.5,5.2,113.1,15.5c73.7,27.4,117.3,103.7,117.6,104.4
	c3.8,6.8,10.1,11.7,17.6,13.8c7.5,2.1,13.4,0.7,22.2-2.9c97-52.2,260.5-70.9,382.8,35.1c0,0,14.8,12.7,24.2,12.7
	c5.4,0,10.9-1.5,15.8-4.5c0.9-0.5,2.2-1.5,3-2.1c12.1-9.6,14.5-27,5.6-39.5c-0.5-0.7-49.6-70.9-25-184.2
	c21.1-96.9,128.9-184.6,129.9-185.4c6-4.8,9.8-11.9,10.6-19.6c0.8-7.7-1.5-15.4-6.5-21.4c-0.6-0.7-56-68.7-55.1-147.4
	c1.1-93.7,86.3-233.8,87.1-235.2c7.8-12.8,4.5-29.6-7.7-38.5c-12.2-8.9-29.2-6.8-39,4.6L792.4,383.8"/>
<g>
	<g class="st1">
		<path class="st5" d="M318.4,1255.7c8.8-1,17.4-0.5,25.7,1.6c8.3,2.1,15.7,5.2,22.2,9.3c6.4,4.1,11.7,8.8,15.8,14.1
			c4.1,5.4,6.5,10.8,7.2,16.5c1.5,12.5-0.1,23.8-4.7,33.9c-4.6,10.1-11.5,18.9-20.5,26.3c-9.1,7.4-19.8,13.5-32.1,18.2
			c-12.4,4.7-25.6,7.9-39.9,9.6c-9.1,1.1-18.4,1.3-28,0.7c-9.6-0.6-18.8-2.2-27.4-4.8c-8.6-2.6-16.3-6.3-22.9-11.2
			c-6.7-4.9-11.6-11.2-14.7-18.7c-1.1-2.6-2.6-6.6-4.6-12.1c-2-5.5-4.2-11.7-6.7-18.6c-2.4-6.9-5.1-14.4-7.9-22.5
			c-2.8-8.1-5.6-16.2-8.3-24.4c-6.5-18.9-13.4-39.4-20.7-61.6l32.4-44.5c22-2.6,42-2.9,59.9-0.8c17.9,2.1,33.2,5.9,46.1,11.5
			c12.8,5.6,23,12.4,30.4,20.4c7.4,8.1,11.7,16.8,12.8,26.1c0.5,4.2,0,8.1-1.4,11.7c-1.4,3.7-3.1,7-5,9.9
			C323.5,1249.5,321,1252.6,318.4,1255.7z M243.1,1268.3c5.4-0.6,10.3-1.9,14.8-3.8c4.5-1.9,8.3-4.1,11.3-6.7c3-2.6,5.3-5.3,6.9-8.1
			c1.5-2.8,2.2-5.4,1.9-7.9c-0.5-4.4-2.9-8.5-7-12.2c-4.2-3.7-9-6.9-14.6-9.6c-5.5-2.7-11.3-4.7-17.3-6.1c-6-1.4-11.2-1.8-15.6-1.3
			L243.1,1268.3z M300,1333.5c7.8-0.9,14.3-3.4,19.4-7.3c5.1-4,7.4-8.3,6.9-12.9c-0.3-2.4-1.1-4.8-2.3-7c-1.3-2.2-3.2-4.1-5.9-5.8
			c-2.7-1.7-6.2-2.9-10.7-3.6c-4.4-0.7-10.1-0.7-16.9,0.1c-6.6,0.8-12.2,1.8-16.6,2.9c-4.5,1.2-8,2.3-10.6,3.3
			c-3.1,1.4-5.4,2.5-7,3.4c0.5,4.4,1.6,8.5,3.3,12.3c1.7,3.8,4.2,6.9,7.6,9.3c3.4,2.5,7.8,4.2,13.1,5.2
			C285.6,1334.4,292.2,1334.4,300,1333.5z"/>
		<path class="st5" d="M465.5,1138.7c7.1-0.8,14.7-1.1,22.8-0.8c8.1,0.3,16.3,1.5,24.5,3.6c8.2,2.1,16.2,5.4,24.1,9.8
			c7.8,4.4,15,10.4,21.3,18c6.4,7.6,11.9,16.9,16.6,28c4.7,11.1,7.9,24.3,9.7,39.5c1.8,15.2,1.9,28.7,0.3,40.4
			c-1.6,11.7-4.5,22-8.6,30.8c-4.2,8.8-9.2,16.2-15.1,22.3c-5.9,6-12.3,11-19.3,15c-7,3.9-14.1,7-21.3,9c-7.2,2.1-14.1,3.5-20.7,4.3
			c-36.5,4.3-65.6-1.3-87.3-16.8c-21.7-15.6-34.6-40.6-38.7-75.1c-2.1-17.4-1.3-33.5,2.3-48.3c3.6-14.8,9.4-27.8,17.5-39
			c8.1-11.1,18.3-20.2,30.7-27.3C436.5,1144.9,450.3,1140.5,465.5,1138.7z M490.3,1303.8c8.1-1,14.3-3.3,18.7-7.1
			c4.4-3.7,7.6-8.4,9.5-13.8c2-5.4,2.9-11.5,2.9-18.2c-0.1-6.7-0.5-13.5-1.3-20.3c-0.8-6.9-2.5-13.5-5-19.9c-2.5-6.4-6-12-10.4-16.7
			c-4.4-4.7-9.7-8.3-16-10.8c-6.3-2.5-13.4-3.2-21.5-2.3c-4.4,0.5-8.4,2.4-12,5.5c-3.6,3.2-6.6,7.4-8.9,12.6
			c-2.4,5.3-3.9,11.3-4.7,18.3c-0.8,6.9-0.7,14.4,0.3,22.5c0.5,4.4,1.8,9.7,3.9,15.9c2.1,6.2,5.1,12,9,17.4
			c3.9,5.4,8.7,9.8,14.6,13.2C475.2,1303.6,482.2,1304.8,490.3,1303.8z"/>
		<path class="st5" d="M671.6,1114.2c7.1-0.8,14.7-1.1,22.8-0.8c8.1,0.3,16.3,1.5,24.5,3.6c8.2,2.1,16.2,5.4,24.1,9.8
			c7.8,4.4,15,10.4,21.3,18c6.4,7.6,11.9,16.9,16.6,28c4.7,11.1,7.9,24.3,9.7,39.5c1.8,15.2,1.9,28.7,0.3,40.4
			c-1.6,11.7-4.5,22-8.6,30.8c-4.2,8.8-9.2,16.2-15.1,22.3c-5.9,6-12.3,11-19.3,15c-7,3.9-14.1,7-21.3,9c-7.2,2.1-14.1,3.5-20.7,4.3
			c-36.5,4.3-65.6-1.3-87.3-16.8c-21.7-15.6-34.6-40.6-38.7-75.1c-2.1-17.4-1.3-33.5,2.3-48.3c3.6-14.8,9.4-27.8,17.5-39
			c8.1-11.1,18.3-20.2,30.7-27.3C642.6,1120.5,656.4,1116,671.6,1114.2z M696.4,1279.3c8.1-1,14.3-3.3,18.7-7.1
			c4.4-3.7,7.6-8.4,9.5-13.8c2-5.5,2.9-11.5,2.9-18.2c0-6.7-0.5-13.5-1.3-20.3c-0.8-6.9-2.5-13.5-5-19.9c-2.5-6.4-6-12-10.4-16.7
			c-4.4-4.7-9.7-8.3-16-10.8c-6.3-2.5-13.4-3.2-21.5-2.3c-4.4,0.5-8.4,2.4-12,5.5c-3.6,3.2-6.6,7.4-8.9,12.6
			c-2.4,5.3-3.9,11.3-4.7,18.3c-0.8,6.9-0.7,14.4,0.3,22.5c0.5,4.4,1.8,9.7,3.9,15.9c2.1,6.2,5.1,12,9,17.4
			c3.9,5.4,8.7,9.8,14.6,13.2C681.4,1279.1,688.3,1280.3,696.4,1279.3z"/>
		<path class="st5" d="M1060.5,1276.7l-83,31.8l-86.7-74.3l-10.4,9.8l14.8,64.9l-70.6,17.7l-48.4-210l69.4-27.2l26.2,116.9
			l27.4-95.3l82.3-37.7l-42.7,107.9L1060.5,1276.7z"/>
	</g>
	<g class="st1">
		<path class="st8" d="M318.4,1255.7c8.8-1,17.4-0.5,25.7,1.6c8.3,2.1,15.7,5.2,22.2,9.3c6.4,4.1,11.7,8.8,15.8,14.1
			c4.1,5.4,6.5,10.8,7.2,16.5c1.5,12.5-0.1,23.8-4.7,33.9c-4.6,10.1-11.5,18.9-20.5,26.3c-9.1,7.4-19.8,13.5-32.1,18.2
			c-12.4,4.7-25.6,7.9-39.9,9.6c-9.1,1.1-18.4,1.3-28,0.7c-9.6-0.6-18.8-2.2-27.4-4.8c-8.6-2.6-16.3-6.3-22.9-11.2
			c-6.7-4.9-11.6-11.2-14.7-18.7c-1.1-2.6-2.6-6.6-4.6-12.1c-2-5.5-4.2-11.7-6.7-18.6c-2.4-6.9-5.1-14.4-7.9-22.5
			c-2.8-8.1-5.6-16.2-8.3-24.4c-6.5-18.9-13.4-39.4-20.7-61.6l32.4-44.5c22-2.6,42-2.9,59.9-0.8c17.9,2.1,33.2,5.9,46.1,11.5
			c12.8,5.6,23,12.4,30.4,20.4c7.4,8.1,11.7,16.8,12.8,26.1c0.5,4.2,0,8.1-1.4,11.7c-1.4,3.7-3.1,7-5,9.9
			C323.5,1249.5,321,1252.6,318.4,1255.7z M243.1,1268.3c5.4-0.6,10.3-1.9,14.8-3.8c4.5-1.9,8.3-4.1,11.3-6.7c3-2.6,5.3-5.3,6.9-8.1
			c1.5-2.8,2.2-5.4,1.9-7.9c-0.5-4.4-2.9-8.5-7-12.2c-4.2-3.7-9-6.9-14.6-9.6c-5.5-2.7-11.3-4.7-17.3-6.1c-6-1.4-11.2-1.8-15.6-1.3
			L243.1,1268.3z M300,1333.5c7.8-0.9,14.3-3.4,19.4-7.3c5.1-4,7.4-8.3,6.9-12.9c-0.3-2.4-1.1-4.8-2.3-7c-1.3-2.2-3.2-4.1-5.9-5.8
			c-2.7-1.7-6.2-2.9-10.7-3.6c-4.4-0.7-10.1-0.7-16.9,0.1c-6.6,0.8-12.2,1.8-16.6,2.9c-4.5,1.2-8,2.3-10.6,3.3
			c-3.1,1.4-5.4,2.5-7,3.4c0.5,4.4,1.6,8.5,3.3,12.3c1.7,3.8,4.2,6.9,7.6,9.3c3.4,2.5,7.8,4.2,13.1,5.2
			C285.6,1334.4,292.2,1334.4,300,1333.5z"/>
		<path class="st8" d="M465.5,1138.7c7.1-0.8,14.7-1.1,22.8-0.8c8.1,0.3,16.3,1.5,24.5,3.6c8.2,2.1,16.2,5.4,24.1,9.8
			c7.8,4.4,15,10.4,21.3,18c6.4,7.6,11.9,16.9,16.6,28c4.7,11.1,7.9,24.3,9.7,39.5c1.8,15.2,1.9,28.7,0.3,40.4
			c-1.6,11.7-4.5,22-8.6,30.8c-4.2,8.8-9.2,16.2-15.1,22.3c-5.9,6-12.3,11-19.3,15c-7,3.9-14.1,7-21.3,9c-7.2,2.1-14.1,3.5-20.7,4.3
			c-36.5,4.3-65.6-1.3-87.3-16.8c-21.7-15.6-34.6-40.6-38.7-75.1c-2.1-17.4-1.3-33.5,2.3-48.3c3.6-14.8,9.4-27.8,17.5-39
			c8.1-11.1,18.3-20.2,30.7-27.3C436.5,1144.9,450.3,1140.5,465.5,1138.7z M490.3,1303.8c8.1-1,14.3-3.3,18.7-7.1
			c4.4-3.7,7.6-8.4,9.5-13.8c2-5.4,2.9-11.5,2.9-18.2c-0.1-6.7-0.5-13.5-1.3-20.3c-0.8-6.9-2.5-13.5-5-19.9c-2.5-6.4-6-12-10.4-16.7
			c-4.4-4.7-9.7-8.3-16-10.8c-6.3-2.5-13.4-3.2-21.5-2.3c-4.4,0.5-8.4,2.4-12,5.5c-3.6,3.2-6.6,7.4-8.9,12.6
			c-2.4,5.3-3.9,11.3-4.7,18.3c-0.8,6.9-0.7,14.4,0.3,22.5c0.5,4.4,1.8,9.7,3.9,15.9c2.1,6.2,5.1,12,9,17.4
			c3.9,5.4,8.7,9.8,14.6,13.2C475.2,1303.6,482.2,1304.8,490.3,1303.8z"/>
		<path class="st8" d="M671.6,1114.2c7.1-0.8,14.7-1.1,22.8-0.8c8.1,0.3,16.3,1.5,24.5,3.6c8.2,2.1,16.2,5.4,24.1,9.8
			c7.8,4.4,15,10.4,21.3,18c6.4,7.6,11.9,16.9,16.6,28c4.7,11.1,7.9,24.3,9.7,39.5c1.8,15.2,1.9,28.7,0.3,40.4
			c-1.6,11.7-4.5,22-8.6,30.8c-4.2,8.8-9.2,16.2-15.1,22.3c-5.9,6-12.3,11-19.3,15c-7,3.9-14.1,7-21.3,9c-7.2,2.1-14.1,3.5-20.7,4.3
			c-36.5,4.3-65.6-1.3-87.3-16.8c-21.7-15.6-34.6-40.6-38.7-75.1c-2.1-17.4-1.3-33.5,2.3-48.3c3.6-14.8,9.4-27.8,17.5-39
			c8.1-11.1,18.3-20.2,30.7-27.3C642.6,1120.5,656.4,1116,671.6,1114.2z M696.4,1279.3c8.1-1,14.3-3.3,18.7-7.1
			c4.4-3.7,7.6-8.4,9.5-13.8c2-5.5,2.9-11.5,2.9-18.2c0-6.7-0.5-13.5-1.3-20.3c-0.8-6.9-2.5-13.5-5-19.9c-2.5-6.4-6-12-10.4-16.7
			c-4.4-4.7-9.7-8.3-16-10.8c-6.3-2.5-13.4-3.2-21.5-2.3c-4.4,0.5-8.4,2.4-12,5.5c-3.6,3.2-6.6,7.4-8.9,12.6
			c-2.4,5.3-3.9,11.3-4.7,18.3c-0.8,6.9-0.7,14.4,0.3,22.5c0.5,4.4,1.8,9.7,3.9,15.9c2.1,6.2,5.1,12,9,17.4
			c3.9,5.4,8.7,9.8,14.6,13.2C681.4,1279.1,688.3,1280.3,696.4,1279.3z"/>
		<path class="st8" d="M1060.5,1276.7l-83,31.8l-86.7-74.3l-10.4,9.8l14.8,64.9l-70.6,17.7l-48.4-210l69.4-27.2l26.2,116.9
			l27.4-95.3l82.3-37.7l-42.7,107.9L1060.5,1276.7z"/>
	</g>
</g>
<g class="st1">
	<g>
		<g class="st1">
			<path class="st9" d="M347.5,1492.7c15.5,0,30.2,2.7,44.2,8.1c14,5.4,26.1,12.2,36.4,20.6c10.3,8.4,18.5,17.6,24.5,27.7
				c6,10.1,9,20.1,9,30c0,21.9-5.1,41.2-15.1,57.7c-10.1,16.5-23.7,30.3-40.9,41.3c-17.2,11-37,19.2-59.3,24.8
				c-22.3,5.6-46,8.4-70.9,8.4c-15.9,0-32.1-1.5-48.7-4.5c-16.5-3-32-7.6-46.4-13.9c-14.4-6.2-26.9-14.3-37.4-24.2
				c-10.5-9.9-17.7-21.7-21.6-35.5c-1.3-4.7-3.1-12-5.5-21.9c-2.4-9.9-4.9-21-7.7-33.5c-2.8-12.5-5.8-26-9-40.6
				c-3.2-14.6-6.3-29.2-9.3-43.8c-7.3-33.9-15-70.9-23.2-110.9l65.1-70.3c38.7,0,73.3,3.7,103.8,11c30.5,7.3,56.3,17.1,77.3,29.3
				c21,12.2,37.2,26.1,48.3,41.6c11.2,15.5,16.8,31.4,16.8,47.7c0,7.3-1.6,14-4.8,20c-3.2,6-6.8,11.4-10.6,16.1
				C357.6,1483.1,352.7,1488,347.5,1492.7z M214.8,1499.2c9.4,0,18.3-1.2,26.4-3.5c8.2-2.4,15.1-5.5,20.9-9.3s10.3-8.1,13.5-12.6
				c3.2-4.5,4.8-8.9,4.8-13.2c0-7.7-3.2-15.2-9.7-22.6c-6.4-7.3-14.2-13.9-23.2-19.7c-9-5.8-18.6-10.5-28.7-14.2
				c-10.1-3.6-19-5.5-26.7-5.5L214.8,1499.2z M299.8,1623.6c13.7,0,25.5-2.9,35.1-8.7c9.7-5.8,14.5-12.8,14.5-20.9
				c0-4.3-0.9-8.5-2.6-12.6c-1.7-4.1-4.7-7.8-9-11.3c-4.3-3.4-10.2-6.2-17.7-8.4c-7.5-2.1-17.3-3.2-29.3-3.2
				c-11.6,0-21.4,0.5-29.3,1.6c-8,1.1-14.3,2.3-19,3.5c-5.6,1.7-9.9,3.2-12.9,4.5c0,7.7,1.1,15,3.2,21.9c2.1,6.9,5.9,12.8,11.3,17.7
				c5.4,4.9,12.6,8.8,21.6,11.6C274.7,1622.2,286.1,1623.6,299.8,1623.6z"/>
			<path class="st9" d="M664.7,1742.2c-2.2-7.7-4.7-16.8-7.7-27.1c-2.6-8.6-5.6-19-9-31.3c-3.4-12.2-7.3-25.9-11.6-40.9l-79.9,11
				c-3.4,11.2-6.8,21.3-10,30.3c-3.2,9-5.9,15.9-8.1,20.6H426.8c15.9-39.5,29.9-78.2,41.9-116c12-37.8,22-72.8,30-105.1
				c7.9-32.2,13.9-60.7,17.7-85.4c3.9-24.7,5.8-44.2,5.8-58.3l93.5-39.3c22.8,43,44.7,87.7,65.7,134.1c9,19.8,18.3,41,27.7,63.8
				c9.4,22.8,18.7,46.2,27.7,70.3c9,24.1,17.5,48.7,25.5,73.8c7.9,25.1,14.9,50.2,20.9,75.1L664.7,1742.2z M613.7,1573.3
				c-3.4-9-6.9-17.7-10.3-26.1c-3.4-8.4-6.9-16.6-10.3-24.8c-1.3,5.2-2.8,10.7-4.5,16.8c-1.3,5.2-2.8,11.2-4.5,18
				c-1.7,6.9-3.7,14.2-5.8,21.9L613.7,1573.3z"/>
			<path class="st9" d="M1055.3,1415.4l-128.9,26.4c0,9,0.5,19.4,1.6,31.3c1.1,11.8,2.6,24.4,4.5,37.7c1.9,13.3,4,27.1,6.1,41.3
				c2.1,14.2,4.5,27.9,7.1,41.3c5.6,31.4,12,63.8,19.3,97.3l-123.1,24.5c-7.3-25.8-13.6-53.3-19-82.5c-5.4-29.2-10-56.3-13.9-81.2
				c-4.7-29.2-8.8-57.8-12.2-85.7L684,1484.4l7.7-93.5l363.5-74.1V1415.4z"/>
		</g>
		<g class="st1">
			<path class="st9" d="M347.5,1492.7c15.5,0,30.2,2.7,44.2,8.1c14,5.4,26.1,12.2,36.4,20.6c10.3,8.4,18.5,17.6,24.5,27.7
				c6,10.1,9,20.1,9,30c0,21.9-5.1,41.2-15.1,57.7c-10.1,16.5-23.7,30.3-40.9,41.3c-17.2,11-37,19.2-59.3,24.8
				c-22.3,5.6-46,8.4-70.9,8.4c-15.9,0-32.1-1.5-48.7-4.5c-16.5-3-32-7.6-46.4-13.9c-14.4-6.2-26.9-14.3-37.4-24.2
				c-10.5-9.9-17.7-21.7-21.6-35.5c-1.3-4.7-3.1-12-5.5-21.9c-2.4-9.9-4.9-21-7.7-33.5c-2.8-12.5-5.8-26-9-40.6
				c-3.2-14.6-6.3-29.2-9.3-43.8c-7.3-33.9-15-70.9-23.2-110.9l65.1-70.3c38.7,0,73.3,3.7,103.8,11c30.5,7.3,56.3,17.1,77.3,29.3
				c21,12.2,37.2,26.1,48.3,41.6c11.2,15.5,16.8,31.4,16.8,47.7c0,7.3-1.6,14-4.8,20c-3.2,6-6.8,11.4-10.6,16.1
				C357.6,1483.1,352.7,1488,347.5,1492.7z M214.8,1499.2c9.4,0,18.3-1.2,26.4-3.5c8.2-2.4,15.1-5.5,20.9-9.3s10.3-8.1,13.5-12.6
				c3.2-4.5,4.8-8.9,4.8-13.2c0-7.7-3.2-15.2-9.7-22.6c-6.4-7.3-14.2-13.9-23.2-19.7c-9-5.8-18.6-10.5-28.7-14.2
				c-10.1-3.6-19-5.5-26.7-5.5L214.8,1499.2z M299.8,1623.6c13.7,0,25.5-2.9,35.1-8.7c9.7-5.8,14.5-12.8,14.5-20.9
				c0-4.3-0.9-8.5-2.6-12.6c-1.7-4.1-4.7-7.8-9-11.3c-4.3-3.4-10.2-6.2-17.7-8.4c-7.5-2.1-17.3-3.2-29.3-3.2
				c-11.6,0-21.4,0.5-29.3,1.6c-8,1.1-14.3,2.3-19,3.5c-5.6,1.7-9.9,3.2-12.9,4.5c0,7.7,1.1,15,3.2,21.9c2.1,6.9,5.9,12.8,11.3,17.7
				c5.4,4.9,12.6,8.8,21.6,11.6C274.7,1622.2,286.1,1623.6,299.8,1623.6z"/>
			<path class="st9" d="M664.7,1742.2c-2.2-7.7-4.7-16.8-7.7-27.1c-2.6-8.6-5.6-19-9-31.3c-3.4-12.2-7.3-25.9-11.6-40.9l-79.9,11
				c-3.4,11.2-6.8,21.3-10,30.3c-3.2,9-5.9,15.9-8.1,20.6H426.8c15.9-39.5,29.9-78.2,41.9-116c12-37.8,22-72.8,30-105.1
				c7.9-32.2,13.9-60.7,17.7-85.4c3.9-24.7,5.8-44.2,5.8-58.3l93.5-39.3c22.8,43,44.7,87.7,65.7,134.1c9,19.8,18.3,41,27.7,63.8
				c9.4,22.8,18.7,46.2,27.7,70.3c9,24.1,17.5,48.7,25.5,73.8c7.9,25.1,14.9,50.2,20.9,75.1L664.7,1742.2z M613.7,1573.3
				c-3.4-9-6.9-17.7-10.3-26.1c-3.4-8.4-6.9-16.6-10.3-24.8c-1.3,5.2-2.8,10.7-4.5,16.8c-1.3,5.2-2.8,11.2-4.5,18
				c-1.7,6.9-3.7,14.2-5.8,21.9L613.7,1573.3z"/>
			<path class="st9" d="M1055.3,1415.4l-128.9,26.4c0,9,0.5,19.4,1.6,31.3c1.1,11.8,2.6,24.4,4.5,37.7c1.9,13.3,4,27.1,6.1,41.3
				c2.1,14.2,4.5,27.9,7.1,41.3c5.6,31.4,12,63.8,19.3,97.3l-123.1,24.5c-7.3-25.8-13.6-53.3-19-82.5c-5.4-29.2-10-56.3-13.9-81.2
				c-4.7-29.2-8.8-57.8-12.2-85.7L684,1484.4l7.7-93.5l363.5-74.1V1415.4z"/>
		</g>
	</g>
</g>
<g class="st1">
	<g>
		<path class="st10" d="M294.9,1818.8c0.5,6.3,0.8,12.1,1,17.4c0.1,5.3,0.2,10,0.2,13.9c0,4.6-0.1,8.9-0.2,12.8l22.5,0.8l7.6,14.2
			l-38.4,0.3l-13-10.1c1.1-8,1.7-16.4,1.7-25.4c0-9-0.3-17.8-0.8-26.5c2.7,0.4,5.3,0.8,7.7,1.2c2.1,0.3,4.2,0.6,6.4,0.9
			C291.8,1818.6,293.6,1818.8,294.9,1818.8z"/>
		<path class="st10" d="M364.2,1866.1l-4.4,14l-6.2-0.9c-1.9-0.2-4-0.5-6.3-0.7c-2.4-0.2-4.7-0.4-7.1-0.6c-1.2-0.1-2.8-0.1-4.8-0.2
			c-2,0-3.9,0-5.8,0c-2.3,0.1-4.6,0.1-7,0c0.5-8.3,0.3-16.8-0.5-25.5c-0.9-8.7-2.8-17-5.9-25.1l14-8.7l35.3,8.8l-12.5,9.4l-15.4-2.1
			c0.2,0.7,0.4,1.4,0.6,2.4c0.4,1.6,0.8,4,1.3,7.3l18.8,1.2l-5.4,10.4l-12.6-0.8c0,1.3,0.1,2.6,0.1,4c0,1.4,0,2.8,0,4.4
			L364.2,1866.1z"/>
		<path class="st10" d="M411.2,1839.9l-19.5,2.7c-0.1,1.3-0.1,2.9-0.1,4.7c0,1.8,0.2,3.7,0.3,5.7c0.2,2,0.3,4.1,0.5,6.2
			c0.2,2.1,0.4,4.2,0.7,6.2c0.5,4.7,1.2,9.6,2,14.7l-18.6,2.5c-0.8-3.9-1.5-8.1-2.1-12.5c-0.5-4.4-1-8.5-1.3-12.2
			c-0.4-4.4-0.8-8.7-1-12.9l-17,1.7l2-13.9l54.9-7.7L411.2,1839.9z"/>
		<path class="st10" d="M468.5,1879.9c-0.1-2.2-0.1-4.7-0.2-7.5c-0.1-2.8-0.1-5.8-0.1-9l-14.2,0.3c0,3.3,0,6.8,0,10.7
			c0,3.9,0,7.3,0.1,10.4l-18.9,0.1c0-7.8,0.1-15.3,0.2-22.4c0.1-3,0.1-6.1,0.1-9.2c0-3.1,0.1-6.2,0.2-9.1c0.1-2.9,0.2-5.6,0.3-8.1
			c0.1-2.5,0.2-4.6,0.3-6.3l17.8-1.2c-0.1,1.9-0.1,3.9-0.1,6.3c0,2,0,4.4-0.1,7.1c0,2.8-0.1,5.8-0.1,9.1l14.5-0.2
			c0.1-3.7,0.2-7.3,0.3-11c0.1-3.7,0.3-7.2,0.7-10.7l18.8-1.3c-0.3,6.6-0.5,13.3-0.7,20.1c-0.1,2.9-0.2,6-0.2,9.2
			c0,3.2-0.1,6.5-0.1,9.9c0,3.3-0.1,6.7,0,10c0,3.3,0.1,6.6,0.1,9.7l-18.5,0.2C468.6,1884.8,468.5,1882.4,468.5,1879.9z"/>
		<path class="st10" d="M511.9,1831.7c-0.6,6.3-1,12.8-1.3,19.5c-0.1,2.8-0.2,5.8-0.3,9c-0.1,3.2-0.2,6.4-0.2,9.7
			c0,3.3,0,6.6,0.1,10c0.1,3.3,0.2,6.6,0.5,9.8l-18.3-0.7c-0.3-5.8-0.4-11.8-0.5-18.1c0-2.6,0-5.5,0-8.4c0-3,0.1-6.1,0.2-9.2
			s0.3-6.3,0.5-9.6c0.2-3.2,0.5-6.4,0.8-9.4L511.9,1831.7z"/>
		<path class="st10" d="M572.8,1852.5c0.7,5.6,1.1,11.1,1.3,16.5c0.1,5.4,0.1,10.7-0.3,16c-0.3,5.3-0.8,10.7-1.4,16.1l-19.6-5.9
			c0.4-2.3,0.7-4.4,1-6.4c0.3-2,0.5-3.9,0.6-5.7c0.1-1.9,0.2-3.8,0.1-5.7c0-2-0.1-4.1-0.2-6.4l-4.3,13.7l-12.8,1.5l-6.1-15.5
			c0.1,3.3,0.1,6.1,0,8.4c-0.1,2.3-0.3,4.2-0.5,5.7c-0.2,1.7-0.5,3.2-0.8,4.4l-16-1c0.7-5.2,1.2-10.7,1.6-16.4
			c0.3-4.9,0.5-10.3,0.5-16.4c0-6-0.4-12.1-1.1-18.2l14.1-6l15.3,36.8c0.8-3.2,1.7-6.6,2.6-10.4c0.7-3.2,1.5-7,2.2-11.3
			c0.8-4.3,1.4-8.9,2.1-13.7l18.8,2.2C571.1,1840.9,572.1,1846.8,572.8,1852.5z"/>
		<path class="st10" d="M606.6,1873.5c2,1.7,4,3.1,6.1,4.4c1.7,1.1,3.5,2.2,5.4,3.1c1.9,1,3.7,1.5,5.3,1.6c1.2,0.1,2.1-0.2,2.8-0.8
			c0.6-0.6,1-1.2,1-1.8c0-0.6-0.4-1.3-1.2-1.9c-0.9-0.6-2-1.3-3.5-2.1c-1.5-0.8-3.2-1.8-5.2-2.9c-2-1.1-4-2.5-6.2-4.2
			c-1.8-1.3-3.2-2.5-4.2-3.7c-1-1.2-1.8-2.4-2.3-3.6c-0.5-1.2-0.9-2.5-1-3.9c-0.1-1.4-0.1-2.8,0-4.4c0.1-2,0.7-3.9,1.7-5.9
			c1-1.9,2.5-3.6,4.3-5.1c1.9-1.5,4.1-2.6,6.8-3.5c2.7-0.8,5.7-1.1,9.1-0.9c3.1,0.2,6,0.9,8.7,2c2.6,1.1,4.9,2.3,6.9,3.5
			c2.3,1.5,4.4,3.1,6.2,4.9l-8,11.7c-1.7-1.1-3.4-2.2-5.1-3.1c-1.4-0.8-2.9-1.5-4.5-2.3c-1.6-0.7-3-1.1-4.2-1.2
			c-1.3-0.1-2.2,0.2-2.9,0.7c-0.6,0.6-1,1.1-1,1.7c-0.1,1.3,0.8,2.6,2.6,3.9c1.8,1.3,4.4,2.8,7.7,4.5c4.5,2.2,7.8,4.8,9.9,7.7
			c2.1,2.9,3.1,6.3,2.8,10.3c-0.2,2.9-0.8,5.3-2,7.3c-1.2,2-2.7,3.5-4.6,4.6c-1.9,1.1-4.2,1.9-6.8,2.3c-2.6,0.4-5.5,0.5-8.6,0.3
			c-2.8-0.2-5.5-0.7-8-1.5c-2.5-0.8-4.8-1.7-7-2.8c-2.1-1.1-4.1-2.2-5.8-3.4c-1.7-1.2-3.1-2.3-4.4-3.3L606.6,1873.5z"/>
		<path class="st10" d="M674.6,1842.3c1.9,0.1,3.8,0.4,5.9,0.9c2.1,0.5,4.1,1.1,6.1,2.1c2,0.9,3.9,2.1,5.7,3.6
			c1.8,1.5,3.3,3.4,4.6,5.6c1.3,2.2,2.2,4.9,2.9,7.9c0.7,3.1,0.9,6.6,0.6,10.6c-0.2,4-0.9,7.4-1.8,10.4c-1,2.9-2.2,5.4-3.7,7.5
			c-1.5,2.1-3.1,3.7-4.9,5c-1.8,1.3-3.7,2.2-5.6,2.9c-2,0.7-3.9,1.1-5.9,1.3c-1.9,0.2-3.8,0.2-5.5,0.1c-9.5-0.6-16.7-3.4-21.6-8.4
			c-4.8-5-7-12-6.4-21c0.3-4.5,1.2-8.6,2.8-12.3c1.6-3.6,3.7-6.7,6.3-9.2c2.6-2.5,5.6-4.3,9.1-5.6
			C666.9,1842.5,670.6,1842,674.6,1842.3z M673.2,1885.7c2.1,0.1,3.8-0.2,5.1-0.9s2.3-1.8,3.1-3.1c0.8-1.3,1.3-2.8,1.6-4.5
			c0.3-1.7,0.5-3.5,0.6-5.3c0.1-1.8,0-3.6-0.3-5.3c-0.3-1.8-1-3.3-1.9-4.7c-0.9-1.4-2.1-2.6-3.6-3.5c-1.5-0.9-3.3-1.5-5.4-1.6
			c-1.2-0.1-2.3,0.2-3.3,0.9c-1.1,0.6-2,1.6-2.9,2.8c-0.8,1.2-1.5,2.7-2.1,4.5c-0.5,1.7-0.9,3.7-1,5.8c-0.1,1.2,0,2.6,0.3,4.3
			c0.2,1.7,0.7,3.3,1.5,4.9c0.7,1.6,1.8,2.9,3.1,4.1C669.4,1884.9,671.1,1885.5,673.2,1885.7z"/>
		<path class="st10" d="M754.7,1904.9l-18.7-1.2l-16.5-21.7l-0.5,20.6l-17.8-1.1c0.3-7.1,0.4-14,0.5-20.5c0-2.8,0.1-5.6,0.1-8.6
			c0-3,0-5.8-0.1-8.6c-0.1-2.8-0.1-5.4-0.3-7.8c-0.1-2.5-0.3-4.6-0.5-6.4l15.7-1.7l20.7,31.2c-0.2-3.4-0.4-6.9-0.6-10.5
			c-0.2-3.1-0.4-6.6-0.7-10.4c-0.3-3.8-0.6-7.6-0.9-11.4l19.9-1.6c0.3,3.2,0.4,6.5,0.5,9.9c0.1,3.4,0.2,6.8,0.2,10.2
			c0,3.4,0,6.7,0,10c0,3.3-0.1,6.4-0.2,9.3C755.4,1891.4,755.1,1898.2,754.7,1904.9z"/>
		<path class="st10" d="M787.9,1912.4c-0.2-1.2-0.5-2.5-0.9-4.1c-0.3-1.3-0.7-2.9-1.1-4.7s-0.8-3.9-1.3-6.2l-12,0.9
			c-0.6,1.6-1.2,3.1-1.8,4.4c-0.6,1.3-1,2.3-1.4,3l-16.6-1c2.7-5.7,5.2-11.4,7.3-16.9c2.1-5.5,4-10.6,5.4-15.4
			c1.5-4.7,2.6-8.9,3.4-12.6c0.8-3.6,1.3-6.5,1.4-8.6l14.3-5c3,6.6,5.8,13.5,8.5,20.6c1.2,3,2.3,6.3,3.5,9.8
			c1.2,3.5,2.4,7.1,3.5,10.7c1.1,3.7,2.2,7.4,3.1,11.2c0.9,3.8,1.8,7.6,2.4,11.4L787.9,1912.4z M781.9,1886.8
			c-0.4-1.4-0.9-2.7-1.3-4c-0.4-1.3-0.9-2.5-1.3-3.8c-0.2,0.8-0.5,1.6-0.8,2.5c-0.2,0.8-0.5,1.6-0.8,2.6c-0.3,1-0.7,2.1-1.1,3.2
			L781.9,1886.8z"/>
		<path class="st10" d="M843.4,1911.4l-16.8-19.6c0.2,1.6,0.3,3.2,0.4,4.8c0.1,1.6,0.2,3.1,0.2,4.5c0.1,1.6,0.1,3.1,0.1,4.5
			l-19.4,3.8c-0.3-4.8-0.7-9.7-1.1-14.7c-0.4-5-0.8-10-1.4-14.8c-0.6-4.8-1.3-9.5-2.2-13.9c-0.9-4.4-2-8.5-3.4-12.1l15.8-8
			c2,1.2,4.3,2.4,6.9,3.6c2.6,1.2,5.2,2.4,7.8,3.6c2.6,1.3,5.2,2.6,7.7,4c2.5,1.4,4.7,3,6.5,4.8c1.9,1.8,3.4,3.7,4.4,6
			c1.1,2.2,1.5,4.7,1.4,7.5c-0.2,2.9-0.9,5.3-2.1,7c-1.2,1.7-2.8,3.2-4.8,4.3l22,24.9L843.4,1911.4z M834.2,1875.4
			c0.1-1.9-0.5-3.6-1.9-4.9c-1.4-1.4-2.9-2.5-4.6-3.5c-2-1.1-4.2-2-6.7-2.7c0.4,1.2,0.7,2.3,1.1,3.5c0.3,1.1,0.7,2.3,1,3.5
			c0.3,1.2,0.6,2.5,0.9,3.9c0.3,1.4,0.6,2.9,0.9,4.6c1,0.1,1.9,0.2,3,0.2c1,0,2-0.1,2.9-0.4c0.9-0.3,1.7-0.7,2.3-1.4
			C833.8,1877.6,834.1,1876.6,834.2,1875.4z"/>
		<path class="st10" d="M280.3,1892.8c0.3,2.5,0.6,5,0.8,7.5c0.3,2.6,0.5,5.1,0.6,7.6c0.2,2.5,0.3,4.8,0.4,7.1
			c0.1,2.2,0.1,4.2,0,5.9c-0.2,3.4-1,6.3-2.3,8.6c-1.3,2.3-3,4.2-5.1,5.6c-2.1,1.4-4.5,2.3-7.2,2.9c-2.7,0.5-5.7,0.7-8.8,0.5
			c-3.4-0.2-6.5-0.9-9.4-2c-2.9-1.1-5.4-2.6-7.5-4.4c-2.1-1.8-3.9-4-5.2-6.5c-1.4-2.5-2.3-5.3-2.7-8.3l18.7-1.9
			c0.2,1.6,0.7,3,1.3,4.5c0.6,1.4,1.5,2.7,2.4,3.8c1,1.1,2,2,3.2,2.6c1.1,0.7,2.4,1,3.6,1.1s1.9-1.2,1.8-3.8
			c-0.1-2.6-0.4-6.3-0.8-11.2c-4.4,1.5-8.4,2.1-12,1.9c-3.6-0.2-6.8-1.4-9.7-3.7c-2.8-2.3-5.2-5.9-7.1-10.7c-2-4.8-3.4-11.1-4.5-19
			l19.5-3.6c0.7,4.8,1.5,9.1,2.4,12.9c0.3,1.6,0.8,3.2,1.2,4.8c0.5,1.5,1,2.9,1.6,4.2c0.6,1.2,1.2,2.2,1.9,3
			c0.7,0.8,1.4,1.2,2.2,1.2c0.8,0,1.4-0.3,1.8-0.9c0.4-0.7,0.7-1.6,0.8-2.7c0.1-1.1,0.2-2.4,0.1-3.9c-0.1-1.5-0.2-3-0.3-4.5
			c-0.5-3.6-1.2-7.7-2.2-12.4l18.1-3.9C278.9,1881.2,279.6,1887.1,280.3,1892.8z"/>
		<path class="st10" d="M310.7,1882c1.9,0.1,3.8,0.4,5.9,0.9c2.1,0.5,4.1,1.1,6.1,2.1c2,0.9,3.9,2.1,5.7,3.6
			c1.8,1.5,3.3,3.4,4.6,5.6c1.3,2.2,2.2,4.9,2.9,7.9c0.7,3.1,0.9,6.6,0.6,10.6c-0.2,4-0.9,7.4-1.8,10.4c-1,2.9-2.2,5.4-3.7,7.5
			c-1.5,2.1-3.1,3.7-4.9,5c-1.8,1.3-3.7,2.2-5.6,2.9c-2,0.7-3.9,1.1-5.9,1.3s-3.8,0.2-5.5,0.1c-9.5-0.6-16.7-3.4-21.6-8.4
			c-4.8-5-7-12-6.4-21c0.3-4.5,1.2-8.6,2.8-12.3c1.6-3.6,3.7-6.7,6.3-9.2c2.6-2.5,5.6-4.3,9.1-5.6
			C303,1882.2,306.7,1881.8,310.7,1882z M309.3,1925.4c2.1,0.1,3.8-0.2,5.1-0.9c1.3-0.8,2.3-1.8,3.1-3.1c0.8-1.3,1.3-2.8,1.6-4.5
			c0.3-1.7,0.5-3.5,0.6-5.3c0.1-1.8,0-3.6-0.3-5.3c-0.3-1.8-1-3.3-1.9-4.7c-0.9-1.4-2.1-2.6-3.6-3.5c-1.5-0.9-3.3-1.5-5.4-1.6
			c-1.2-0.1-2.3,0.2-3.3,0.9c-1.1,0.6-2,1.6-2.9,2.8c-0.8,1.2-1.5,2.7-2.1,4.5c-0.5,1.7-0.9,3.7-1,5.8c-0.1,1.2,0,2.6,0.3,4.3
			c0.2,1.7,0.7,3.3,1.5,4.9c0.7,1.6,1.8,2.9,3.1,4.1C305.5,1924.6,307.2,1925.3,309.3,1925.4z"/>
		<path class="st10" d="M378.4,1944.8l-16.8-19.6c0.2,1.6,0.3,3.2,0.4,4.8c0.1,1.6,0.2,3.1,0.2,4.5c0.1,1.6,0.1,3.1,0.1,4.5
			l-19.4,3.8c-0.3-4.8-0.7-9.7-1.1-14.7c-0.4-5-0.8-10-1.4-14.8c-0.6-4.8-1.3-9.4-2.2-13.9c-0.9-4.4-2-8.5-3.4-12.1l15.8-8
			c2,1.2,4.3,2.4,6.9,3.6c2.6,1.2,5.2,2.4,7.8,3.6c2.6,1.3,5.2,2.6,7.7,4c2.5,1.4,4.7,3,6.5,4.8c1.9,1.8,3.4,3.7,4.4,6
			c1.1,2.2,1.5,4.7,1.4,7.5c-0.2,2.9-0.9,5.3-2.1,7c-1.2,1.7-2.8,3.2-4.8,4.3l22,24.9L378.4,1944.8z M369.2,1908.8
			c0.1-1.9-0.5-3.6-1.9-4.9c-1.4-1.4-2.9-2.5-4.6-3.5c-2-1.1-4.2-2-6.7-2.7c0.4,1.2,0.7,2.3,1.1,3.5c0.3,1.1,0.7,2.3,1,3.5
			c0.3,1.2,0.6,2.5,0.9,3.9c0.3,1.4,0.6,2.9,0.9,4.6c1,0.1,1.9,0.2,3,0.2c1,0,2-0.1,2.9-0.4c0.9-0.3,1.7-0.7,2.3-1.4
			C368.8,1911,369.1,1910,369.2,1908.8z"/>
		<path class="st10" d="M458.1,1917c2.3,0.1,4.5,0.7,6.5,1.6c2,0.9,3.8,2.1,5.2,3.4s2.6,2.8,3.4,4.4c0.8,1.6,1.2,3.1,1.1,4.6
			c-0.2,3.3-1.1,6.1-2.8,8.5c-1.7,2.4-3.8,4.3-6.5,5.8c-2.7,1.5-5.7,2.5-9.1,3.1c-3.4,0.6-6.9,0.8-10.6,0.6
			c-2.4-0.1-4.8-0.5-7.2-1.1c-2.4-0.6-4.7-1.4-6.8-2.5c-2.1-1.1-3.9-2.4-5.3-4c-1.5-1.6-2.4-3.4-2.9-5.5c-0.1-0.7-0.4-1.8-0.6-3.3
			c-0.3-1.5-0.5-3.2-0.8-5.1c-0.3-1.9-0.6-3.9-1-6.1c-0.3-2.2-0.7-4.4-1-6.6c-0.8-5.1-1.6-10.7-2.4-16.7l10.4-9.9
			c5.8,0.4,10.9,1.2,15.4,2.6c4.5,1.4,8.2,3.1,11.3,5.1c3,2,5.3,4.2,6.8,6.6c1.5,2.4,2.2,4.8,2.1,7.3c-0.1,1.1-0.4,2.1-0.9,2.9
			c-0.5,0.9-1.1,1.6-1.7,2.3C459.7,1915.6,458.9,1916.3,458.1,1917z M438.2,1916.7c1.4,0.1,2.7,0,4-0.3c1.2-0.3,2.3-0.7,3.2-1.2
			c0.9-0.5,1.6-1.1,2.1-1.7c0.5-0.6,0.8-1.3,0.8-1.9c0.1-1.2-0.3-2.3-1.2-3.5c-0.9-1.1-2-2.2-3.3-3.1c-1.3-0.9-2.7-1.7-4.1-2.4
			c-1.5-0.6-2.8-1-3.9-1.1L438.2,1916.7z M449.7,1936c2,0.1,3.8-0.2,5.3-1c1.5-0.8,2.3-1.8,2.4-3c0-0.6-0.1-1.3-0.3-1.9
			c-0.2-0.6-0.6-1.2-1.2-1.8c-0.6-0.6-1.5-1-2.6-1.4c-1.1-0.4-2.5-0.6-4.3-0.8c-1.7-0.1-3.2-0.1-4.4,0c-1.2,0.1-2.1,0.2-2.9,0.4
			c-0.8,0.2-1.5,0.4-2,0.6c-0.1,1.2,0,2.3,0.3,3.3c0.3,1,0.8,2,1.5,2.7c0.8,0.8,1.8,1.4,3.1,1.9C446,1935.6,447.7,1935.9,449.7,1936
			z"/>
		<path class="st10" d="M501.2,1893.9c1.9,0.1,3.8,0.4,5.9,0.9c2.1,0.5,4.1,1.1,6.1,2.1c2,0.9,3.9,2.1,5.7,3.6
			c1.8,1.5,3.3,3.4,4.6,5.6c1.3,2.2,2.2,4.9,2.9,7.9c0.7,3.1,0.9,6.6,0.6,10.6c-0.2,4-0.9,7.4-1.8,10.4c-1,2.9-2.2,5.4-3.7,7.5
			c-1.5,2.1-3.1,3.7-4.9,5c-1.8,1.3-3.7,2.2-5.6,2.9c-2,0.7-3.9,1.1-5.9,1.3c-1.9,0.2-3.8,0.2-5.5,0.1c-9.5-0.6-16.7-3.4-21.6-8.4
			c-4.8-5-7-12-6.4-21c0.3-4.5,1.2-8.6,2.8-12.3c1.6-3.6,3.7-6.7,6.3-9.2c2.6-2.5,5.6-4.3,9.1-5.6
			C493.5,1894.2,497.2,1893.7,501.2,1893.9z M499.8,1937.3c2.1,0.1,3.8-0.2,5.1-0.9c1.3-0.8,2.3-1.8,3.1-3.1
			c0.8-1.3,1.3-2.8,1.6-4.5c0.3-1.7,0.5-3.5,0.6-5.3c0.1-1.8,0-3.6-0.3-5.3c-0.3-1.8-1-3.3-1.9-4.7c-0.9-1.4-2.1-2.6-3.6-3.5
			c-1.5-0.9-3.3-1.5-5.4-1.6c-1.2-0.1-2.3,0.2-3.3,0.9c-1.1,0.6-2,1.6-2.9,2.8c-0.9,1.2-1.5,2.7-2.1,4.5c-0.5,1.7-0.9,3.7-1,5.8
			c-0.1,1.2,0,2.6,0.3,4.3c0.2,1.7,0.7,3.3,1.5,4.9c0.7,1.6,1.8,2.9,3.1,4.1C496,1936.6,497.7,1937.2,499.8,1937.3z"/>
		<path class="st10" d="M555.1,1897.3c1.9,0.1,3.8,0.4,5.9,0.9c2.1,0.5,4.1,1.1,6.1,2.1c2,0.9,3.9,2.1,5.7,3.6
			c1.8,1.5,3.3,3.4,4.6,5.6c1.3,2.2,2.2,4.9,2.9,7.9c0.7,3.1,0.9,6.6,0.6,10.6c-0.2,4-0.8,7.4-1.8,10.4c-1,2.9-2.2,5.4-3.7,7.5
			c-1.5,2.1-3.1,3.7-4.9,5c-1.8,1.3-3.7,2.2-5.6,2.9c-2,0.7-3.9,1.1-5.9,1.3c-1.9,0.2-3.8,0.2-5.5,0.1c-9.5-0.6-16.7-3.4-21.6-8.4
			c-4.8-5-7-12-6.4-21c0.3-4.5,1.2-8.6,2.8-12.3c1.6-3.6,3.7-6.7,6.3-9.2c2.6-2.5,5.6-4.3,9.1-5.6
			C547.4,1897.6,551.1,1897.1,555.1,1897.3z M553.7,1940.7c2.1,0.1,3.8-0.2,5.1-0.9c1.3-0.8,2.3-1.8,3.1-3.1
			c0.8-1.3,1.3-2.8,1.6-4.5s0.5-3.5,0.6-5.3c0.1-1.8,0-3.6-0.3-5.3c-0.3-1.8-1-3.3-1.9-4.7c-0.9-1.4-2.1-2.6-3.6-3.5
			c-1.5-0.9-3.3-1.5-5.4-1.6c-1.2-0.1-2.3,0.2-3.3,0.9c-1.1,0.6-2,1.6-2.9,2.8c-0.8,1.2-1.5,2.7-2.1,4.5c-0.5,1.7-0.9,3.7-1,5.8
			c-0.1,1.2,0,2.6,0.3,4.3c0.2,1.7,0.7,3.3,1.5,4.9c0.7,1.6,1.8,2.9,3.1,4.1C549.9,1940,551.6,1940.6,553.7,1940.7z"/>
		<path class="st10" d="M647,1957.1l-22.7,4.3l-18.7-23.1l-3.1,2l0.7,17.3l-18.9,1.2l-2.6-56l19-3.7l1.2,31.1l11.5-23.1l22.8-5.8
			l-16,25.6L647,1957.1z"/>
		<path class="st10" d="M641.8,1938.2c2,1.7,4,3.1,6.1,4.4c1.7,1.1,3.5,2.2,5.4,3.1c1.9,1,3.7,1.5,5.3,1.6c1.2,0.1,2.1-0.2,2.8-0.8
			c0.6-0.6,1-1.2,1-1.8c0-0.6-0.4-1.3-1.2-1.9c-0.9-0.6-2-1.3-3.5-2.2c-1.5-0.8-3.2-1.8-5.2-2.9c-2-1.1-4-2.5-6.1-4.2
			c-1.8-1.3-3.2-2.5-4.2-3.7c-1-1.2-1.8-2.4-2.3-3.6c-0.5-1.2-0.9-2.5-1-3.9c-0.1-1.4-0.1-2.8,0-4.4c0.1-2,0.7-3.9,1.7-5.9
			c1-1.9,2.5-3.6,4.3-5.1c1.9-1.5,4.1-2.6,6.8-3.5c2.7-0.8,5.7-1.1,9.1-0.9c3.1,0.2,6,0.9,8.7,2c2.6,1.1,4.9,2.3,6.9,3.5
			c2.3,1.5,4.4,3.1,6.2,4.9l-8,11.7c-1.7-1.1-3.4-2.2-5.1-3.1c-1.4-0.8-2.9-1.5-4.5-2.3c-1.6-0.7-3-1.1-4.2-1.2
			c-1.3-0.1-2.2,0.2-2.9,0.7c-0.6,0.6-1,1.1-1,1.7c-0.1,1.3,0.8,2.6,2.6,3.9c1.8,1.3,4.4,2.8,7.7,4.5c4.5,2.2,7.8,4.8,9.9,7.7
			c2.1,2.9,3.1,6.3,2.8,10.3c-0.2,2.9-0.8,5.3-2,7.3c-1.2,2-2.7,3.5-4.6,4.6c-1.9,1.1-4.2,1.9-6.8,2.3s-5.5,0.5-8.6,0.3
			c-2.8-0.2-5.5-0.7-8-1.5c-2.5-0.8-4.8-1.7-7-2.8c-2.1-1.1-4.1-2.2-5.8-3.4c-1.7-1.2-3.1-2.3-4.4-3.3L641.8,1938.2z"/>
		<path class="st10" d="M715.9,1957.9c-0.1-2.2-0.1-4.7-0.2-7.5c-0.1-2.8-0.1-5.8-0.1-9l-14.2,0.3c0,3.3,0,6.8,0,10.7
			c0,3.9,0,7.3,0.1,10.4l-18.9,0.1c0-7.8,0.1-15.3,0.2-22.4c0.1-3,0.1-6.1,0.1-9.2c0-3.1,0.1-6.2,0.2-9.1c0.1-2.9,0.2-5.6,0.3-8.1
			c0.1-2.5,0.2-4.6,0.3-6.3l17.8-1.2c-0.1,1.9-0.1,3.9-0.1,6.3c0,2,0,4.4-0.1,7.1c0,2.8-0.1,5.8-0.1,9.1l14.5-0.2
			c0.1-3.7,0.2-7.3,0.3-11c0.1-3.7,0.3-7.2,0.7-10.7l18.8-1.3c-0.3,6.6-0.5,13.3-0.7,20.1c-0.1,2.9-0.2,6-0.2,9.2
			c0,3.2-0.1,6.5-0.1,9.9c0,3.3-0.1,6.7,0,10c0,3.3,0.1,6.6,0.1,9.7L716,1965C716,1962.9,716,1960.5,715.9,1957.9z"/>
		<path class="st10" d="M783.7,1954.9l-4.4,14l-6.2-0.9c-1.9-0.2-4-0.5-6.3-0.7c-2.4-0.2-4.7-0.4-7.1-0.6c-1.2-0.1-2.8-0.1-4.8-0.2
			c-2,0-3.9,0-5.8,0c-2.3,0.1-4.6,0.1-7,0c0.5-8.3,0.3-16.8-0.5-25.5c-0.9-8.7-2.8-17-5.9-25.1l14-8.7l35.3,8.8l-12.5,9.4l-15.4-2.1
			c0.2,0.7,0.4,1.4,0.6,2.4c0.4,1.6,0.8,4,1.3,7.3l18.8,1.2l-5.4,10.4l-12.6-0.8c0,1.3,0.1,2.6,0.1,4c0,1.4,0,2.8,0,4.4
			L783.7,1954.9z"/>
		<path class="st10" d="M803.8,1913.3c0.5,6.3,0.8,12.1,1,17.4c0.1,5.3,0.2,10,0.2,13.9c0,4.6-0.1,8.9-0.2,12.8l22.5,0.8l7.6,14.2
			l-38.4,0.3l-13-10.1c1.1-8,1.7-16.4,1.7-25.4c0-9-0.3-17.8-0.8-26.5c2.7,0.4,5.3,0.8,7.7,1.2c2.1,0.3,4.2,0.6,6.4,0.9
			C800.7,1913,802.5,1913.2,803.8,1913.3z"/>
		<path class="st10" d="M847.2,1931.6c0.1,0.8,0.3,1.9,0.4,3.1c0.1,1.2,0.3,2.5,0.6,4l19.4,1.2l-5.4,10.4l-13.3-0.8
			c0.2,3.2,0.3,6.8,0.3,10.6c0,3.8-0.1,7.9-0.4,12.1c-1.2-0.1-2.9-0.1-4.9-0.1c-2.1,0-4.1,0-6.2,0c-2.4,0-4.9,0.1-7.5,0.1
			c0.3-4.2,0.4-8.4,0.4-12.7c0-4.3-0.2-8.5-0.6-12.8c-0.4-4.3-1-8.5-1.9-12.7c-0.9-4.2-2.1-8.3-3.6-12.3l14.8-8.6l35.3,8.8
			l-12.5,9.4l-15.4-2.1C846.9,1929.8,847,1930.7,847.2,1931.6z"/>
		<path class="st10" d="M878.3,1957.5c0.9,0.1,1.9,0.3,3,0.7c1.1,0.4,2.1,1,3,1.8c0.9,0.8,1.7,1.8,2.2,3.1c0.6,1.3,0.8,2.8,0.7,4.5
			c-0.2,2.8-1.2,5-3.1,6.4c-1.9,1.5-4,2.1-6.3,2c-3-0.2-5.3-1.1-7-2.7c-1.6-1.6-2.4-3.8-2.2-6.5c0.1-1.3,0.4-2.5,0.9-3.7
			c0.5-1.2,1.2-2.2,2.1-3c0.9-0.8,1.8-1.5,3-2C875.7,1957.6,877,1957.4,878.3,1957.5z"/>
		<path class="st10" d="M257.4,1957.8c0.7,5.6,1.1,11.1,1.3,16.5c0.1,5.4,0.1,10.7-0.3,16c-0.3,5.3-0.8,10.7-1.4,16.1l-19.6-5.9
			c0.4-2.3,0.7-4.4,1-6.4c0.3-2,0.5-3.9,0.6-5.8c0.1-1.9,0.2-3.8,0.1-5.7c0-2-0.1-4.1-0.2-6.4l-4.3,13.7l-12.8,1.5l-6.1-15.5
			c0.1,3.3,0.1,6.1,0,8.4c-0.1,2.3-0.3,4.2-0.5,5.7c-0.2,1.7-0.5,3.2-0.8,4.4l-16-1c0.7-5.2,1.2-10.7,1.6-16.4
			c0.3-4.9,0.5-10.3,0.5-16.4c0-6-0.4-12.1-1.1-18.2l14.1-6l15.3,36.8c0.8-3.2,1.7-6.6,2.6-10.4c0.7-3.2,1.5-7,2.2-11.3
			c0.8-4.3,1.4-8.9,2.1-13.7l18.8,2.2C255.7,1946.3,256.7,1952.2,257.4,1957.8z"/>
		<path class="st10" d="M290.1,2006.3c-0.2-1.2-0.5-2.5-0.9-4.1c-0.3-1.3-0.7-2.9-1.1-4.7c-0.4-1.9-0.8-3.9-1.3-6.2l-12,0.9
			c-0.6,1.6-1.2,3.1-1.8,4.4c-0.6,1.3-1,2.3-1.4,3l-16.6-1c2.7-5.7,5.2-11.4,7.3-16.9c2.1-5.5,4-10.6,5.4-15.4
			c1.5-4.7,2.6-8.9,3.4-12.6c0.8-3.6,1.3-6.5,1.4-8.6l14.3-5c3,6.6,5.8,13.5,8.5,20.6c1.2,3,2.3,6.3,3.5,9.8
			c1.2,3.5,2.4,7.1,3.5,10.7c1.1,3.7,2.2,7.4,3.1,11.2c0.9,3.8,1.8,7.6,2.4,11.4L290.1,2006.3z M284.1,1980.7
			c-0.4-1.4-0.9-2.7-1.3-4c-0.4-1.3-0.9-2.5-1.3-3.8c-0.2,0.8-0.5,1.6-0.8,2.5c-0.2,0.8-0.5,1.6-0.8,2.6c-0.3,1-0.7,2.1-1.1,3.2
			L284.1,1980.7z"/>
		<path class="st10" d="M345.6,2005.3l-16.8-19.6c0.2,1.6,0.3,3.2,0.4,4.8c0.1,1.6,0.2,3.1,0.2,4.5c0.1,1.6,0.1,3.1,0.1,4.5
			l-19.4,3.8c-0.3-4.8-0.7-9.7-1.1-14.7c-0.4-5-0.8-10-1.4-14.8c-0.6-4.8-1.3-9.4-2.2-13.9c-0.9-4.4-2-8.5-3.4-12.1l15.8-8
			c2,1.2,4.3,2.4,6.9,3.6c2.6,1.2,5.2,2.4,7.8,3.6c2.6,1.3,5.2,2.6,7.7,4c2.5,1.4,4.7,3,6.5,4.8c1.9,1.8,3.4,3.7,4.4,6
			c1.1,2.2,1.5,4.7,1.4,7.5c-0.2,2.9-0.9,5.3-2.1,7c-1.2,1.7-2.8,3.2-4.8,4.3l22,24.9L345.6,2005.3z M336.4,1969.3
			c0.1-1.9-0.5-3.6-1.9-4.9c-1.4-1.4-2.9-2.5-4.6-3.5c-2-1.1-4.2-2-6.7-2.7c0.4,1.2,0.7,2.3,1.1,3.5c0.3,1.1,0.7,2.3,1,3.5
			c0.3,1.2,0.6,2.5,0.9,3.9c0.3,1.4,0.6,2.9,0.9,4.6c1,0.1,1.9,0.2,3,0.2c1,0,2-0.1,2.9-0.4c0.9-0.3,1.7-0.7,2.3-1.4
			C335.9,1971.5,336.3,1970.5,336.4,1969.3z"/>
		<path class="st10" d="M376.7,1955.3c0.7,2.3,1.3,4.6,1.8,6.8c0.6,2.2,1.2,4.6,1.8,7.1c0.6,2.6,1.4,5.8,2.3,9.6
			c1-3.3,2.1-6.6,3.2-9.8c0.9-2.8,1.9-5.7,3-8.7c1.1-3,2.1-5.8,3.1-8.1l16.1-0.6c-2.2,4.7-4.3,9.6-6.3,14.6c-2,5-3.8,9.9-5.3,14.6
			c-1.6,4.7-2.8,9.1-3.9,13.3c-1,4.1-1.7,7.6-2.1,10.6l-15.9,3.3c-0.3-1.7-0.9-3.9-1.7-6.5c-0.8-2.7-1.7-5.6-2.7-8.8
			c-1-3.2-2.2-6.7-3.5-10.4c-1.3-3.7-2.6-7.3-3.9-11c-1.3-3.7-2.7-7.2-4-10.8c-1.3-3.5-2.5-6.8-3.6-9.7l19.1-3.9
			C375.2,1950.1,376.1,1953,376.7,1955.3z"/>
		<path class="st10" d="M449.9,1996.6l-4.4,14l-6.2-0.9c-1.9-0.2-4-0.5-6.3-0.7c-2.4-0.2-4.7-0.4-7.1-0.6c-1.2-0.1-2.8-0.1-4.8-0.2
			c-2,0-3.9,0-5.8,0c-2.3,0.1-4.6,0.1-7,0c0.5-8.3,0.3-16.8-0.5-25.5c-0.9-8.7-2.8-17-5.9-25.1l14-8.7l35.3,8.8l-12.5,9.4l-15.4-2.1
			c0.2,0.7,0.4,1.4,0.6,2.4c0.4,1.6,0.8,4,1.3,7.3l18.8,1.2l-5.4,10.4l-12.6-0.8c0,1.3,0.1,2.6,0.1,4c0,1.4,0,2.8,0,4.4
			L449.9,1996.6z"/>
		<path class="st10" d="M470.1,1954.9c0.5,6.3,0.8,12.1,1,17.4c0.1,5.3,0.2,10,0.2,13.9c0,4.6-0.1,8.9-0.2,12.8l22.5,0.8l7.6,14.2
			l-38.4,0.3l-13-10.1c1.1-8,1.7-16.4,1.7-25.4s-0.3-17.8-0.8-26.5c2.7,0.4,5.3,0.8,7.7,1.2c2.1,0.3,4.2,0.6,6.4,0.9
			C467,1954.7,468.7,1954.8,470.1,1954.9z"/>
		<path class="st10" d="M514.1,1957.7c0.5,6.3,0.8,12.1,1,17.4c0.1,5.3,0.2,10,0.2,13.9c0,4.6-0.1,8.9-0.2,12.8l22.5,0.8l7.6,14.2
			l-38.4,0.3l-13-10.1c1.1-8,1.7-16.4,1.7-25.4c0-9-0.3-17.8-0.8-26.5c2.7,0.4,5.3,0.8,7.7,1.2c2.1,0.3,4.2,0.6,6.4,0.9
			C511,1957.4,512.7,1957.6,514.1,1957.7z"/>
		<path class="st10" d="M565.3,1960.5c1.9,0.1,3.8,0.4,5.9,0.9c2.1,0.5,4.1,1.1,6.1,2.1c2,0.9,3.9,2.1,5.7,3.6
			c1.8,1.5,3.3,3.4,4.6,5.6c1.3,2.2,2.2,4.9,2.9,7.9c0.7,3.1,0.9,6.6,0.6,10.6c-0.2,4-0.9,7.4-1.8,10.4c-1,2.9-2.2,5.4-3.7,7.5
			c-1.5,2.1-3.1,3.7-4.9,5c-1.8,1.3-3.7,2.2-5.6,2.9c-2,0.7-3.9,1.1-5.9,1.3c-1.9,0.2-3.8,0.2-5.5,0.1c-9.5-0.6-16.7-3.4-21.6-8.4
			c-4.8-5-7-12-6.4-21c0.3-4.5,1.2-8.6,2.8-12.3c1.6-3.6,3.7-6.7,6.3-9.2c2.6-2.5,5.6-4.3,9.1-5.6
			C557.6,1960.8,561.3,1960.3,565.3,1960.5z M563.9,2003.9c2.1,0.1,3.8-0.2,5.1-0.9c1.3-0.8,2.3-1.8,3.1-3.1
			c0.8-1.3,1.3-2.8,1.6-4.5c0.3-1.7,0.5-3.5,0.6-5.3c0.1-1.8,0-3.6-0.3-5.3c-0.3-1.8-1-3.3-1.9-4.7c-0.9-1.4-2.1-2.6-3.6-3.5
			c-1.5-0.9-3.3-1.5-5.4-1.6c-1.2-0.1-2.3,0.2-3.3,0.9c-1.1,0.6-2,1.6-2.9,2.8c-0.8,1.2-1.5,2.7-2.1,4.5c-0.5,1.7-0.9,3.7-1,5.8
			c-0.1,1.2,0,2.6,0.3,4.3c0.2,1.7,0.7,3.3,1.5,4.9c0.7,1.6,1.8,2.9,3.1,4.1C560.1,2003.1,561.8,2003.8,563.9,2003.9z"/>
		<path class="st10" d="M644.9,1961.5c0.7,2.9,1.2,6.1,1.6,9.6c0.3,3,0.6,6.4,0.7,10.3c0.1,3.9,0,8.1-0.4,12.5
			c-0.4,4-1.1,7.9-2.2,11.6c-1.1,3.7-2.7,6.9-4.7,9.6c-2,2.7-4.6,4.8-7.8,6.3c-3.2,1.4-7.1,2-11.7,1.5c-4.7-0.5-8.7-1.7-12-3.5
			c-3.3-1.9-6.1-4.3-8.2-7.2c-2.2-2.9-3.8-6.3-5.1-10s-2.1-7.6-2.6-11.6c-0.5-4-0.7-8.2-0.6-12.4c0.1-4.2,0.3-8.3,0.7-12.3l20.3,0.6
			c-0.5,8.2-0.6,14.9-0.2,20c0.4,5.2,0.9,9.2,1.7,12.2c0.8,2.9,1.7,5,2.8,6.1c1.1,1.1,2.1,1.7,3,1.8c1.9,0.2,3.4-0.9,4.3-3.4
			c1-2.4,1.7-6.2,2.2-11.1c0.3-3.1,0.4-6.3,0.1-9.5c-0.2-3.2-0.5-6.2-0.9-8.8c-0.4-3.1-1-6.1-1.6-9L644.9,1961.5z"/>
		<path class="st10" d="M651.9,2001.4c2,1.7,4,3.1,6.1,4.4c1.7,1.1,3.5,2.2,5.4,3.1c1.9,1,3.7,1.5,5.3,1.6c1.2,0.1,2.1-0.2,2.8-0.8
			c0.6-0.6,1-1.2,1-1.8c0-0.6-0.4-1.3-1.2-1.9c-0.9-0.6-2-1.3-3.5-2.1c-1.5-0.8-3.2-1.8-5.2-2.9c-2-1.1-4-2.5-6.2-4.2
			c-1.8-1.3-3.2-2.5-4.2-3.7c-1-1.2-1.8-2.4-2.3-3.6c-0.5-1.2-0.9-2.5-1-3.9c-0.1-1.4-0.1-2.8,0-4.4c0.1-2,0.7-3.9,1.7-5.9
			c1-1.9,2.5-3.6,4.3-5.1c1.9-1.5,4.1-2.6,6.8-3.5c2.7-0.8,5.7-1.1,9.1-0.9c3.1,0.2,6,0.9,8.7,2c2.6,1.1,4.9,2.3,6.9,3.5
			c2.3,1.5,4.4,3.1,6.2,4.9l-8,11.7c-1.7-1.1-3.4-2.2-5.1-3.1c-1.4-0.8-2.9-1.5-4.5-2.3c-1.6-0.7-3-1.1-4.2-1.2
			c-1.3-0.1-2.2,0.2-2.9,0.7c-0.6,0.6-1,1.1-1,1.7c-0.1,1.3,0.8,2.6,2.6,3.9c1.8,1.3,4.4,2.8,7.7,4.5c4.5,2.2,7.8,4.8,9.9,7.7
			c2.1,2.9,3.1,6.3,2.8,10.3c-0.2,2.9-0.8,5.3-2,7.3c-1.2,2-2.7,3.5-4.6,4.6s-4.2,1.9-6.8,2.3c-2.6,0.4-5.5,0.5-8.6,0.3
			c-2.8-0.2-5.5-0.7-8-1.5c-2.5-0.8-4.8-1.7-7-2.8c-2.2-1.1-4.1-2.2-5.8-3.4c-1.7-1.2-3.1-2.3-4.4-3.3L651.9,2001.4z"/>
		<path class="st10" d="M740.2,1971.9c0.5,6.3,0.8,12.1,1,17.4c0.1,5.3,0.2,10,0.2,13.9c0,4.6-0.1,8.9-0.2,12.8l22.5,0.8l7.6,14.2
			l-38.4,0.3l-13-10.1c1.1-8,1.7-16.4,1.7-25.4c0-9-0.3-17.8-0.8-26.5c2.7,0.4,5.3,0.8,7.7,1.2c2.1,0.3,4.2,0.6,6.4,0.9
			C737.1,1971.6,738.8,1971.8,740.2,1971.9z"/>
		<path class="st10" d="M785.1,1973.9c-0.6,6.3-1,12.8-1.3,19.5c-0.1,2.8-0.2,5.8-0.3,9c-0.1,3.2-0.2,6.4-0.2,9.7
			c0,3.3,0,6.6,0.1,10c0.1,3.3,0.2,6.6,0.5,9.8l-18.3-0.7c-0.3-5.8-0.5-11.8-0.5-18.1c0-2.6,0-5.4,0-8.4s0.1-6.1,0.2-9.2
			s0.3-6.3,0.5-9.6c0.2-3.2,0.5-6.4,0.8-9.4L785.1,1973.9z"/>
		<path class="st10" d="M790.3,2010.1c2,1.7,4,3.1,6.1,4.4c1.7,1.1,3.5,2.2,5.4,3.1c1.9,1,3.7,1.5,5.3,1.6c1.2,0.1,2.1-0.2,2.8-0.8
			c0.6-0.6,1-1.2,1-1.8c0-0.6-0.4-1.3-1.2-1.9c-0.9-0.6-2-1.3-3.5-2.1c-1.5-0.8-3.2-1.8-5.2-2.9c-2-1.1-4-2.5-6.2-4.2
			c-1.8-1.3-3.2-2.5-4.2-3.7c-1-1.2-1.8-2.4-2.3-3.6c-0.5-1.2-0.9-2.5-1-3.9c-0.1-1.4-0.1-2.8,0-4.4c0.1-2,0.7-3.9,1.7-5.9
			c1-1.9,2.5-3.6,4.3-5.1c1.9-1.5,4.1-2.6,6.8-3.5c2.7-0.8,5.7-1.1,9.1-0.9c3.1,0.2,6,0.9,8.7,2c2.6,1.1,4.9,2.3,6.9,3.5
			c2.3,1.5,4.4,3.1,6.2,4.9l-8,11.7c-1.7-1.1-3.4-2.2-5.1-3.1c-1.4-0.8-2.9-1.5-4.5-2.3c-1.6-0.7-3-1.1-4.2-1.2
			c-1.3-0.1-2.2,0.2-2.9,0.7c-0.6,0.6-1,1.1-1,1.7c-0.1,1.3,0.8,2.6,2.6,3.9c1.8,1.3,4.4,2.8,7.7,4.5c4.5,2.2,7.8,4.8,9.9,7.7
			c2.1,2.9,3.1,6.3,2.8,10.3c-0.2,2.9-0.8,5.3-2,7.3c-1.2,2-2.7,3.5-4.6,4.6c-1.9,1.1-4.2,1.9-6.8,2.3c-2.6,0.4-5.5,0.5-8.6,0.3
			c-2.8-0.2-5.5-0.7-8-1.5c-2.5-0.8-4.8-1.7-7-2.8c-2.2-1.1-4.1-2.2-5.8-3.4c-1.7-1.2-3.1-2.3-4.4-3.3L790.3,2010.1z"/>
		<path class="st10" d="M877.9,1994.3l-19.5,2.7c-0.1,1.3-0.1,2.9-0.1,4.7c0,1.8,0.2,3.7,0.3,5.7c0.2,2,0.3,4.1,0.5,6.2
			c0.2,2.1,0.4,4.2,0.7,6.2c0.5,4.7,1.2,9.6,2,14.7l-18.6,2.5c-0.8-3.9-1.5-8.1-2.1-12.5c-0.5-4.4-1-8.5-1.3-12.2
			c-0.4-4.4-0.8-8.7-1-12.9l-17,1.7l2-13.9l54.9-7.7L877.9,1994.3z"/>
		<path class="st10" d="M877.1,2015.5c2,1.7,4,3.1,6.1,4.4c1.7,1.1,3.5,2.2,5.4,3.1c1.9,1,3.7,1.5,5.3,1.6c1.2,0.1,2.1-0.2,2.8-0.8
			c0.6-0.6,1-1.2,1-1.8c0-0.6-0.4-1.3-1.2-1.9c-0.9-0.6-2-1.3-3.5-2.1c-1.5-0.8-3.2-1.8-5.2-2.9s-4-2.5-6.1-4.2
			c-1.8-1.3-3.2-2.5-4.2-3.7c-1-1.2-1.8-2.4-2.3-3.6c-0.5-1.2-0.9-2.5-1-3.9c-0.1-1.4-0.1-2.8,0-4.4c0.1-2,0.7-3.9,1.7-5.9
			c1-1.9,2.5-3.6,4.3-5.1c1.9-1.5,4.1-2.6,6.8-3.5c2.7-0.8,5.7-1.1,9.1-0.9c3.1,0.2,6,0.9,8.7,2c2.6,1.1,4.9,2.3,6.9,3.5
			c2.3,1.5,4.4,3.1,6.2,4.9l-8,11.7c-1.7-1.1-3.4-2.2-5.1-3.1c-1.4-0.8-2.9-1.5-4.5-2.3s-3-1.1-4.2-1.2c-1.3-0.1-2.2,0.2-2.9,0.7
			c-0.6,0.6-1,1.1-1,1.7c-0.1,1.3,0.8,2.6,2.6,3.9c1.8,1.3,4.4,2.8,7.7,4.5c4.5,2.2,7.8,4.8,9.9,7.7c2.1,2.9,3.1,6.3,2.8,10.3
			c-0.2,2.9-0.8,5.3-2,7.3c-1.2,2-2.7,3.5-4.6,4.6c-1.9,1.1-4.2,1.9-6.8,2.3c-2.6,0.4-5.5,0.5-8.6,0.3c-2.8-0.2-5.5-0.7-8-1.5
			c-2.5-0.8-4.8-1.7-7-2.8c-2.2-1.1-4.1-2.2-5.8-3.4c-1.7-1.2-3.2-2.3-4.4-3.3L877.1,2015.5z"/>
		<path class="st10" d="M221.3,2052c-0.1-2.2-0.1-4.7-0.2-7.5c-0.1-2.8-0.1-5.8-0.1-9l-14.2,0.3c0,3.3,0,6.8,0,10.7s0,7.3,0.1,10.4
			L188,2057c0-7.8,0.1-15.3,0.2-22.4c0.1-3,0.1-6.1,0.1-9.2c0-3.1,0.1-6.2,0.2-9.1c0.1-2.9,0.2-5.6,0.3-8.1c0.1-2.5,0.2-4.6,0.3-6.3
			l17.8-1.2c-0.1,1.9-0.1,3.9-0.1,6.3c0,2,0,4.4-0.1,7.1c0,2.8-0.1,5.8-0.1,9.1l14.5-0.3c0.1-3.7,0.2-7.3,0.3-11
			c0.1-3.7,0.3-7.2,0.7-10.7l18.8-1.3c-0.3,6.6-0.5,13.3-0.7,20.1c-0.1,2.9-0.2,6-0.2,9.2c0,3.2-0.1,6.5-0.1,9.9c0,3.3-0.1,6.7,0,10
			c0,3.3,0.1,6.6,0.1,9.7l-18.5,0.2C221.4,2057,221.3,2054.6,221.3,2052z"/>
		<path class="st10" d="M289,2049l-4.4,14l-6.2-0.9c-1.9-0.2-4-0.5-6.3-0.7c-2.4-0.2-4.7-0.4-7.1-0.6c-1.2-0.1-2.8-0.1-4.8-0.2
			c-2,0-3.9,0-5.8,0c-2.3,0.1-4.6,0.1-7,0c0.5-8.3,0.3-16.8-0.5-25.5c-0.9-8.7-2.8-17-5.9-25.1l14-8.7l35.3,8.8l-12.5,9.4l-15.4-2.1
			c0.2,0.7,0.4,1.4,0.6,2.4c0.4,1.6,0.8,4,1.3,7.3l18.8,1.2l-5.4,10.4l-12.6-0.8c0,1.3,0.1,2.6,0.1,4c0,1.4,0,2.8,0,4.4L289,2049z"
			/>
		<path class="st10" d="M303.2,1998.1l-3.1,23l-5.2-0.3l-0.1-23.2L303.2,1998.1z"/>
		<path class="st10" d="M327.3,2008.5c0.5,6.3,0.8,12.1,1,17.4c0.1,5.3,0.2,10,0.2,14c0,4.6-0.1,8.9-0.2,12.8l22.5,0.8l7.6,14.2
			L320,2068l-13-10.1c1.1-8,1.7-16.4,1.7-25.4s-0.3-17.8-0.8-26.5c2.7,0.4,5.3,0.8,7.7,1.2c2.1,0.3,4.2,0.6,6.4,0.9
			C324.2,2008.3,325.9,2008.4,327.3,2008.5z"/>
		<path class="st10" d="M371.3,2011.3c0.5,6.3,0.8,12.1,1,17.4c0.1,5.3,0.2,10,0.2,14c0,4.6-0.1,8.9-0.2,12.8l22.5,0.8l7.6,14.2
			l-38.4,0.3l-13-10.1c1.1-8,1.7-16.4,1.7-25.4s-0.3-17.8-0.8-26.5c2.7,0.4,5.3,0.8,7.7,1.2c2.1,0.3,4.2,0.6,6.4,0.9
			C368.1,2011,369.9,2011.2,371.3,2011.3z"/>
		<path class="st10" d="M463.8,2075.2l-16.8-19.6c0.2,1.6,0.3,3.2,0.4,4.8c0.1,1.6,0.2,3.1,0.2,4.5c0.1,1.6,0.1,3.1,0.1,4.5
			l-19.4,3.8c-0.3-4.8-0.7-9.7-1.1-14.7c-0.4-5-0.8-10-1.4-14.8c-0.6-4.8-1.3-9.4-2.2-13.9c-0.9-4.4-2-8.5-3.4-12.1l15.8-8
			c2,1.2,4.3,2.4,6.9,3.6c2.6,1.2,5.2,2.4,7.8,3.6c2.6,1.3,5.2,2.6,7.7,4c2.5,1.4,4.7,3,6.5,4.8c1.9,1.8,3.4,3.7,4.4,6
			c1.1,2.2,1.5,4.7,1.4,7.5c-0.2,2.9-0.9,5.3-2.1,7c-1.2,1.7-2.8,3.2-4.8,4.3l22,24.9L463.8,2075.2z M454.6,2039.3
			c0.1-1.9-0.5-3.6-1.9-4.9c-1.4-1.4-2.9-2.5-4.6-3.5c-2-1.1-4.2-2-6.7-2.7c0.4,1.2,0.7,2.3,1.1,3.5c0.3,1.1,0.7,2.3,1,3.5
			c0.3,1.2,0.6,2.5,0.9,3.9c0.3,1.4,0.6,2.9,0.9,4.6c1,0.1,1.9,0.2,3,0.2c1,0,2-0.1,2.9-0.4c0.9-0.3,1.7-0.7,2.3-1.4
			C454.1,2041.4,454.5,2040.5,454.6,2039.3z"/>
		<path class="st10" d="M523.2,2063.7l-4.4,14l-6.2-0.9c-1.9-0.2-4-0.5-6.3-0.7c-2.4-0.2-4.7-0.4-7.1-0.6c-1.2-0.1-2.8-0.1-4.8-0.2
			c-2,0-3.9,0-5.8,0c-2.3,0.1-4.6,0.1-7,0c0.5-8.3,0.3-16.8-0.5-25.5c-0.9-8.7-2.8-17-5.9-25.1l14-8.7l35.3,8.8l-12.5,9.4l-15.4-2.1
			c0.2,0.7,0.4,1.4,0.6,2.4c0.4,1.6,0.8,4,1.3,7.3l18.8,1.2l-5.4,10.4l-12.6-0.8c0,1.3,0.1,2.6,0.1,4c0,1.4,0,2.8,0,4.4
			L523.2,2063.7z"/>
		<path class="st10" d="M570.2,2037.5l-19.5,2.7c-0.1,1.3-0.1,2.9-0.1,4.7c0,1.8,0.2,3.7,0.3,5.7c0.2,2,0.3,4.1,0.5,6.2
			c0.2,2.1,0.4,4.2,0.7,6.2c0.5,4.7,1.2,9.6,2,14.7l-18.6,2.5c-0.8-3.9-1.5-8.1-2.1-12.5c-0.5-4.4-1-8.5-1.3-12.2
			c-0.4-4.4-0.8-8.7-1-12.9l-17,1.7l2-13.9l54.9-7.7L570.2,2037.5z"/>
		<path class="st10" d="M619.6,2022.4c0.7,2.9,1.2,6.1,1.6,9.6c0.3,3,0.6,6.4,0.7,10.3c0.1,3.9,0,8.1-0.4,12.5
			c-0.4,4-1.1,7.9-2.2,11.6c-1.1,3.7-2.7,6.9-4.7,9.6c-2,2.7-4.6,4.8-7.8,6.3c-3.2,1.4-7.1,2-11.7,1.5c-4.7-0.5-8.7-1.7-12-3.5
			c-3.3-1.9-6.1-4.3-8.2-7.2c-2.2-2.9-3.8-6.3-5.1-10c-1.2-3.7-2.1-7.6-2.6-11.6c-0.5-4-0.7-8.2-0.6-12.4c0.1-4.2,0.3-8.3,0.7-12.3
			l20.3,0.6c-0.5,8.2-0.6,14.9-0.2,20c0.4,5.2,0.9,9.2,1.7,12.2c0.8,2.9,1.7,5,2.8,6.1c1.1,1.1,2.1,1.7,3,1.8
			c1.9,0.2,3.4-0.9,4.3-3.4c1-2.4,1.7-6.2,2.2-11.1c0.3-3.1,0.4-6.3,0.1-9.5c-0.2-3.2-0.5-6.2-0.9-8.8c-0.4-3.1-1-6.1-1.6-9
			L619.6,2022.4z"/>
		<path class="st10" d="M665.1,2087.9l-16.8-19.6c0.2,1.6,0.3,3.2,0.4,4.8c0.1,1.6,0.2,3.1,0.2,4.5c0.1,1.6,0.1,3.1,0.1,4.5
			l-19.4,3.8c-0.3-4.8-0.7-9.7-1.1-14.7c-0.4-5-0.8-10-1.4-14.8c-0.6-4.8-1.3-9.5-2.2-13.9c-0.9-4.4-2-8.5-3.4-12.1l15.8-8
			c2,1.2,4.3,2.4,6.9,3.6c2.6,1.2,5.2,2.4,7.8,3.6c2.6,1.3,5.2,2.6,7.7,4c2.5,1.4,4.7,3,6.5,4.8c1.9,1.8,3.4,3.7,4.4,6
			c1.1,2.2,1.5,4.7,1.4,7.5c-0.2,2.9-0.9,5.3-2.1,7c-1.2,1.7-2.8,3.2-4.8,4.3l22,24.9L665.1,2087.9z M655.9,2051.9
			c0.1-1.9-0.5-3.6-1.9-4.9c-1.4-1.4-2.9-2.5-4.6-3.5c-2-1.1-4.2-2-6.7-2.7c0.4,1.2,0.7,2.3,1.1,3.5c0.3,1.1,0.7,2.3,1,3.5
			c0.3,1.2,0.6,2.5,0.9,3.9c0.3,1.4,0.6,2.9,0.9,4.6c1,0.1,1.9,0.2,3,0.2c1,0,2-0.1,2.9-0.4c0.9-0.3,1.7-0.7,2.3-1.4
			C655.5,2054,655.8,2053.1,655.9,2051.9z"/>
		<path class="st10" d="M732.8,2091.1l-18.7-1.2l-16.5-21.7l-0.5,20.6l-17.8-1.1c0.3-7.1,0.4-14,0.5-20.5c0-2.8,0.1-5.6,0.1-8.6
			c0-3,0-5.8-0.1-8.6c-0.1-2.8-0.1-5.4-0.3-7.8c-0.1-2.5-0.3-4.6-0.5-6.4l15.7-1.7l20.7,31.2c-0.2-3.4-0.4-6.9-0.6-10.5
			c-0.2-3.1-0.4-6.6-0.7-10.4c-0.3-3.8-0.6-7.6-0.9-11.4l19.9-1.6c0.2,3.2,0.4,6.5,0.5,9.9c0.1,3.4,0.2,6.8,0.2,10.2
			c0,3.4,0,6.7,0,10c0,3.3-0.1,6.4-0.2,9.3C733.4,2077.7,733.1,2084.5,732.8,2091.1z"/>
		<path class="st10" d="M812,2051.3c0.3,2.5,0.6,5,0.8,7.5c0.3,2.6,0.5,5.1,0.6,7.6c0.2,2.5,0.3,4.8,0.4,7.1c0.1,2.2,0.1,4.2,0,5.9
			c-0.2,3.4-1,6.3-2.3,8.6c-1.3,2.3-3,4.2-5.1,5.6s-4.5,2.3-7.2,2.9c-2.7,0.5-5.7,0.7-8.8,0.5c-3.4-0.2-6.5-0.9-9.4-2
			c-2.9-1.1-5.4-2.6-7.5-4.4c-2.1-1.8-3.9-4-5.2-6.5c-1.4-2.5-2.3-5.3-2.7-8.3l18.7-1.9c0.2,1.6,0.7,3,1.3,4.5
			c0.6,1.4,1.5,2.7,2.4,3.8c1,1.1,2,2,3.2,2.6c1.1,0.7,2.4,1,3.6,1.1s1.9-1.2,1.8-3.8c-0.1-2.6-0.4-6.3-0.8-11.2
			c-4.4,1.5-8.4,2.1-12,1.9c-3.6-0.2-6.8-1.4-9.7-3.7c-2.8-2.3-5.2-5.9-7.1-10.7c-2-4.8-3.4-11.1-4.5-19l19.5-3.6
			c0.7,4.8,1.5,9.1,2.4,12.9c0.3,1.6,0.8,3.2,1.2,4.8c0.5,1.5,1,2.9,1.6,4.2c0.6,1.2,1.2,2.2,1.9,3c0.7,0.8,1.4,1.2,2.2,1.2
			c0.8,0,1.4-0.3,1.8-0.9c0.4-0.7,0.7-1.6,0.8-2.7c0.1-1.1,0.2-2.4,0.1-3.9c-0.1-1.5-0.2-3-0.3-4.5c-0.5-3.6-1.2-7.7-2.2-12.4
			l18.1-3.9C810.5,2039.6,811.3,2045.6,812,2051.3z"/>
		<path class="st10" d="M842.3,2040.4c1.9,0.1,3.8,0.4,5.9,0.9c2.1,0.5,4.1,1.1,6.1,2.1c2,0.9,3.9,2.1,5.7,3.6
			c1.8,1.5,3.3,3.4,4.6,5.6c1.3,2.2,2.2,4.9,2.9,7.9c0.7,3.1,0.9,6.6,0.6,10.6c-0.2,4-0.8,7.4-1.8,10.4c-1,2.9-2.2,5.4-3.7,7.5
			c-1.5,2.1-3.1,3.7-4.9,5c-1.8,1.3-3.7,2.2-5.6,2.9c-2,0.7-3.9,1.1-5.9,1.3c-1.9,0.2-3.8,0.2-5.5,0.1c-9.5-0.6-16.7-3.4-21.6-8.4
			c-4.8-5-7-12-6.4-21c0.3-4.5,1.2-8.6,2.8-12.3c1.6-3.6,3.7-6.7,6.3-9.2c2.6-2.5,5.6-4.3,9.1-5.6
			C834.6,2040.7,838.4,2040.2,842.3,2040.4z M841,2083.8c2.1,0.1,3.8-0.2,5.1-0.9s2.3-1.8,3.1-3.1c0.8-1.3,1.3-2.8,1.6-4.5
			s0.5-3.5,0.6-5.3c0.1-1.8,0-3.6-0.3-5.3c-0.3-1.8-1-3.3-1.9-4.7c-0.9-1.4-2.1-2.6-3.6-3.5c-1.5-0.9-3.3-1.5-5.4-1.6
			c-1.2-0.1-2.3,0.2-3.3,0.9c-1.1,0.6-2,1.6-2.9,2.8c-0.8,1.2-1.5,2.7-2.1,4.5c-0.5,1.7-0.9,3.7-1,5.8c-0.1,1.2,0,2.6,0.3,4.3
			c0.2,1.7,0.7,3.3,1.5,4.9c0.7,1.6,1.8,2.9,3.1,4.1C837.1,2083.1,838.9,2083.7,841,2083.8z"/>
		<path class="st10" d="M921.9,2041.4c0.7,2.9,1.2,6.1,1.6,9.6c0.3,3,0.6,6.4,0.7,10.3c0.1,3.9,0,8.1-0.4,12.5
			c-0.4,4-1.1,7.9-2.2,11.6c-1.1,3.7-2.7,6.9-4.7,9.6c-2,2.7-4.6,4.8-7.8,6.3c-3.2,1.4-7.1,2-11.7,1.5c-4.7-0.5-8.7-1.7-12-3.5
			c-3.3-1.9-6.1-4.3-8.2-7.2c-2.2-2.9-3.9-6.3-5.1-10c-1.2-3.7-2.1-7.6-2.6-11.6c-0.5-4-0.7-8.2-0.6-12.4c0.1-4.2,0.3-8.3,0.7-12.3
			l20.3,0.6c-0.5,8.2-0.6,14.9-0.2,20c0.4,5.2,0.9,9.2,1.7,12.2c0.8,2.9,1.7,5,2.8,6.1c1.1,1.1,2.1,1.7,3,1.8
			c1.9,0.2,3.4-0.9,4.3-3.4c1-2.4,1.7-6.2,2.2-11.1c0.3-3.1,0.4-6.3,0.1-9.5c-0.2-3.2-0.5-6.2-0.9-8.8c-0.4-3.1-1-6.1-1.6-9
			L921.9,2041.4z"/>
		<path class="st10" d="M934.9,2086.2c0.9,0.1,1.9,0.3,3,0.7c1.1,0.4,2.1,1,3,1.8c0.9,0.8,1.7,1.8,2.2,3.1c0.6,1.3,0.8,2.8,0.7,4.5
			c-0.2,2.8-1.2,5-3.1,6.4c-1.9,1.5-4,2.1-6.3,2c-3-0.2-5.3-1.1-7-2.7c-1.6-1.6-2.4-3.8-2.2-6.5c0.1-1.3,0.4-2.5,0.9-3.7
			c0.5-1.2,1.2-2.2,2.1-3c0.9-0.8,1.8-1.5,3-2C932.4,2086.3,933.6,2086.1,934.9,2086.2z"/>
	</g>
</g>
<g>
	<circle class="st6" cx="118.6" cy="1088.9" r="75.8"/>
</g>
<g>
	<circle class="st6" cx="885.7" cy="95.1" r="47.6"/>
</g>
<g>
	<circle class="st6" cx="784.3" cy="71.3" r="23.8"/>
</g>
<g>
	<circle class="st6" cx="997.6" cy="908.5" r="23.8"/>
</g>
<g>
	<circle class="st6" cx="100.3" cy="964.3" r="23.8"/>
</g>
<g>
	<circle class="st6" cx="142.4" cy="71.3" r="23.8"/>
</g>
<g>
	<circle class="st6" cx="95.7" cy="1792.2" r="23.8"/>
</g>
<g>
	<circle class="st6" cx="75.7" cy="1672.2" r="23.8"/>
</g>
<g>
	<circle class="st6" cx="165.7" cy="1750.8" r="32.9"/>
</g>
<g>
	<circle class="st6" cx="1045.2" cy="1742.2" r="23.8"/>
</g>
<g>
	<circle class="st6" cx="982.6" cy="1013.2" r="34.9"/>
</g>
<g>
	<circle class="st6" cx="1045.2" cy="1058.4" r="23.8"/>
</g>
</svg>
