<svg xmlns="http://www.w3.org/2000/svg" viewBox="0 0 64 58" width="96" height="87" fill="none" stroke="#d4ff00" stroke-linecap="round" stroke-linejoin="round">
  <path d="M6 10 C6 10 14 6 22 6 C28 6 32 10 32 10 C32 10 36 6 42 6 C50 6 58 10 58 10 V38 C58 38 50 34 42 34 C36 34 32 38 32 38 C32 38 28 34 22 34 C14 34 6 38 6 38 Z" stroke-width="3"/>
  <path d="M32 10 V38" stroke-width="3"/>
  <path d="M6 43 C14 39 24 39 32 43 C40 39 50 39 58 43" stroke-width="2.5"/>
  <path d="M6 48 C14 44 24 44 32 48 C40 44 50 44 58 48" stroke-width="2.5"/>
</svg>
