<svg xmlns="http://www.w3.org/2000/svg" xml:space="preserve" viewBox="0 0 1125 1125">
  <path d="M-17-10h1151v1149H-17z"/>
  <circle cx="618.7" cy="586" r="473.7" fill="#00977d"/>
  <path stroke="#cf0" stroke-linejoin="round" stroke-miterlimit="10" stroke-width="24.248" d="m818.8 405.1-91.1 106.7-73.2-106.5c-7.1-10.4-20.3-15-32.3-11.3-12.1 3.7-20.4 14.9-20.4 27.5-.1 13.8-5.5 47.7-21.2 58.5l-.9.6c-.1 0-.2.1-.2.2-6.8 4.7-16.7 5.6-23.8 5.6-19.5 0-38.3-6.9-38.4-7-11.8-4.5-25.2-.8-33 9.1s-8.3 23.8-1.1 34.2l73.1 106.5L95.8 791.6c-14.2 5-22.2 20.1-18.3 34.7s18.2 23.8 33.2 21c.7-.1 66.9-12.1 137.7-12.1 47.5 0 85.5 5.2 113.1 15.5 73.7 27.4 117.3 103.7 117.6 104.4 3.8 6.8 10.1 11.7 17.6 13.8s13.4.7 22.2-2.9c97-52.2 260.5-70.9 382.8 35.1 0 0 14.8 12.7 24.2 12.7 5.4 0 10.9-1.5 15.8-4.5.9-.5 2.2-1.5 3-2.1 12.1-9.6 14.5-27 5.6-39.5-.5-.7-49.6-70.9-25-184.2 21.1-96.9 128.9-184.6 129.9-185.4 6-4.8 9.8-11.9 10.6-19.6s-1.5-15.4-6.5-21.4c-.6-.7-56-68.7-55.1-147.4 1.1-93.7 86.3-233.8 87.1-235.2 7.8-12.8 4.5-29.6-7.7-38.5s-29.2-6.8-39 4.6L818.8 405.1"/>
</svg>
