<?xml version="1.0" encoding="utf-8"?>
<!-- Generator: Adobe Illustrator 26.4.1, SVG Export Plug-In . SVG Version: 6.00 Build 0)  -->
<svg version="1.1" id="Layer_1_copy" xmlns="http://www.w3.org/2000/svg" xmlns:xlink="http://www.w3.org/1999/xlink" x="0px"
	 y="0px" viewBox="0 0 1125 1125" style="enable-background:new 0 0 1125 1125;" xml:space="preserve">
<rect x="18" y="20" style="fill:#CCFF00;stroke:#000000;stroke-width:20;stroke-miterlimit:10;" width="1087.5" height="1088"/>
<g style="display:none;">
	<path style="display:inline;fill:none;stroke:#000000;stroke-width:10.6329;stroke-miterlimit:10;" d="M77.83,119.501c22.183,11.378,33.892,29.61,35.121,54.704c1.022,20.877-5.528,38.356-19.649,52.447
		c-14.121,14.092-31.972,21.666-53.547,22.722l-104.484,5.114L-76.785,8.229l97.097-4.753C41.42,2.443,59.504,8.082,74.565,20.392
		s23.085,28.553,24.072,48.72C99.636,89.517,92.7,106.315,77.83,119.501z M22.534,48.858l-48.548,2.376l2.652,54.177l48.548-2.376
		c7.503-0.367,13.649-3.252,18.442-8.661c4.788-5.403,6.995-11.98,6.616-19.719s-3.157-14.067-8.335-18.987
		C36.732,50.753,30.273,48.48,22.534,48.858z M37.533,203.991c8.207-0.402,14.872-3.489,19.999-9.266
		c5.123-5.772,7.48-12.885,7.067-21.328c-0.402-8.206-3.437-14.935-9.099-20.184c-5.667-5.244-12.602-7.67-20.809-7.268
		l-55.936,2.738l2.841,58.047L37.533,203.991z"/>
	<path style="display:inline;fill:none;stroke:#000000;stroke-width:10.6329;stroke-miterlimit:10;" d="M353.739,201.737c-23.649,25.964-53.299,39.813-88.947,41.558c-35.651,1.745-66.45-9.145-92.404-32.681
		c-25.958-23.53-39.809-53.24-41.566-89.123c-1.756-35.884,9.128-66.799,32.663-92.757c23.532-25.952,53.12-39.804,88.771-41.549
		c35.649-1.745,66.51,9.148,92.581,32.672c26.069,23.53,39.987,53.231,41.744,89.115
		C388.336,144.855,377.385,175.779,353.739,201.737z M204.719,175.884c15.981,14.381,35.235,21.021,57.748,19.919
		c22.516-1.102,41.021-9.59,55.529-25.463c14.503-15.874,21.184-35.535,20.036-58.99c-1.148-23.45-9.72-42.426-25.71-56.928
		c-15.994-14.496-35.243-21.196-57.759-20.094c-22.513,1.102-41.024,9.651-55.518,25.639
		c-14.502,15.995-21.175,35.717-20.027,59.167C180.166,142.587,188.73,161.502,204.719,175.884z"/>
	<path style="display:inline;fill:none;stroke:#000000;stroke-width:10.6329;stroke-miterlimit:10;" d="M632.361,188.099c-23.65,25.964-53.3,39.813-88.947,41.558c-35.652,1.745-66.451-9.145-92.404-32.681
		c-25.958-23.53-39.81-53.24-41.566-89.123c-1.756-35.884,9.128-66.799,32.663-92.757c23.531-25.952,53.118-39.804,88.771-41.549
		c35.647-1.745,66.508,9.148,92.581,32.672c26.069,23.53,39.986,53.231,41.743,89.115
		C666.957,131.217,656.007,162.141,632.361,188.099z M483.34,162.245c15.982,14.381,35.235,21.021,57.749,19.919
		c22.516-1.102,41.021-9.59,55.529-25.463c14.503-15.874,21.183-35.535,20.035-58.99c-1.148-23.45-9.719-42.426-25.709-56.928
		c-15.994-14.496-35.243-21.196-57.759-20.094c-22.515,1.102-41.024,9.651-55.519,25.639
		c-14.502,15.995-21.174,35.716-20.026,59.167C458.788,128.949,467.351,147.864,483.34,162.245z"/>
	<path style="display:inline;fill:none;stroke:#000000;stroke-width:10.6329;stroke-miterlimit:10;" d="M897.783,207.373l-55.936,2.738L748.252,99.065l5.646,115.352l-48.548,2.376L693.296-29.466l48.548-2.376
		l5.312,108.514l79.121-112.647l55.936-2.738L796.955,85.353L897.783,207.373z"/>
	<path style="display:inline;fill:none;stroke:#000000;stroke-width:10.6329;stroke-miterlimit:10;" d="M967.326-43.232L945.727,55.86l-36.938,1.808l9.284-98.489L967.326-43.232z"/>
	<path style="display:inline;fill:none;stroke:#000000;stroke-width:10.6329;stroke-miterlimit:10;" d="M1092.921,202.758c-24.396,1.194-45.182-3.254-62.366-13.345c-17.189-10.09-29.639-24.347-37.358-42.78
		l40.324-26.306c10.841,24.628,30.338,36.248,58.481,34.87c13.599-0.666,23.451-3.616,29.541-8.852
		c6.092-5.235,8.954-11.601,8.586-19.11c-0.425-8.674-4.625-15.229-12.599-19.66c-7.975-4.426-22.071-8.97-42.278-13.623
		c-11.187-2.741-20.671-5.567-28.45-8.481c-7.785-2.909-15.624-6.933-23.513-12.073c-7.894-5.135-14.041-11.832-18.439-20.08
		c-4.404-8.248-6.876-18.001-7.427-29.258c-1.091-22.279,5.956-40.432,21.137-54.46c15.183-14.022,33.911-21.584,56.195-22.675
		c19.932-0.976,37.705,3.037,53.309,12.026c15.604,8.994,28.052,21.962,37.344,38.902l-39.655,25.568
		c-10.883-20.626-27.116-30.411-48.691-29.355c-10.087,0.494-17.89,3.168-23.411,8.022c-5.526,4.855-8.106,10.921-7.75,18.188
		c0.379,7.74,3.908,13.859,10.596,18.348c6.684,4.494,19.312,9.105,37.881,13.839c7.619,1.98,13.396,3.52,17.329,4.618
		c3.933,1.102,9.308,2.839,16.125,5.205c6.815,2.372,12.096,4.642,15.849,6.806c3.747,2.169,8.064,5.131,12.953,8.887
		c4.884,3.761,8.663,7.686,11.333,11.787c2.669,4.101,5.029,9.099,7.081,14.993c2.052,5.894,3.25,12.36,3.594,19.395
		c1.114,22.752-6.27,41.214-22.15,55.391C1140.614,193.724,1119.421,201.461,1092.921,202.758z"/>
</g>
<g style="display:none;">
	<path style="display:inline;fill:none;stroke:#000000;stroke-width:10.6329;stroke-miterlimit:10;" d="M190.054,364.973l-166.49,8.15l4.832,98.705l161.733-7.917l3.842,78.488l-161.733,7.917l7.859,160.544
		l-82.055,4.017L-62.333,298.65l248.545-12.166L190.054,364.973z"/>
	<path style="display:inline;fill:none;stroke:#000000;stroke-width:10.6329;stroke-miterlimit:10;" d="M494.971,688.593l-91.21-140.371l-62.137,3.042l7.073,144.489l-82.055,4.017l-20.374-416.226l166.49-8.15
		c38.444-1.882,71.807,9.999,100.089,35.631c28.271,25.642,43.344,57.482,45.207,95.537c1.262,25.773-4.91,50.009-18.494,72.727
		c-13.584,22.718-32.201,40.216-55.831,52.492l99.839,152.475L494.971,688.593z M332.078,356.233l6.025,123.084l84.435-4.133
		c15.459-0.757,28.439-7.447,38.95-20.086c10.502-12.63,15.344-27.47,14.509-44.518c-0.834-17.04-7.097-31.243-18.773-42.592
		c-11.685-11.348-25.252-16.644-40.711-15.887L332.078,356.233z"/>
	<path style="display:inline;fill:none;stroke:#000000;stroke-width:10.6329;stroke-miterlimit:10;" d="M709.943,599.395l175.41-8.586l3.842,78.488l-257.465,12.603l-20.374-416.226l254.492-12.457l3.842,78.489
		l-172.437,8.441l4.337,88.596l157.572-7.713l3.784,77.299l-157.572,7.713L709.943,599.395z"/>
	<path style="display:inline;fill:none;stroke:#000000;stroke-width:10.6329;stroke-miterlimit:10;" d="M1025.084,583.969l175.41-8.586l3.842,78.488l-257.465,12.603l-20.374-416.226l254.492-12.457l3.842,78.489
		l-172.437,8.441l4.337,88.596l157.572-7.713l3.784,77.299l-157.572,7.713L1025.084,583.969z"/>
</g>
<g style="display:none;">
	<path style="display:inline;fill:none;stroke:#000000;stroke-width:10.6329;stroke-miterlimit:10;" d="M118.195,746.94c54.632-2.674,101.187,14.255,139.679,50.779c38.486,36.533,59.106,82.871,61.854,139.015
		c2.749,56.153-13.247,104.284-47.981,144.391c-34.74,40.117-79.419,61.503-134.052,64.178l-158.206,7.744l-19.5-398.362
		L118.195,746.94z M134.018,1070.182c34.519-1.69,62.038-14.536,82.54-38.554c20.502-24.008,29.853-54.415,28.051-91.218
		c-1.801-36.795-14.076-66.143-36.826-88.044c-22.749-21.891-51.392-31.997-85.91-30.307l-79.672,3.9l12.145,248.122
		L134.018,1070.182z"/>
	<path style="display:inline;fill:none;stroke:#000000;stroke-width:10.6329;stroke-miterlimit:10;" d="M717.889,1064.705c-38.257,42.001-86.221,64.403-143.886,67.226
		c-57.673,2.823-107.495-14.793-149.478-52.866c-41.991-38.062-64.398-86.123-67.24-144.17
		c-2.841-58.048,14.765-108.057,52.838-150.049c38.065-41.982,85.927-64.389,143.6-67.212
		c57.665-2.823,107.588,14.798,149.763,52.852c42.17,38.064,64.684,86.109,67.525,144.157
		C773.854,972.69,756.141,1022.715,717.889,1064.705z M476.825,1022.883c25.854,23.265,56.998,34.004,93.418,32.221
		c36.423-1.783,66.358-15.512,89.827-41.191c23.46-25.678,34.266-57.483,32.409-95.426c-1.857-37.934-15.722-68.63-41.588-92.09
		c-25.873-23.45-57.011-34.288-93.434-32.505c-36.421,1.783-66.362,15.611-89.811,41.475
		c-23.459,25.874-34.252,57.777-32.395,95.711C437.108,969.021,450.96,999.619,476.825,1022.883z"/>
	<path style="display:inline;fill:none;stroke:#000000;stroke-width:10.6329;stroke-miterlimit:10;" d="M1206.285,693.678l19.5,398.362l-77.963,3.816l-12.647-258.366l-103.297,190.31l-9.142,0.769l-120.84-178.68
		l12.599,257.388l-78.533,3.844l-19.5-398.362l80.809-3.956l123.434,182.51l104.443-193.665L1206.285,693.678z"/>
</g>
<path style="fill:none;stroke:#000000;stroke-width:19.066;stroke-miterlimit:10;" d="M476.003,402.536C533.329,435.573,562,485.422,562,552.096c0,55.472-19.629,100.953-58.889,136.472
	c-39.26,35.521-87.559,53.281-144.886,53.281H80.605l0-654.324l257.991,0c56.083,0,103.289,17.294,141.613,51.879
	c38.325,34.586,57.487,78.68,57.487,132.266C537.697,325.887,517.132,369.514,476.003,402.536z M338.596,208.11l-128.996,0
	l0,143.951l128.996,0c19.936,0,36.601-6.85,50.009-20.564c13.393-13.701,20.096-30.847,20.096-51.411s-6.543-37.698-19.629-51.411
	C375.986,214.973,359.16,208.11,338.596,208.11z M358.225,621.268c21.806,0,39.873-7.318,54.215-21.966
	c14.328-14.634,21.5-33.184,21.5-55.619c0-21.804-7.172-40.033-21.5-54.682c-14.342-14.634-32.409-21.966-54.215-21.966l-148.625,0
	l0,154.233L358.225,621.268z"/>
<path style="fill:none;stroke:#000000;stroke-width:18.5121;stroke-miterlimit:10;" d="M1050.401,625l0,427.145l-715.318,0l0-141.018l275.908,0l0-277.951l134.888,0l0,277.951l169.632,0l0-286.126
	H1050.401z"/>
<path style="fill:none;stroke:#000000;stroke-width:19.066;stroke-miterlimit:10;" d="M507.138,431.04c60.073,27.729,93.126,74.787,99.143,141.189c5.006,55.246-10.438,102.313-46.332,141.23
	c-35.894,38.919-82.393,60.966-139.486,66.14l-276.488,25.055L84.923,153l256.939-23.284c55.855-5.062,104.428,7.901,145.718,38.887
	s64.353,73.171,69.19,126.538C561.662,349.135,545.119,394.441,507.138,431.04z M352.745,249.808L224.275,261.45l12.992,143.363
	l128.469-11.642c19.854-1.799,35.833-10.125,47.949-24.994c12.102-14.854,17.23-32.534,15.374-53.015s-9.919-36.954-24.189-49.43
	C390.601,253.269,373.225,247.952,352.745,249.808z M409.581,659.508c21.717-1.968,39.05-10.887,52.011-26.77
	c12.949-15.868,18.417-34.989,16.392-57.332c-1.968-21.715-10.755-39.223-26.347-52.518c-15.604-13.28-34.259-18.952-55.976-16.984
	l-148.018,13.413l13.919,153.603L409.581,659.508z"/>
<path style="fill:none;stroke:#000000;stroke-width:18.5121;stroke-miterlimit:10;" d="M1015.156,603.723l-15.493,426.864l-714.847-25.946l5.115-140.926l275.727,10.008l10.082-277.768
	l134.799,4.893l-10.082,277.768l169.521,6.153l10.378-285.938L1015.156,603.723z"/>
</svg>
